<svg width="84" height="50" viewBox="0 0 84 50" fill="none" xmlns="http://www.w3.org/2000/svg">
<g clip-path="url(#clip0_133_67)">
<path d="M23.8464 18.2423C23.8464 19.2588 23.9561 20.083 24.148 20.6873C24.3673 21.2917 24.6414 21.9511 25.0251 22.6654C25.1622 22.8852 25.217 23.1049 25.217 23.2972C25.217 23.572 25.0526 23.8467 24.6962 24.1214L22.9692 25.2753C22.7225 25.4401 22.4758 25.5225 22.2565 25.5225C21.9824 25.5225 21.7083 25.3852 21.4341 25.1379C21.0504 24.7258 20.7214 24.2863 20.4473 23.8467C20.1732 23.3797 19.8991 22.8577 19.5975 22.2258C17.4594 24.7533 14.773 26.017 11.5383 26.017C9.23568 26.017 7.39905 25.3577 6.05585 24.039C4.71265 22.7203 4.02734 20.9621 4.02734 18.7643C4.02734 16.4291 4.84971 14.5335 6.52186 13.1049C8.19401 11.6764 10.4144 10.9621 13.2379 10.9621C14.1699 10.9621 15.1293 11.0445 16.1436 11.1819C17.1578 11.3192 18.1995 11.539 19.296 11.7863V9.78076C19.296 7.69284 18.8574 6.2368 18.0076 5.38515C17.1304 4.5335 15.6501 4.12142 13.5394 4.12142C12.58 4.12142 11.5931 4.23131 10.5789 4.47856C9.56462 4.72581 8.57778 5.02801 7.61835 5.41262C7.17976 5.60493 6.85081 5.71482 6.65892 5.76977C6.46704 5.82471 6.32998 5.85218 6.22033 5.85218C5.83655 5.85218 5.64467 5.57746 5.64467 5.00054V3.65438C5.64467 3.21482 5.69949 2.88515 5.83655 2.69284C5.97362 2.50054 6.22033 2.30823 6.6041 2.11592C7.56353 1.62142 8.71484 1.20933 10.058 0.879657C11.4012 0.522515 12.8267 0.357679 14.3344 0.357679C17.5964 0.357679 19.9813 1.09944 21.5164 2.58295C23.0241 4.06647 23.7916 6.31922 23.7916 9.3412V18.2423H23.8464ZM12.717 22.4181C13.6216 22.4181 14.5537 22.2533 15.5405 21.9236C16.5273 21.5939 17.4045 20.9895 18.1447 20.1654C18.5833 19.6434 18.9122 19.0665 19.0767 18.4071C19.2412 17.7478 19.3508 16.9511 19.3508 16.017V14.8632C18.5559 14.6709 17.7061 14.506 16.8289 14.3961C15.9517 14.2863 15.1019 14.2313 14.2521 14.2313C12.4155 14.2313 11.0723 14.5884 10.1677 15.3302C9.26309 16.072 8.82449 17.1159 8.82449 18.4895C8.82449 19.7808 9.15344 20.7423 9.83875 21.4016C10.4966 22.0884 11.4561 22.4181 12.717 22.4181ZM34.7291 25.3852C34.2357 25.3852 33.9067 25.3027 33.6874 25.1104C33.4681 24.9456 33.2762 24.561 33.1118 24.039L26.6699 2.80273C26.5054 2.25328 26.4232 1.89614 26.4232 1.70383C26.4232 1.26427 26.6425 1.01702 27.0811 1.01702H29.7675C30.2883 1.01702 30.6447 1.09944 30.8366 1.29175C31.0559 1.45658 31.2203 1.8412 31.3848 2.36317L35.9901 20.55L40.2664 2.36317C40.4034 1.81372 40.5679 1.45658 40.7872 1.29175C41.0065 1.12691 41.3903 1.01702 41.8837 1.01702H44.0767C44.5975 1.01702 44.9539 1.09944 45.1732 1.29175C45.3925 1.45658 45.5844 1.8412 45.694 2.36317L50.0251 20.7698L54.7675 2.36317C54.9319 1.81372 55.1238 1.45658 55.3157 1.29175C55.535 1.12691 55.8914 1.01702 56.3848 1.01702H58.9341C59.3727 1.01702 59.6194 1.2368 59.6194 1.70383C59.6194 1.8412 59.592 1.97856 59.5646 2.14339C59.5372 2.30823 59.4824 2.52801 59.3727 2.83021L52.7664 24.0665C52.6019 24.6159 52.41 24.9731 52.1907 25.1379C51.9714 25.3027 51.6151 25.4126 51.149 25.4126H48.7916C48.2708 25.4126 47.9144 25.3302 47.6951 25.1379C47.4758 24.9456 47.2839 24.5884 47.1743 24.039L42.9254 6.31922L38.7039 24.0115C38.5668 24.561 38.4023 24.9181 38.183 25.1104C37.9637 25.3027 37.58 25.3852 37.0866 25.3852H34.7291ZM69.9539 26.1269C68.5284 26.1269 67.103 25.9621 65.7324 25.6324C64.3618 25.3027 63.2927 24.9456 62.58 24.5335C62.1414 24.2863 61.8398 24.0115 61.7302 23.7643C61.6205 23.517 61.5657 23.2423 61.5657 22.995V21.5939C61.5657 21.017 61.785 20.7423 62.1962 20.7423C62.3607 20.7423 62.5251 20.7698 62.6896 20.8247C62.8541 20.8797 63.1008 20.9895 63.3749 21.0994C64.3069 21.5115 65.3212 21.8412 66.3903 22.061C67.4868 22.2808 68.5558 22.3906 69.6523 22.3906C71.3793 22.3906 72.7225 22.0884 73.6545 21.4841C74.5865 20.8797 75.08 20.0005 75.08 18.8742C75.08 18.1049 74.8333 17.4731 74.3398 16.9511C73.8464 16.4291 72.9144 15.9621 71.5712 15.5225L67.5964 14.2863C65.5953 13.6544 64.1151 12.7203 63.2104 11.4841C62.3058 10.2753 61.8398 8.92911 61.8398 7.50054C61.8398 6.34669 62.0865 5.33021 62.58 4.45109C63.0734 3.57196 63.7313 2.80273 64.5536 2.19834C65.376 1.56647 66.308 1.09944 67.4045 0.769767C68.501 0.440097 69.6523 0.302734 70.8585 0.302734C71.4615 0.302734 72.092 0.330207 72.6951 0.412624C73.3256 0.495042 73.9012 0.604932 74.4769 0.714822C75.0251 0.852185 75.546 0.989547 76.0394 1.15438C76.5328 1.31922 76.9166 1.48405 77.1907 1.64889C77.5745 1.86867 77.8486 2.08845 78.0131 2.3357C78.1776 2.55548 78.2598 2.85768 78.2598 3.24229V4.5335C78.2598 5.11043 78.0405 5.41262 77.6293 5.41262C77.41 5.41262 77.0536 5.30273 76.5876 5.08295C75.0251 4.36867 73.2708 4.01153 71.3245 4.01153C69.762 4.01153 68.5284 4.25878 67.6786 4.78076C66.8289 5.30273 66.3903 6.09944 66.3903 7.22581C66.3903 7.99504 66.6644 8.65438 67.2126 9.17636C67.7609 9.69834 68.7751 10.2203 70.228 10.6874L74.1205 11.9236C76.0942 12.5555 77.5197 13.4346 78.3694 14.561C79.2192 15.6873 79.6304 16.9786 79.6304 18.4071C79.6304 19.5884 79.3837 20.6599 78.9177 21.5939C78.4243 22.528 77.7664 23.3522 76.9166 24.0115C76.0668 24.6983 75.0526 25.1928 73.8738 25.55C72.6403 25.9346 71.3519 26.1269 69.9539 26.1269Z" fill="#252F3E"/>
<path fill-rule="evenodd" clip-rule="evenodd" d="M75.1365 39.3324C66.1178 46.0082 53.0147 49.5522 41.7483 49.5522C25.9588 49.5522 11.7318 43.7005 0.98623 33.9752C0.136449 33.206 0.903993 32.162 1.91825 32.7664C13.5411 39.5247 27.8777 43.6181 42.7077 43.6181C52.7132 43.6181 63.7055 41.5302 73.8207 37.2445C75.3283 36.5577 76.6167 38.2335 75.1365 39.3324Z" fill="#FF9900"/>
<path fill-rule="evenodd" clip-rule="evenodd" d="M78.8913 35.0467C77.74 33.5632 71.2707 34.3324 68.3375 34.6896C67.4604 34.7995 67.3233 34.0302 68.1182 33.4533C73.2718 29.8269 81.7422 30.8709 82.729 32.0797C83.7158 33.3159 82.4549 41.8049 77.6303 45.8709C76.8902 46.5028 76.1775 46.1731 76.5064 45.3489C77.6029 42.6291 80.0426 36.5028 78.8913 35.0467Z" fill="#FF9900"/>
</g>
<defs>
<clipPath id="clip0_133_67">
<rect width="83.3333" height="50" fill="white" transform="translate(0.164062)"/>
</clipPath>
</defs>
</svg>
