<svg width="189" height="50" viewBox="0 0 189 50" fill="none" xmlns="http://www.w3.org/2000/svg">
<path d="M65.9702 41.7624C56.0983 41.7624 49.9102 34.838 49.9102 25.5394C49.9102 16.3308 56.1527 9.31641 66.0246 9.31641C73.9911 9.31641 78.6367 13.3991 80.5784 19.4963H75.2614C73.5737 15.7193 70.8335 13.7948 66.0065 13.7948C59.274 13.7948 55.2453 19.0107 55.2453 25.5574C55.2453 32.1042 59.274 37.32 66.0065 37.32C71.1783 37.32 73.973 35.0358 75.2614 31.6186H80.5784C79.1085 37.4279 73.9004 41.7624 65.9702 41.7624Z" fill="black"/>
<path d="M103.062 41.2047H97.8357C97.6723 40.1975 97.5998 39.1903 97.6179 38.1831V37.5176H97.5816C96.7832 39.586 94.7144 41.7802 90.3229 41.7802C85.1873 41.7802 82.2656 38.6148 82.2656 35.0176C82.2656 28.4349 90.0506 28.2551 93.3352 27.7335C96.3476 27.2479 97.5816 26.8162 97.5816 24.9277C97.5816 23.0392 95.9484 21.8162 93.1538 21.8162C90.6676 21.8162 88.9074 23.1831 88.7804 25.4493H83.7718C83.9896 21.7263 86.9657 17.8594 93.063 17.8594C100.667 17.8594 102.626 22.3738 102.626 27.2479V35.9709C102.626 37.6975 102.699 40.0177 103.062 41.2047ZM97.7086 28.381C97.1824 29.7479 95.894 30.791 92.1375 31.4565C88.9981 32.032 87.3649 32.8953 87.3649 34.9277C87.3649 36.7263 88.9618 38.0392 91.6113 38.0392C94.7507 38.0392 97.7268 35.809 97.7268 30.7551V28.381H97.7086Z" fill="black"/>
<path d="M114.293 21.7618C112.297 21.7618 110.573 22.9489 110.573 24.5676C110.573 26.7618 113.223 27.3734 117.07 28.2547C121.099 29.1359 124.02 31.0244 124.02 34.6575C124.02 39.1719 119.629 41.8158 114.584 41.8158C109.884 41.8158 105.474 39.7115 104.93 34.2618H110.011C110.446 36.7618 112.007 37.8949 114.656 37.8949C116.834 37.8949 118.867 37.0136 118.867 34.9093C118.867 32.6791 116.616 32.3194 112.932 31.4381C109.267 30.6108 105.583 28.9021 105.583 24.7654C105.583 20.6288 109.648 17.877 114.348 17.877C119.302 17.877 123.022 20.377 123.548 25.287H118.703C118.377 22.823 116.38 21.7618 114.293 21.7618Z" fill="black"/>
<path d="M149.754 29.7846C149.754 36.8529 145.417 41.8529 139.356 41.8529C135.418 41.8529 132.842 39.7846 131.916 37.0687H131.88V49.9285H126.617V18.5256H131.934V22.6443C132.769 20.1803 135.437 17.9141 139.374 17.9141C145.417 17.9141 149.754 22.7702 149.754 29.7846ZM144.583 29.7846C144.583 25.486 142.096 22.0687 138.086 22.0687C134.148 22.0687 131.716 25.0903 131.535 29.299V29.7846C131.535 34.263 133.622 37.6443 138.086 37.6443C142.187 37.6443 144.583 34.1731 144.583 29.7846Z" fill="black"/>
<path d="M173.835 31.2414H156.214C156.577 35.3601 159.227 37.7342 162.802 37.7342C165.415 37.7342 167.574 36.763 168.427 34.4968H173.508C172.129 39.1011 168.191 41.8169 162.802 41.8169C155.942 41.8169 151.242 36.9428 151.242 29.8026C151.242 22.9141 156.106 17.9141 162.802 17.9141C170.587 17.9141 173.781 23.8853 173.817 30.2882V31.2414H173.835ZM168.754 27.5543C168.391 23.9932 166.322 21.8529 162.784 21.8529C159.245 21.8529 156.85 24.0831 156.323 27.5543H168.754Z" fill="black"/>
<path d="M181.71 30.4503V41.2057H176.574V18.5258H181.619V23.346H181.71C182.599 20.2704 184.813 18.256 188.442 18.0762V23.1661C184.105 23.2201 181.71 25.9719 181.71 30.4503Z" fill="black"/>
<path d="M41.9976 38.6148C40.7999 38.6148 39.7836 39.4422 39.5296 40.5933L30.0025 40.1436C30.0387 39.9638 30.0569 39.7839 30.0569 39.6041C30.0569 39.2803 30.0025 38.9566 29.9117 38.6328L33.3778 36.6544C34.2307 37.6976 35.7732 37.9134 36.8801 37.122C37.9871 36.3307 38.2774 34.8199 37.5334 33.6868C36.7894 32.5537 35.2832 32.194 34.1037 32.8595C32.9241 33.5249 32.4704 34.9997 33.0874 36.2048L29.7302 38.1292C28.9318 36.4566 26.9538 35.7012 25.2298 36.4026C23.5059 37.1041 22.6348 39.0285 23.2518 40.7731L17.0093 42.2659C16.973 41.4206 16.61 40.6292 16.0112 40.0177L17.1363 38.471C18.4066 38.9026 19.8039 38.2731 20.312 37.0321C20.8201 35.7911 20.2576 34.3702 19.0417 33.8127C17.8259 33.2371 16.356 33.7228 15.7208 34.8918C15.0857 36.0609 15.4849 37.5357 16.6282 38.2371L15.5938 39.658C14.8679 39.1184 13.9424 38.8846 13.0351 38.9925L11.9644 32.9314C13.3073 32.6436 14.3417 31.6005 14.632 30.2875C14.9224 28.9566 14.4143 27.5897 13.3254 26.7803C12.2366 25.953 10.7667 25.8451 9.56903 26.4746L6.86514 21.2407C7.44584 20.953 7.91766 20.5033 8.26245 19.9638L10.5127 20.5573C10.4945 20.6832 10.4764 20.7911 10.4764 20.917C10.4764 22.212 11.4745 23.3091 12.781 23.435C14.0876 23.5609 15.2853 22.6796 15.5212 21.3846C15.7571 20.0897 14.9768 18.8487 13.7065 18.5069C12.4362 18.1472 11.1115 18.8127 10.6397 20.0357L8.51651 19.4782C8.80686 18.7947 8.8613 18.0393 8.67983 17.3199L14.9405 14.4602C16.1019 15.899 18.207 16.2048 19.7313 15.1256C21.2556 14.0465 21.6549 11.9782 20.6386 10.4314L24.631 6.56449C25.1209 6.87024 25.6835 7.06808 26.246 7.10406V8.81269C24.9213 8.95657 23.9232 10.1077 23.9958 11.4386C24.0684 12.7695 25.1754 13.8127 26.5182 13.8127C27.8611 13.8127 28.9681 12.7695 29.0407 11.4386C29.1133 10.1077 28.1333 8.95657 26.7904 8.81269V7.10406C27.2986 7.06808 27.7704 6.9242 28.2059 6.69039L32.5793 11.6364C31.5631 12.9674 31.6357 14.8199 32.7426 16.0609C33.8677 17.3019 35.7187 17.5897 37.1705 16.7264C38.6222 15.863 39.2392 14.1184 38.6767 12.5537L40.0377 11.7983C40.9087 12.8055 42.4149 12.9854 43.4856 12.176C44.5563 11.3846 44.8103 9.89183 44.0663 8.7947C43.3223 7.69758 41.8342 7.35585 40.691 8.03931C39.5477 8.72276 39.1303 10.1616 39.7473 11.3487L38.4589 12.0681C37.9327 11.1148 36.989 10.4674 35.9183 10.3055C34.8477 10.1436 33.7407 10.4854 32.9604 11.2407L28.6777 6.40262C29.0951 6.07888 29.4399 5.64722 29.6758 5.17959L33.4322 5.79111C33.7226 7.08607 34.9929 7.93139 36.2994 7.69758C37.6242 7.48175 38.5315 6.27672 38.3863 4.96377C38.2411 3.65082 37.0797 2.66161 35.755 2.73355C34.4121 2.80549 33.3778 3.88463 33.3596 5.21557L29.8754 4.64003C30.3654 2.98535 29.5669 1.22276 27.9881 0.48535C26.4094 -0.25206 24.5402 0.287509 23.5784 1.72636C22.6167 3.16521 22.8707 5.08967 24.1773 6.24075L20.2939 9.99974C19.695 9.31629 18.8421 8.88463 17.9348 8.81269V6.18679C19.2595 6.0429 20.2576 4.89183 20.185 3.56089C20.1124 2.22995 19.0236 1.20477 17.6807 1.20477C16.3378 1.20477 15.2309 2.24794 15.1583 3.57888C15.0857 4.90981 16.0656 6.06089 17.4085 6.20478V8.81269C16.2108 8.90262 15.1401 9.60406 14.5776 10.6472C14.015 11.7084 14.0332 12.9674 14.632 14.0105L8.53466 16.7803C8.3169 16.2587 7.9721 15.8091 7.53658 15.4494L9.91382 11.2048C10.1316 11.2587 10.3312 11.2947 10.549 11.2947C11.8374 11.2947 12.9081 10.3415 13.0714 9.08247C13.2347 7.82348 12.4 6.65442 11.166 6.34866C9.91382 6.0429 8.64354 6.70837 8.18987 7.89542C7.73619 9.08247 8.26246 10.4134 9.38756 11.0069L7.08291 15.1436C5.68559 14.3163 3.92534 14.5501 2.78209 15.7012C1.65698 16.8523 1.45736 18.5969 2.31027 19.9638C3.16317 21.3307 4.83269 21.9422 6.37518 21.4566L9.11536 26.7623C8.42578 27.2659 7.93581 28.0213 7.77249 28.8487L5.77633 28.2731C5.83077 28.0753 5.84892 27.8595 5.84892 27.6616C5.84892 26.3846 4.88713 25.3235 3.61685 25.1796C2.34656 25.0357 1.16701 25.8451 0.858516 27.0861C0.550019 28.3271 1.2396 29.5861 2.45544 30.0177C3.65314 30.4494 4.99601 29.9278 5.57671 28.7947L7.6999 29.4062C7.6999 29.4602 7.6999 29.5141 7.6999 29.5681C7.6999 30.7551 8.29875 31.8523 9.31498 32.4818L7.95396 34.2443C6.95588 33.363 5.43154 33.417 4.4879 34.3702C3.54426 35.3235 3.50796 36.8163 4.41531 37.8055C5.32266 38.7947 6.82885 38.9026 7.88137 38.0573C8.93389 37.212 9.11536 35.7192 8.33504 34.64L9.80494 32.7336C10.2405 32.9314 10.7304 33.0213 11.2204 33.0213C11.293 33.0213 11.3656 33.0213 11.4382 33.0033L12.527 39.1005C11.0752 39.5321 10.059 40.8451 10.0046 42.3379C9.96826 43.8487 10.9119 45.1976 12.3455 45.7012C13.7791 46.2048 15.376 45.7372 16.3015 44.5321L21.3827 46.7803C21.3464 46.9602 21.3101 47.158 21.3101 47.3379C21.3101 48.6148 22.2719 49.694 23.5603 49.8379C24.8487 49.9818 26.0283 49.1544 26.3186 47.9134C26.609 46.6724 25.9012 45.4134 24.6854 44.9818C23.4696 44.5501 22.1267 45.1077 21.5641 46.2587L16.61 44.0645C16.8278 43.6688 16.973 43.2371 17.0093 42.7875L23.4696 41.2228C23.9595 42.122 24.8306 42.7515 25.8468 42.9674C26.863 43.1652 27.9156 42.9134 28.714 42.2839L31.1276 44.3523C30.565 45.5753 31.055 47.0141 32.2527 47.6256C33.4504 48.2551 34.9203 47.8415 35.6098 46.6904C36.2994 45.5393 35.9728 44.0645 34.8658 43.3091C33.7407 42.5537 32.2345 42.8055 31.4179 43.8666L29.1133 41.9062C29.458 41.5465 29.7121 41.0969 29.8754 40.6292L39.4751 41.0969C39.4933 42.4818 40.6184 43.5789 42.0157 43.5789C43.413 43.5789 44.5381 42.4458 44.52 41.0789C44.52 39.73 43.3949 38.6148 41.9976 38.6148Z" fill="black"/>
</svg>
