<svg width="64" height="64" viewBox="0 0 64 64" fill="none" xmlns="http://www.w3.org/2000/svg">
<path d="M49.0384 29.1603L42.3184 22.4403L44.9584 19.8003L49.1384 23.9803L61.1784 12.8203L63.7184 15.5603L49.0384 29.1603Z" fill="#FDCD2C"/>
<path d="M26.3787 36.3398C24.6387 36.3398 23.3588 36.8798 22.4988 37.9398C21.6388 38.9998 21.2188 40.2398 21.2188 41.7198C21.2188 43.1998 21.6388 44.4798 22.4988 45.5198C23.3588 46.5798 24.6387 47.0998 26.3787 47.0998C28.1187 47.0998 29.3988 46.5798 30.2588 45.5198C31.1188 44.4598 31.5388 43.1798 31.5388 41.7198C31.5388 40.2598 31.1188 38.9998 30.2588 37.9398C29.3988 36.8798 28.1187 36.3398 26.3787 36.3398ZM28.1388 44.0798C27.7188 44.6398 27.1388 44.8998 26.3588 44.8998C25.5788 44.8998 24.9988 44.6198 24.5788 44.0798C24.1588 43.5198 23.9587 42.7398 23.9587 41.7398C23.9587 40.7398 24.1588 39.9398 24.5788 39.3998C24.9988 38.8598 25.5988 38.5798 26.3588 38.5798C27.1188 38.5798 27.7188 38.8598 28.1388 39.3998C28.5588 39.9398 28.7588 40.7198 28.7588 41.7398C28.7588 42.7598 28.5588 43.5398 28.1388 44.0798Z" fill="#282352"/>
<path d="M38.8588 36.4399C38.0188 36.4399 37.3388 36.6399 36.7988 37.0599C36.4988 37.2799 36.1788 37.6599 35.8388 38.1799V36.6999H33.2988V46.7799H35.9388V41.3199C35.9388 40.6999 36.0188 40.1799 36.1988 39.7799C36.5388 39.0199 37.1388 38.6399 38.0388 38.6399C38.7588 38.6399 39.2588 38.8999 39.5188 39.4199C39.6588 39.6999 39.7388 40.1199 39.7388 40.6399V46.7799H42.4388V39.9799C42.4388 38.7199 42.0988 37.7999 41.4388 37.2599C40.7788 36.7199 39.9188 36.4399 38.8788 36.4399H38.8588Z" fill="#282352"/>
<path d="M50.4993 44.4999C50.1593 44.7999 49.7193 44.9599 49.1793 44.9599C48.6593 44.9599 48.2193 44.8399 47.8593 44.5799C47.2593 44.1799 46.9393 43.4599 46.8993 42.4599H53.8193C53.8193 41.5799 53.8193 40.9199 53.7393 40.4599C53.6193 39.6599 53.3593 38.9799 52.9793 38.3799C52.5393 37.6999 51.9793 37.1999 51.3193 36.8799C50.6593 36.5599 49.8793 36.3999 49.0593 36.3999C47.6393 36.3999 46.4993 36.8599 45.5993 37.7999C44.6993 38.7399 44.2793 40.0799 44.2793 41.8199C44.2793 43.6799 44.7793 45.0399 45.7593 45.8599C46.7393 46.6799 47.8793 47.0999 49.1593 47.0999C50.7193 47.0999 51.9193 46.6199 52.7993 45.6199C53.3593 44.9999 53.6593 44.3999 53.7393 43.7999H51.0393C50.8993 44.0999 50.7393 44.3199 50.5393 44.4999H50.4993ZM47.5993 39.1599C47.9393 38.7799 48.4193 38.5799 49.0193 38.5799C49.5793 38.5799 50.0593 38.7599 50.4393 39.1199C50.8193 39.4799 51.0393 40.0199 51.0793 40.6999H46.9793C47.0593 40.0399 47.2793 39.5199 47.6193 39.1399L47.5993 39.1599Z" fill="#282352"/>
<path d="M16.7987 21.9001C16.4987 21.4201 16.1187 21.0601 15.6387 20.7801C15.1587 20.5201 14.6187 20.3801 13.9987 20.3801C12.6787 20.3801 11.6187 20.8801 10.8187 21.8601C10.0187 22.8401 9.63867 24.2001 9.63867 25.9201C9.63867 27.4201 10.0387 28.6401 10.8387 29.6001C11.6387 30.5601 12.6387 31.0401 13.8187 31.0401C14.5387 31.0401 15.1387 30.9001 15.6187 30.6401C16.0587 30.4001 16.4387 30.0001 16.7987 29.4801V37.9601C16.4987 37.4801 16.1187 37.1201 15.6387 36.8401C15.1587 36.5801 14.6187 36.4401 13.9987 36.4401C12.6787 36.4401 11.6187 36.9401 10.8187 37.9201C10.0187 38.9001 9.63867 40.2601 9.63867 41.9801C9.63867 43.4801 10.0387 44.7001 10.8387 45.6601C11.6387 46.6201 12.6387 47.1001 13.8187 47.1001C14.5387 47.1001 15.1387 46.9601 15.6187 46.7001C16.0987 46.4201 16.5387 46.0001 16.8987 45.4001V46.8001H19.4587V17.0801H16.7787V21.9001H16.7987ZM16.2987 44.0201C15.9187 44.5801 15.3387 44.8601 14.5987 44.8601C13.8587 44.8601 13.2987 44.5801 12.9387 44.0201C12.5787 43.4601 12.3787 42.7201 12.3787 41.7801C12.3787 40.9201 12.5587 40.2001 12.9187 39.6001C13.2787 39.0201 13.8387 38.7201 14.6187 38.7201C15.1187 38.7201 15.5587 38.8801 15.9587 39.2001C16.5787 39.7401 16.8987 40.6201 16.8987 41.8401C16.8987 42.7201 16.6987 43.4401 16.3187 44.0001L16.2987 44.0201ZM16.2987 27.9801C15.9187 28.5401 15.3387 28.8201 14.5987 28.8201C13.8587 28.8201 13.2987 28.5401 12.9387 27.9801C12.5787 27.4201 12.3787 26.6801 12.3787 25.7401C12.3787 24.8801 12.5587 24.1601 12.9187 23.5601C13.2787 22.9801 13.8387 22.6801 14.6187 22.6801C15.1187 22.6801 15.5587 22.8401 15.9587 23.1601C16.5787 23.7001 16.8987 24.5801 16.8987 25.8001C16.8987 26.6801 16.6987 27.4001 16.3187 27.9601L16.2987 27.9801Z" fill="#282352"/>
<path d="M26.0978 31.0599C27.6578 31.0599 28.8578 30.5599 29.7378 29.5799C30.2978 28.9599 30.5978 28.3599 30.6778 27.7599H27.9778C27.8378 28.0599 27.6778 28.2799 27.4778 28.4599C27.1378 28.7599 26.6978 28.9199 26.1578 28.9199C25.6378 28.9199 25.1978 28.7999 24.8378 28.5399C24.2378 28.1399 23.9178 27.4199 23.8778 26.4199H30.7978C30.7978 25.5399 30.7978 24.8799 30.7178 24.4199C30.5978 23.6199 30.3378 22.9399 29.9578 22.3399C29.5178 21.6599 28.9578 21.1599 28.2978 20.8399C27.6178 20.5199 26.8578 20.3599 26.0378 20.3599C24.6178 20.3599 23.4778 20.8199 22.5778 21.7599C21.6978 22.6999 21.2578 24.0399 21.2578 25.7799C21.2578 27.6399 21.7578 28.9799 22.7378 29.8199C23.7178 30.6399 24.8578 31.0599 26.1378 31.0599H26.0978ZM24.5778 23.0999C24.9178 22.7199 25.3978 22.5199 25.9978 22.5199C26.5578 22.5199 27.0378 22.6999 27.4178 23.0599C27.7978 23.4199 28.0178 23.9599 28.0578 24.6399H23.9578C24.0378 23.9799 24.2578 23.4599 24.5978 23.0799L24.5778 23.0999Z" fill="#282352"/>
<path d="M35.8993 31.0599V22.5799H37.6393V20.7199H35.8993V19.8599C35.8993 19.6599 35.9593 19.4799 36.0993 19.3199C36.2393 19.1599 36.4793 19.0799 36.8193 19.0799C37.1593 19.0799 37.4193 19.0999 37.5593 19.1199V16.9799C37.3193 16.9599 37.1393 16.9399 36.9993 16.9399C36.8593 16.9399 36.7193 16.9399 36.5393 16.9399C35.0793 16.9399 34.1593 17.2399 33.7593 17.8399C33.3993 18.2399 33.2193 18.9999 33.2193 20.0799V20.7199H31.7793V22.5799H33.2593V31.0599H35.8993Z" fill="#282352"/>
<path d="M62.5193 56.4401H0.279297V7.62012H49.0393V10.4801H3.1393V53.5801H59.6393V31.0601H62.5193V56.4401Z" fill="#282352"/>
</svg>
