<svg width="123" height="50" viewBox="0 0 123 50" fill="none" xmlns="http://www.w3.org/2000/svg">
<path d="M17.1212 10.8535C13.5578 11.8535 11.4344 13.9999 10.0921 17.9267C9.50629 19.6584 9.40867 20.3169 9.31104 23.9511C9.23782 27.1218 9.28663 28.4145 9.60392 29.8047C10.6534 34.5608 13.1673 37.2925 17.4873 38.4145C19.391 38.9023 24.2236 38.9023 26.1761 38.3901C26.9815 38.195 28.1775 37.7559 28.8365 37.4145L30.008 36.8291V29.634V22.4389H25.1266H20.2453V25.1218V27.8047H22.1978H24.1504V30.3413C24.1504 33.2681 24.248 33.1706 21.5144 33.1706C17.3653 33.1706 15.3639 30.4389 15.3639 24.7559C15.3639 18.6828 17.5117 16.0974 22.5395 16.0974C23.4914 16.0974 24.9802 16.2681 25.8344 16.4633C26.7131 16.6828 27.5429 16.8047 27.7138 16.7316C27.8846 16.6584 28.2507 15.5608 28.568 14.2681C29.1782 11.5852 29.227 11.7316 27.2012 11.073C25.4683 10.4877 18.9029 10.3657 17.1212 10.8535Z" fill="black"/>
<path d="M55.7582 11.7554C55.6849 11.9262 55.6605 17.9506 55.6849 25.1213L55.7582 38.1701L58.7602 38.2432L61.7378 38.3164V32.5603V26.8286H65.5209H69.3039V32.5603V38.3164L72.306 38.2432L75.2836 38.1701L75.3568 24.8042L75.4056 11.4627H72.3548H69.3039V16.4627V21.4627H65.5209H61.7378V16.4627V11.4627H58.809C56.6856 11.4627 55.8314 11.5359 55.7582 11.7554Z" fill="black"/>
<path d="M97.125 24.8787V38.2933H99.2972C101.299 38.2933 101.494 38.2445 101.64 37.7811C101.738 37.5128 101.884 37.3177 101.958 37.3665C103.886 38.3909 104.74 38.6104 106.839 38.7323C108.279 38.8055 109.499 38.7323 110.231 38.5128C111.793 38.0982 113.258 36.6104 113.99 34.7567C114.503 33.4153 114.551 32.9274 114.576 28.9031C114.576 25.1957 114.503 24.3665 114.137 23.5372C113.307 21.6835 112.477 20.7567 111.061 20.0738C109.865 19.4884 109.426 19.3909 107.62 19.4153C106.375 19.4396 105.13 19.6104 104.471 19.8543C103.886 20.0738 103.373 20.2445 103.324 20.2445C103.276 20.2445 103.202 18.2933 103.178 15.9031L103.105 11.586L100.127 11.5128L97.125 11.4396V24.8787ZM107.693 25.0006C109.231 26.5616 109.231 32.1957 107.693 33.4153C106.912 34.025 105.326 34.0494 103.959 33.5128L102.983 33.1226V29.0982V25.0982L103.788 24.7567C104.203 24.5616 105.13 24.4153 105.814 24.3909C106.839 24.3909 107.181 24.5128 107.693 25.0006Z" fill="black"/>
<path d="M34.1805 12.3649C32.9357 12.9746 32.3988 13.999 32.5208 15.56C32.6184 17.0966 33.4971 18.1698 34.9127 18.5356C35.7913 18.7795 36.011 18.7551 37.3778 18.2429C38.3296 17.9015 39.0374 16.6332 39.0374 15.3405C39.0374 12.7307 36.5235 11.2185 34.1805 12.3649Z" fill="black"/>
<path d="M43.4334 17.3167V19.9753L42.4083 20.2436C40.1873 20.8045 40.2361 20.7558 40.3094 22.8533L40.3826 24.7558L41.9202 24.8289L43.4334 24.9021V29.4631C43.4334 31.9753 43.5555 34.4143 43.6775 34.9021C44.068 36.268 44.9222 37.3655 46.1182 38.0484C47.1188 38.6094 47.4849 38.6582 50.0477 38.6582C53.6843 38.6582 53.7331 38.6338 53.6355 35.9997L53.5622 34.0241L51.9026 33.8777C49.4131 33.6582 49.4375 33.6826 49.3399 28.9021L49.2666 24.8777H51.3656H53.4646L53.3914 22.3655L53.3182 19.8777L51.3168 19.8045L49.291 19.7314V17.1948V14.6338H46.3622H43.4334V17.3167Z" fill="black"/>
<path d="M32.9851 19.9504C32.7654 20.1211 32.6922 22.1211 32.741 29.1699L32.8142 38.1699H35.7431H38.6719L38.7451 29.1699C38.7939 22.1211 38.7207 20.1211 38.501 19.9504C38.3302 19.8528 37.0854 19.7553 35.7431 19.7553C34.4007 19.7553 33.1559 19.8528 32.9851 19.9504Z" fill="black"/>
<path d="M77.6513 27.4881C77.7246 34.732 77.749 35.0491 78.2615 36.0247C79.4086 38.1466 81.2635 38.8783 84.9734 38.732C86.7063 38.6588 87.6093 38.4881 88.7564 38.0003C90.2208 37.4149 90.2941 37.3905 90.4161 37.8296C90.5625 38.2442 90.831 38.293 92.6371 38.293H94.6873V29.1466V20.0003H91.7585H88.8296L88.7808 26.5125L88.7076 33.0491L87.9754 33.3905C87.5849 33.5857 86.6819 33.8052 85.9985 33.8539C84.8758 33.9515 84.7049 33.9027 84.2412 33.293C83.7286 32.6344 83.7042 32.4149 83.7042 26.3174V20.0003H80.629H77.5781L77.6513 27.4881Z" fill="black"/>
</svg>
