<svg width="51" height="50" viewBox="0 0 51 50" fill="none" xmlns="http://www.w3.org/2000/svg">
<g clip-path="url(#clip0_133_85)">
<path d="M40.1213 2.55556L29.6884 18.0556C28.967 19.1111 30.3544 20.3889 31.3532 19.5L41.6196 10.5556C41.8971 10.3333 42.2855 10.5 42.2855 10.8889V38.8333C42.2855 39.2222 41.7861 39.3889 41.5641 39.1111L10.4875 1.88889C9.48865 0.666667 8.04581 0 6.43649 0H5.32661C2.44093 0 0.0546875 2.38889 0.0546875 5.33333V44.6667C0.0546875 47.6111 2.44093 50 5.3821 50C7.2134 50 8.93371 49.0556 9.9326 47.4444L20.3655 31.9444C21.0869 30.8889 19.6995 29.6111 18.7006 30.5L8.43427 39.3889C8.1568 39.6111 7.76834 39.4444 7.76834 39.0556V11.1667C7.76834 10.7778 8.26778 10.6111 8.48976 10.8889L39.5663 48.1111C40.5652 49.3333 42.0636 50 43.6174 50H44.7273C47.6685 50 50.0547 47.6111 50.0547 44.6667V5.33333C50.0547 2.38889 47.6685 0 44.7273 0C42.8405 0 41.1202 0.944444 40.1213 2.55556Z" fill="black"/>
</g>
<defs>
<clipPath id="clip0_133_85">
<rect width="50" height="50" fill="white" transform="translate(0.0546875)"/>
</clipPath>
</defs>
</svg>
