<svg width="58" height="50" viewBox="0 0 58 50" fill="none" xmlns="http://www.w3.org/2000/svg">
<g clip-path="url(#clip0_133_82)">
<path d="M43.2198 15.2247C42.1765 14.6277 40.8352 14.6277 39.6429 15.2247L31.2971 20.1501L25.6338 23.2844L17.4369 28.2098C16.3937 28.8068 15.0524 28.8068 13.8601 28.2098L7.45168 24.3292C6.40845 23.7322 5.66328 22.5381 5.66328 21.1948V13.7322C5.66328 12.5381 6.25941 11.3441 7.45168 10.5978L13.8601 6.86649C14.9034 6.26947 16.2447 6.26947 17.4369 6.86649L23.8454 10.7471C24.8886 11.3441 25.6338 12.5381 25.6338 13.8814V18.8068L31.2971 15.5232V10.4486C31.2971 9.25455 30.7009 8.06052 29.5087 7.31425L17.586 0.299324C16.5427 -0.297691 15.2014 -0.297691 14.0092 0.299324L1.7884 7.4635C0.596135 8.06052 0 9.25455 0 10.4486V24.4784C0 25.6725 0.596135 26.8665 1.7884 27.6128L13.8601 34.6277C14.9034 35.2247 16.2447 35.2247 17.4369 34.6277L25.6338 29.8516L31.2971 26.568L39.4939 21.7919C40.5371 21.1948 41.8784 21.1948 43.0707 21.7919L49.4792 25.5232C50.5224 26.1202 51.2676 27.3142 51.2676 28.6575V36.1202C51.2676 37.3143 50.6714 38.5083 49.4792 39.2545L43.2198 42.9859C42.1765 43.5829 40.8352 43.5829 39.6429 42.9859L33.2345 39.2545C32.1913 38.6575 31.4461 37.4635 31.4461 36.1202V31.3441L25.7828 34.6277V39.5531C25.7828 40.7471 26.379 41.9411 27.5712 42.6874L39.6429 49.7023C40.6862 50.2993 42.0275 50.2993 43.2198 49.7023L55.2915 42.6874C56.3347 42.0904 57.0799 40.8963 57.0799 39.5531V25.374C57.0799 24.1799 56.4837 22.9859 55.2915 22.2396L43.2198 15.2247Z" fill="#8247E5"/>
</g>
<defs>
<clipPath id="clip0_133_82">
<rect width="57.2289" height="50" fill="white"/>
</clipPath>
</defs>
</svg>
