<svg width="22" height="22" viewBox="0 0 22 22" fill="none" xmlns="http://www.w3.org/2000/svg">
<path fill-rule="evenodd" clip-rule="evenodd" d="M2.7206e-07 2.2204C2.7206e-07 1.75325 0.193646 1.30522 0.538338 0.974894C0.88303 0.644564 1.35053 0.458987 1.838 0.458987H20.16C20.4016 0.458609 20.6409 0.503897 20.8641 0.592259C21.0874 0.680621 21.2903 0.810321 21.4612 0.973934C21.6322 1.13755 21.7677 1.33186 21.8602 1.54575C21.9526 1.75963 22.0001 1.98889 22 2.2204V19.779C22.0003 20.0105 21.9529 20.2399 21.8606 20.4539C21.7683 20.6679 21.6328 20.8623 21.462 21.0261C21.2912 21.1899 21.0884 21.3197 20.8651 21.4083C20.6419 21.4969 20.4026 21.5424 20.161 21.5423H1.838C1.59655 21.5423 1.35746 21.4967 1.1344 21.4081C0.911335 21.3196 0.708671 21.1897 0.537984 21.0261C0.367297 20.8624 0.231932 20.6681 0.139623 20.4543C0.0473133 20.2405 -0.000131096 20.0113 2.7206e-07 19.7799V2.2204ZM8.708 8.49749H11.687V9.93115C12.117 9.10699 13.217 8.36524 14.87 8.36524C18.039 8.36524 18.79 10.0069 18.79 13.0189V18.5983H15.583V13.7051C15.583 11.9897 15.153 11.0217 14.061 11.0217C12.546 11.0217 11.916 12.0654 11.916 13.7051V18.5983H8.708V8.49749ZM3.208 18.467H6.416V8.36524H3.208V18.467ZM6.875 5.07049C6.88105 5.33371 6.83217 5.59545 6.73124 5.84033C6.63031 6.08521 6.47935 6.3083 6.28723 6.49652C6.09511 6.68473 5.8657 6.83427 5.61246 6.93637C5.35921 7.03846 5.08724 7.09105 4.8125 7.09105C4.53776 7.09105 4.26579 7.03846 4.01255 6.93637C3.7593 6.83427 3.52989 6.68473 3.33777 6.49652C3.14565 6.3083 2.99469 6.08521 2.89376 5.84033C2.79283 5.59545 2.74395 5.33371 2.75 5.07049C2.76187 4.55381 2.98439 4.06212 3.36989 3.70073C3.75539 3.33934 4.27322 3.13697 4.8125 3.13697C5.35178 3.13697 5.86961 3.33934 6.25512 3.70073C6.64062 4.06212 6.86313 4.55381 6.875 5.07049Z" fill="white"/>
</svg>
