<svg width="24" height="24" viewBox="0 0 24 24" fill="none" xmlns="http://www.w3.org/2000/svg">
<path d="M19 10.4167C19 12.7737 17.585 15.3155 15.8419 17.3416C14.9853 18.3374 14.0883 19.1625 13.3273 19.7298C12.9459 20.0141 12.6148 20.2216 12.3533 20.3533C12.0603 20.5008 11.9583 20.5 12 20.5V22.5C12.4417 22.5 12.8897 22.3224 13.2529 22.1395C13.6477 21.9407 14.0791 21.6639 14.5227 21.3333C15.4117 20.6705 16.4147 19.7425 17.3581 18.6459C19.215 16.4874 21 13.4874 21 10.4167H19ZM12 20.5C12.0417 20.5 11.9397 20.5008 11.6467 20.3533C11.3852 20.2216 11.0541 20.0141 10.6727 19.7298C9.91172 19.1625 9.01473 18.3374 8.15808 17.3416C6.41504 15.3155 5 12.7737 5 10.4167H3C3 13.4874 4.78496 16.4874 6.64192 18.6459C7.58527 19.7425 8.58828 20.6705 9.47733 21.3333C9.92091 21.6639 10.3523 21.9407 10.7471 22.1395C11.1103 22.3224 11.5583 22.5 12 22.5V20.5ZM5 10.4167C5 6.60654 8.12411 3.5 12 3.5V1.5C7.03934 1.5 3 5.48228 3 10.4167H5ZM12 3.5C15.8759 3.5 19 6.60654 19 10.4167H21C21 5.48228 16.9607 1.5 12 1.5V3.5Z" fill="#00FFCA"/>
<circle r="3" transform="matrix(-1 0 0 1 12 10)" stroke="#00FFCA" stroke-width="2"/>
</svg>
