<svg width="178" height="237" viewBox="0 0 178 237" fill="none" xmlns="http://www.w3.org/2000/svg">
<path opacity="0.5" d="M169.058 236.439H10.2765C8.8202 236.435 7.4241 235.856 6.3942 234.829C5.36431 233.797 4.78507 232.403 4.7832 230.946V6.09557C4.78507 4.63929 5.36431 3.24318 6.3942 2.21328C7.4241 1.18376 8.8202 0.604163 10.2765 0.602295H169.058C170.515 0.604163 171.909 1.18376 172.94 2.21328C173.971 3.24318 174.551 4.63929 174.551 6.09557V230.909C174.554 231.634 174.412 232.351 174.14 233.02C173.863 233.689 173.459 234.298 172.951 234.81C172.439 235.326 171.834 235.733 171.165 236.013C170.5 236.293 169.782 236.435 169.058 236.439Z" fill="#2982E2"/>
<path d="M164.275 236.439H5.49325C4.03697 236.435 2.64087 235.856 1.61098 234.829C0.581455 233.797 0.00186846 232.403 0 230.946V6.09557C0.00186846 4.63929 0.581455 3.24318 1.61098 2.21328C2.64087 1.18376 4.03697 0.604163 5.49325 0.602295H164.275C165.731 0.604163 167.127 1.18376 168.157 2.21328C169.187 3.24318 169.766 4.63929 169.768 6.09557V230.909C169.77 231.634 169.63 232.351 169.356 233.02C169.081 233.689 168.677 234.298 168.167 234.81C167.657 235.326 167.051 235.733 166.383 236.013C165.715 236.293 164.999 236.435 164.275 236.439Z" fill="#2982E2"/>
<path d="M139.836 40.9611H88.864C88.0908 40.9611 87.3494 40.6543 86.8027 40.1076C86.2564 39.5608 85.9492 38.8194 85.9492 38.0463C85.9492 37.2735 86.2564 36.5321 86.8027 35.9854C87.3494 35.4386 88.0908 35.1315 88.864 35.1315H139.836C140.608 35.1315 141.35 35.4386 141.896 35.9854C142.443 36.5321 142.75 37.2735 142.75 38.0463C142.75 38.8194 142.443 39.5608 141.896 40.1076C141.35 40.6543 140.608 40.9611 139.836 40.9611Z" fill="white"/>
<path d="M141.181 54.7879H87.4813C87.0748 54.7879 86.6854 54.6265 86.398 54.3391C86.1106 54.0517 85.9492 53.662 85.9492 53.2558C85.9492 52.8492 86.1106 52.4598 86.398 52.1724C86.6854 51.8851 87.0748 51.7236 87.4813 51.7236H141.181C141.587 51.7236 141.977 51.8851 142.264 52.1724C142.552 52.4598 142.713 52.8492 142.713 53.2558C142.713 53.662 142.552 54.0517 142.264 54.3391C141.977 54.6265 141.587 54.7879 141.181 54.7879Z" fill="white"/>
<path d="M119.208 67.4184H87.4813C87.0748 67.4184 86.6854 67.2569 86.398 66.9696C86.1106 66.6822 85.9492 66.2924 85.9492 65.8862C85.9492 65.4797 86.1106 65.0903 86.398 64.8029C86.6854 64.5156 87.0748 64.3541 87.4813 64.3541H119.208C119.41 64.3519 119.609 64.3904 119.796 64.4666C119.983 64.5428 120.153 64.6557 120.296 64.7984C120.438 64.9412 120.551 65.1108 120.627 65.2977C120.704 65.4841 120.742 65.6845 120.74 65.8862C120.738 66.2921 120.576 66.6803 120.289 66.9673C120.002 67.2543 119.614 67.4165 119.208 67.4184Z" fill="white"/>
<path d="M139.836 117.568H88.864C88.0908 117.568 87.3494 117.261 86.8027 116.714C86.2564 116.168 85.9492 115.426 85.9492 114.653C85.9492 113.88 86.2564 113.139 86.8027 112.592C87.3494 112.045 88.0908 111.738 88.864 111.738H139.836C140.608 111.738 141.35 112.045 141.896 112.592C142.443 113.139 142.75 113.88 142.75 114.653C142.75 115.426 142.443 116.168 141.896 116.714C141.35 117.261 140.608 117.568 139.836 117.568Z" fill="white"/>
<path d="M141.181 131.432H87.4813C87.0748 131.432 86.6854 131.271 86.398 130.983C86.1106 130.696 85.9492 130.306 85.9492 129.9C85.9492 129.494 86.1106 129.104 86.398 128.816C86.6854 128.529 87.0748 128.368 87.4813 128.368H141.181C141.383 128.366 141.583 128.404 141.769 128.481C141.956 128.557 142.126 128.67 142.269 128.812C142.411 128.955 142.524 129.124 142.601 129.311C142.677 129.498 142.715 129.698 142.713 129.9C142.711 130.306 142.549 130.694 142.262 130.981C141.975 131.268 141.587 131.43 141.181 131.432Z" fill="white"/>
<path d="M119.208 144.062H87.4813C87.0748 144.062 86.6854 143.901 86.398 143.614C86.1106 143.326 85.9492 142.937 85.9492 142.53C85.9492 142.124 86.1106 141.734 86.398 141.447C86.6854 141.159 87.0748 140.998 87.4813 140.998H119.208C119.41 140.996 119.609 141.034 119.796 141.111C119.983 141.187 120.153 141.3 120.296 141.442C120.438 141.585 120.551 141.755 120.627 141.942C120.704 142.128 120.742 142.328 120.74 142.53C120.731 142.934 120.567 143.319 120.281 143.604C119.996 143.89 119.611 144.054 119.208 144.062Z" fill="white"/>
<path d="M45.9264 107.441H41.8905V107.852C37.2534 108.782 33.0819 111.29 30.0845 114.948C27.0871 118.606 25.4492 123.19 25.4492 127.919C25.4492 132.649 27.0871 137.232 30.0845 140.89C33.0819 144.549 37.2534 147.056 41.8905 147.986V148.397H45.9264C51.3576 148.397 56.5665 146.24 60.407 142.4C64.2474 138.559 66.4047 133.35 66.4047 127.919C66.4047 122.488 64.2474 117.279 60.407 113.439C56.5665 109.598 51.3576 107.441 45.9264 107.441Z" fill="#2982E2"/>
<path d="M41.9282 148.36C45.9708 148.36 49.923 147.161 53.2847 144.915C56.6461 142.669 59.266 139.477 60.8131 135.742C62.3602 132.007 62.7649 127.896 61.9764 123.932C61.1876 119.966 59.2406 116.324 56.3823 113.465C53.5235 110.606 49.8811 108.66 45.9159 107.871C41.9507 107.082 37.8408 107.487 34.1057 109.034C30.3707 110.581 27.1782 113.201 24.932 116.563C22.6861 119.925 21.4873 123.876 21.4873 127.919C21.4873 133.34 23.6409 138.54 27.4742 142.373C31.3076 146.207 36.5067 148.36 41.9282 148.36Z" fill="#4D61FC"/>
<path d="M41.9282 148.36C45.9708 148.36 49.923 147.161 53.2847 144.915C56.6461 142.669 59.266 139.477 60.8131 135.742C62.3602 132.007 62.7649 127.896 61.9764 123.932C61.1876 119.966 59.2406 116.324 56.3823 113.465C53.5235 110.606 49.8811 108.66 45.9159 107.871C41.9507 107.082 37.8408 107.487 34.1057 109.034C30.3707 110.581 27.1782 113.201 24.932 116.563C22.6861 119.925 21.4873 123.876 21.4873 127.919C21.4873 133.34 23.6409 138.54 27.4742 142.373C31.3076 146.207 36.5067 148.36 41.9282 148.36Z" fill="white"/>
<path d="M38.1157 136.477L31.2024 129.563C31.1138 129.475 31.0435 129.371 30.9953 129.255C30.9475 129.14 30.9229 129.016 30.9229 128.891C30.9229 128.766 30.9475 128.642 30.9953 128.527C31.0435 128.411 31.1138 128.306 31.2024 128.218L32.9961 126.424C33.0843 126.336 33.1889 126.266 33.3044 126.218C33.4199 126.17 33.5435 126.145 33.6687 126.145C33.7935 126.145 33.9172 126.17 34.0327 126.218C34.1482 126.266 34.2532 126.336 34.3414 126.424L38.7883 130.871L49.4759 120.184C49.5637 120.095 49.6684 120.024 49.7838 119.976C49.8993 119.928 50.0234 119.903 50.1486 119.903C50.2737 119.903 50.3974 119.928 50.5129 119.976C50.6284 120.024 50.733 120.095 50.8212 120.184L52.6149 121.977C52.7035 122.066 52.7737 122.171 52.8216 122.286C52.8698 122.402 52.8944 122.525 52.8944 122.65C52.8944 122.775 52.8698 122.899 52.8216 123.014C52.7737 123.13 52.7035 123.235 52.6149 123.323L39.4609 136.477C39.2745 136.639 39.0353 136.729 38.7883 136.729C38.5409 136.729 38.3021 136.639 38.1157 136.477Z" fill="#2982E2"/>
<path d="M122.159 209.795H53.5865C52.893 209.795 52.2274 209.52 51.7368 209.029C51.2465 208.538 50.9707 207.873 50.9707 207.179V189.279C50.9707 188.586 51.2465 187.92 51.7368 187.43C52.2274 186.939 52.893 186.663 53.5865 186.663H122.196C122.89 186.663 123.556 186.939 124.046 187.43C124.537 187.92 124.812 188.586 124.812 189.279V207.179C124.801 207.876 124.517 208.541 124.021 209.03C123.525 209.52 122.856 209.794 122.159 209.795Z" fill="white"/>
<path opacity="0.5" d="M122.159 209.795H53.5865C52.893 209.795 52.2274 209.52 51.7368 209.029C51.2465 208.538 50.9707 207.873 50.9707 207.179V189.279C50.9707 188.586 51.2465 187.92 51.7368 187.43C52.2274 186.939 52.893 186.663 53.5865 186.663H122.196C122.89 186.663 123.556 186.939 124.046 187.43C124.537 187.92 124.812 188.586 124.812 189.279V207.179C124.801 207.876 124.517 208.541 124.021 209.03C123.525 209.52 122.856 209.794 122.159 209.795Z" fill="#2982E2"/>
<path d="M119.581 209.795H50.9713C50.2777 209.795 49.6122 209.52 49.1216 209.029C48.6313 208.538 48.3555 207.873 48.3555 207.179V189.279C48.3555 188.586 48.6313 187.92 49.1216 187.43C49.6122 186.939 50.2777 186.663 50.9713 186.663H119.581C120.275 186.663 120.94 186.939 121.431 187.43C121.922 187.92 122.197 188.586 122.197 189.279V207.179C122.197 207.873 121.922 208.538 121.431 209.029C120.94 209.52 120.275 209.795 119.581 209.795Z" fill="white"/>
<path d="M149.103 18.8012L142.564 12.2615L136.024 18.8012C135.92 18.9207 135.781 19.0041 135.627 19.0392C135.473 19.0747 135.311 19.0601 135.166 18.9977C135.02 18.9353 134.899 18.8284 134.818 18.6924C134.737 18.5564 134.701 18.3983 134.716 18.2406V0.751831H150.449V18.2406C150.447 18.3961 150.4 18.5474 150.314 18.6763C150.227 18.8053 150.104 18.9058 149.961 18.9652C149.818 19.025 149.66 19.0414 149.508 19.0123C149.355 18.9831 149.214 18.9095 149.103 18.8012Z" fill="#3F4249"/>
<path d="M165.572 7L152.2 28.0367L174.2 30.7522L165.572 7Z" fill="#B2B6BB"/>
<path d="M138.624 199.596L131.303 198.668L152.202 28.037L159.524 28.9307L138.624 199.596Z" fill="white"/>
<path opacity="0.2" d="M138.624 199.596L131.303 198.668L152.202 28.037L159.524 28.9307L138.624 199.596Z" fill="#2982E2"/>
<path d="M153.266 201.383L145.944 200.49L166.809 29.8585L174.2 30.7522L153.266 201.383Z" fill="white"/>
<path opacity="0.2" d="M153.266 201.383L145.944 200.49L166.809 29.8585L174.2 30.7522L153.266 201.383Z" fill="#2982E2"/>
<path d="M145.945 200.489L138.623 199.596L159.522 28.9303L166.809 29.8584L145.945 200.489Z" fill="#2982E2"/>
<path d="M162.032 12.5685L165.573 7L167.841 13.2904L162.032 12.5685Z" fill="#21252B"/>
<g opacity="0.15">
<path opacity="0.15" d="M153.449 65.0044L148.255 65.1763L148.274 65.6995L153.464 65.5275L153.449 65.0044Z" fill="black"/>
</g>
<g opacity="0.15">
<path opacity="0.15" d="M152.829 67.2957L148.658 67.6432L148.699 68.1626L152.873 67.8151L152.829 67.2957Z" fill="black"/>
</g>
<path d="M145.671 236.479L130.134 234.554C129.282 234.447 128.508 234.007 127.98 233.33C127.452 232.653 127.213 231.797 127.315 230.945L131.302 198.667L153.267 201.383L149.28 233.66C149.228 234.083 149.093 234.489 148.884 234.86C148.675 235.231 148.394 235.554 148.059 235.815C147.724 236.08 147.341 236.273 146.93 236.386C146.521 236.499 146.093 236.53 145.671 236.479Z" fill="#3F4249"/>
<path opacity="0.4" d="M146.529 200.558L142.542 232.835C142.434 233.688 141.995 234.461 141.318 234.987C140.642 235.516 139.784 235.757 138.933 235.654L145.67 236.479C146.521 236.579 147.377 236.338 148.052 235.809C148.727 235.283 149.168 234.509 149.279 233.66L153.266 201.383L146.529 200.558Z" fill="black"/>
<path d="M153.271 201.41L131.299 198.698L130.584 204.497L152.556 207.209L153.271 201.41Z" fill="#B2B6BB"/>
<path d="M52.8397 32.5153L49.0655 31.1327L48.916 31.5064C44.2459 30.7908 39.472 31.7134 35.4052 34.1181C31.3379 36.5224 28.2284 40.2601 26.6043 44.697C24.9803 49.1334 24.9414 53.9955 26.4952 58.4574C28.0487 62.9193 31.0984 66.7059 35.1268 69.1745L34.9773 69.5482L38.7516 70.9309C43.8315 72.7384 49.4197 72.4675 54.3009 70.1771C59.1824 67.8868 62.9619 63.762 64.8184 58.6996C66.6749 53.6372 66.4582 48.0467 64.2149 43.1435C61.972 38.2403 57.8838 34.4208 52.8397 32.5153Z" fill="#2982E2"/>
<path d="M42.0406 70.7817C46.0832 70.7817 50.0353 69.5829 53.3967 67.337C56.7584 65.0907 59.3784 61.8983 60.9254 58.1632C62.4725 54.4282 62.8772 50.3183 62.0887 46.3531C61.2999 42.3878 59.3529 38.7458 56.4942 35.8871C53.6355 33.0283 49.9935 31.0814 46.0282 30.2925C42.063 29.5041 37.9531 29.9088 34.2181 31.4558C30.483 33.0029 27.2906 35.6229 25.0443 38.9846C22.7984 42.346 21.5996 46.2981 21.5996 50.3407C21.5996 55.7623 23.7532 60.9614 27.5865 64.7948C31.4199 68.6281 36.619 70.7817 42.0406 70.7817Z" fill="#4D61FC"/>
<path d="M44.0698 70.6808C48.0926 70.2795 51.9061 68.6943 55.028 66.1255C58.1498 63.5571 60.4401 60.1203 61.6087 56.25C62.7776 52.3796 62.7723 48.2499 61.5937 44.3826C60.4154 40.5153 58.1165 37.0844 54.9883 34.5235C51.8598 31.9626 48.0425 30.3871 44.0186 29.9959C39.9947 29.6046 35.945 30.4155 32.3822 32.3258C28.8191 34.2361 25.9024 37.1599 24.0011 40.7279C22.0997 44.2955 21.2993 48.3471 21.7006 52.3699C21.967 55.0411 22.757 57.6337 24.0253 59.9992C25.2937 62.365 27.0156 64.4581 29.093 66.1584C31.17 67.8587 33.5616 69.133 36.1315 69.9091C38.7013 70.6853 41.3986 70.9473 44.0698 70.6808Z" fill="white"/>
<path d="M36.7562 58.3867L30.9864 50.5131C30.8407 50.3086 30.779 50.056 30.8145 49.8075C30.85 49.5594 30.9797 49.3341 31.177 49.179L33.236 47.6618C33.4397 47.5153 33.6923 47.4529 33.9408 47.4877C34.1889 47.5228 34.4146 47.6517 34.5701 47.8487L38.2846 52.8972L50.4856 43.9772C50.6897 43.8303 50.9423 43.7679 51.1912 43.8034C51.44 43.8389 51.6654 43.9697 51.8197 44.1678L53.3369 46.2268C53.4838 46.4301 53.5458 46.6824 53.5103 46.9305C53.4748 47.1786 53.3444 47.4032 53.1463 47.5572L38.1276 58.5699C38.0279 58.6528 37.9117 58.7141 37.7868 58.75C37.6617 58.7859 37.5309 58.7956 37.4019 58.7784C37.273 58.7612 37.1493 58.7175 37.0383 58.6502C36.927 58.5826 36.8309 58.4929 36.7562 58.3867Z" fill="#2982E2"/>
</svg>