<svg width="264" height="284" viewBox="0 0 264 284" fill="none" xmlns="http://www.w3.org/2000/svg">
<g filter="url(#filter0_d_194_356)">
<path d="M225.945 7H205.355H194.899H38.2292C26.5017 7 17 16.5017 17 28.2292V257H205.355V41.4269L212.872 38.3704L225.945 7Z" fill="#2982E2"/>
<path d="M246.527 59.9402H205.348V27.5897C205.348 16.2193 214.567 7 225.937 7C237.308 7 246.527 16.2193 246.527 27.5897V59.9402Z" fill="white"/>
<path opacity="0.5" d="M246.527 59.9402H205.348V27.5897C205.348 16.2193 214.567 7 225.937 7C237.308 7 246.527 16.2193 246.527 27.5897V59.9402Z" fill="#2982E2"/>
<path d="M59.3171 45.2404C61.842 45.2404 63.9267 44.3268 65.2889 42.6574L63.1377 40.6723C62.1659 41.8102 60.945 42.3916 59.4998 42.3916C56.7922 42.3916 54.8735 40.4896 54.8735 37.7654C54.8735 35.0328 56.7922 33.1308 59.4998 33.1308C60.945 33.1308 62.1659 33.7122 63.1377 34.8252L65.2889 32.8401C63.9267 31.1873 61.8337 30.2737 59.3337 30.2737C54.832 30.2737 51.4766 33.3966 51.4766 37.7571C51.4849 42.1175 54.832 45.2404 59.3171 45.2404ZM74.2506 45.2404C78.8021 45.2404 82.1659 42.076 82.1659 37.7571C82.1659 33.4381 78.7938 30.2737 74.2506 30.2737C69.6825 30.2737 66.3354 33.4547 66.3354 37.7571C66.3354 42.0594 69.6825 45.2404 74.2506 45.2404ZM74.2506 42.3916C71.6676 42.3916 69.724 40.5062 69.724 37.7654C69.724 35.0162 71.6676 33.1308 74.2506 33.1308C76.8337 33.1308 78.7772 35.0162 78.7772 37.7654C78.7772 40.5062 76.8337 42.3916 74.2506 42.3916ZM94.6493 30.5228V39.3102L87.4566 30.5228H84.6908V44.9913H87.9965V36.2039L95.2058 44.9913H97.9549V30.5228H94.6493ZM104.375 44.9913H107.722V33.2471H112.349V30.5228H99.7407V33.2471H104.375V44.9913ZM126.967 44.9913L123.719 40.3401C125.596 39.5345 126.693 37.9398 126.693 35.772C126.693 32.5245 124.276 30.5228 120.405 30.5228H114.143V44.9913H117.49V40.963H120.405H120.571L123.362 44.9913H126.967ZM123.312 35.772C123.312 37.3418 122.282 38.2969 120.231 38.2969H117.506V33.2554H120.231C122.282 33.2554 123.312 34.1856 123.312 35.772ZM140.164 44.9913H143.678L137.207 30.5228H133.902L127.457 44.9913H130.887L132.166 41.8933H138.885L140.164 44.9913ZM133.237 39.3517L135.53 33.8119L137.822 39.3517H133.237ZM151.9 45.2404C154.425 45.2404 156.51 44.3268 157.872 42.6574L155.721 40.6723C154.749 41.8102 153.528 42.3916 152.083 42.3916C149.375 42.3916 147.448 40.4896 147.448 37.7654C147.448 35.0328 149.375 33.1308 152.083 33.1308C153.528 33.1308 154.749 33.7122 155.721 34.8252L157.872 32.8401C156.51 31.1873 154.417 30.2737 151.917 30.2737C147.407 30.2737 144.06 33.3966 144.06 37.7571C144.068 42.1175 147.415 45.2404 151.9 45.2404ZM162.996 44.9913H166.344V33.2471H170.97V30.5228H158.362V33.2471H162.996V44.9913Z" fill="white"/>
<path d="M178.128 71.7665H64.3901C62.5795 71.7665 61.1094 70.2965 61.1094 68.4858C61.1094 66.6752 62.5795 65.2051 64.3901 65.2051H178.119C179.93 65.2051 181.4 66.6752 181.4 68.4858C181.4 70.2965 179.93 71.7665 178.128 71.7665Z" fill="white"/>
<path d="M178.129 92.1904H41.8667C40.056 92.1904 38.5859 90.7203 38.5859 88.9096C38.5859 87.099 40.056 85.6289 41.8667 85.6289H178.121C179.931 85.6289 181.402 87.099 181.402 88.9096C181.402 90.7286 179.931 92.1904 178.129 92.1904Z" fill="white"/>
<path d="M178.129 112.624H41.8667C40.056 112.624 38.5859 111.154 38.5859 109.343C38.5859 107.533 40.056 106.062 41.8667 106.062H178.121C179.931 106.062 181.402 107.533 181.402 109.343C181.402 111.154 179.931 112.624 178.129 112.624Z" fill="white"/>
<path d="M178.129 133.048H41.8667C40.056 133.048 38.5859 131.578 38.5859 129.767C38.5859 127.956 40.056 126.486 41.8667 126.486H178.121C179.931 126.486 181.402 127.956 181.402 129.767C181.402 131.578 179.931 133.048 178.129 133.048Z" fill="white"/>
<path d="M178.129 153.472H41.8667C40.056 153.472 38.5859 152.002 38.5859 150.191C38.5859 148.38 40.056 146.91 41.8667 146.91H178.121C179.931 146.91 181.402 148.38 181.402 150.191C181.402 152.01 179.931 153.472 178.129 153.472Z" fill="white"/>
<path d="M178.129 173.903H41.8667C40.056 173.903 38.5859 172.433 38.5859 170.623C38.5859 168.812 40.056 167.342 41.8667 167.342H178.121C179.931 167.342 181.402 168.812 181.402 170.623C181.402 172.433 179.931 173.903 178.129 173.903Z" fill="white"/>
<path d="M178.129 194.327H41.8667C40.056 194.327 38.5859 192.857 38.5859 191.046C38.5859 189.236 40.056 187.766 41.8667 187.766H178.121C179.931 187.766 181.402 189.236 181.402 191.046C181.402 192.857 179.931 194.327 178.129 194.327Z" fill="white"/>
<path d="M108.453 214.749H41.8745C40.0639 214.749 38.5938 213.279 38.5938 211.468C38.5938 209.658 40.0639 208.188 41.8745 208.188H108.453C110.263 208.188 111.733 209.658 111.733 211.468C111.725 213.287 110.263 214.749 108.453 214.749Z" fill="white"/>
<path d="M179.947 222.205C179.947 220.378 177.63 218.941 177.09 217.296C176.533 215.585 177.546 213.06 176.517 211.64C175.47 210.203 172.754 210.394 171.317 209.348C169.897 208.31 169.241 205.66 167.53 205.104C165.885 204.572 163.801 206.308 161.973 206.308C160.146 206.308 158.07 204.564 156.417 205.104C154.706 205.66 154.058 208.31 152.63 209.348C151.193 210.394 148.477 210.203 147.43 211.64C146.392 213.06 147.405 215.585 146.857 217.296C146.326 218.941 144 220.386 144 222.205C144 224.032 146.317 225.469 146.857 227.114C147.414 228.825 146.4 231.35 147.43 232.77C148.477 234.207 151.193 234.016 152.63 235.062C154.05 236.1 154.706 238.75 156.417 239.306C158.061 239.838 160.146 238.102 161.973 238.102C163.801 238.102 165.877 239.846 167.53 239.306C169.241 238.75 169.889 236.1 171.317 235.062C172.754 234.016 175.47 234.207 176.517 232.77C177.555 231.35 176.542 228.825 177.09 227.114C177.621 225.469 179.947 224.032 179.947 222.205ZM161.973 234.107C155.404 234.107 150.071 228.783 150.071 222.205C150.071 215.635 155.395 210.303 161.973 210.303C168.551 210.303 173.875 215.627 173.875 222.205C173.867 228.783 168.543 234.107 161.973 234.107Z" fill="white"/>
<path d="M164.165 231.506C169.331 230.285 172.537 225.102 171.316 219.936C170.095 214.77 164.913 211.564 159.747 212.785C154.58 214.006 151.374 219.188 152.595 224.355C153.816 229.521 158.991 232.727 164.165 231.506Z" fill="white"/>
<path d="M165.879 224.143H157.515C156.934 224.143 156.469 223.669 156.469 223.096V221.144C156.469 220.563 156.942 220.098 157.515 220.098H165.879C166.46 220.098 166.926 220.571 166.926 221.144V223.096C166.934 223.677 166.46 224.143 165.879 224.143Z" fill="#2982E2"/>
<path d="M99.7744 238.877H42.2578V239.757H99.7744V238.877Z" fill="white"/>
<path d="M52.3808 229.592C52.007 231.029 51.6333 232.458 51.2595 233.895C51.1183 234.434 51.6665 234.75 52.1233 234.559C53.5436 233.961 54.9389 233.305 56.3011 232.591C57.306 232.067 58.4605 231.577 59.208 230.689C60.2047 229.493 60.2961 227.823 59.6233 226.444C58.9422 225.049 57.5137 224.052 55.9356 224.16C54.2246 224.277 52.605 225.589 51.5585 226.851C49.9057 228.845 49.208 231.345 48.9671 233.878C48.9339 234.218 49.2662 234.426 49.5569 234.468C54.4655 235.091 59.2745 236.395 63.826 238.338C64.2662 238.521 64.8475 238.213 64.6897 237.674C64.2661 236.228 63.7429 234.601 64.2661 233.114C64.698 231.901 66.0353 230.738 67.2894 231.669C68.4854 232.566 67.4389 233.596 67.1399 234.65C66.9406 235.356 67.0984 236.104 67.8542 236.37C68.8259 236.71 70.2961 236.046 71.2014 235.722C72.3891 235.307 73.5519 234.816 74.7562 234.451C75.4123 234.252 76.0934 234.086 76.7828 234.027C77.3226 233.978 78.0203 234.185 78.527 234.044C79.4074 233.787 79.8725 232.167 79.997 231.395C80.1133 230.664 79.0917 230.34 78.8675 231.087C78.1034 233.637 80.1632 235.996 82.5718 236.544C85.9937 237.316 89.1665 235.348 92.5137 235.082C93.2612 235.024 93.2695 233.853 92.5137 233.911C89.8558 234.119 87.414 235.356 84.7645 235.531C82.4721 235.68 79.1332 234.268 79.9887 231.395C79.615 231.295 79.2329 231.187 78.8592 231.087C78.7678 231.685 78.5685 232.723 77.8874 232.848C77.2894 232.956 76.6166 232.856 75.9937 232.964C74.7146 233.172 73.4937 233.637 72.2811 234.086C71.6084 234.335 70.9439 234.592 70.2628 234.808C69.9057 234.924 69.5319 235.049 69.1665 235.124C68.7761 235.207 68.1947 235.547 68.2695 234.966C68.3941 233.928 69.2911 233.305 68.9921 232.15C68.4605 230.132 65.9522 229.642 64.4489 230.863C62.2479 232.64 62.8708 235.647 63.5602 237.989C63.8509 237.765 64.1333 237.549 64.4239 237.325C59.6648 235.298 54.6981 233.953 49.5652 233.297C49.7645 233.496 49.9555 233.687 50.1549 233.886C50.3708 231.569 51.0353 229.194 52.63 227.424C53.7263 226.204 55.5951 224.733 57.2977 225.597C58.6765 226.295 59.3741 228.205 58.5934 229.576C58.012 230.589 56.7163 231.071 55.7363 231.586C54.3741 232.3 52.9788 232.956 51.5585 233.554C51.8492 233.778 52.1316 233.994 52.4223 234.218C52.7961 232.782 53.1698 231.353 53.5436 229.916C53.6931 229.177 52.5718 228.861 52.3808 229.592Z" fill="white"/>
</g>
<defs>
<filter id="filter0_d_194_356" x="0" y="0" width="263.527" height="284" filterUnits="userSpaceOnUse" color-interpolation-filters="sRGB">
<feFlood flood-opacity="0" result="BackgroundImageFix"/>
<feColorMatrix in="SourceAlpha" type="matrix" values="0 0 0 0 0 0 0 0 0 0 0 0 0 0 0 0 0 0 127 0" result="hardAlpha"/>
<feOffset dy="10"/>
<feGaussianBlur stdDeviation="8.5"/>
<feComposite in2="hardAlpha" operator="out"/>
<feColorMatrix type="matrix" values="0 0 0 0 0 0 0 0 0 0 0 0 0 0 0 0 0 0 0.04 0"/>
<feBlend mode="normal" in2="BackgroundImageFix" result="effect1_dropShadow_194_356"/>
<feBlend mode="normal" in="SourceGraphic" in2="effect1_dropShadow_194_356" result="shape"/>
</filter>
</defs>
</svg>