<svg width="206" height="250" viewBox="0 0 206 250" fill="none" xmlns="http://www.w3.org/2000/svg">
<path d="M204.334 86.3607C204.334 85.2747 204.112 84.1887 203.939 83.1027C203.766 82.0167 203.618 80.832 203.445 79.7213C203.618 80.832 203.791 81.9673 203.939 83.1027C204.087 84.238 204.334 85.2747 204.334 86.3607Z" fill="#1A2E35"/>
<path d="M195.783 99.4179C195.036 97.2212 194.435 94.9776 193.984 92.7044C193.885 92.0849 193.654 91.495 193.304 90.9743C192.954 90.4559 192.498 90.0166 191.964 89.6933C191.153 89.4613 190.33 89.2786 189.5 89.1502C186.642 88.2864 185.853 84.214 183.143 83.1033C182.261 82.7899 181.339 82.5997 180.408 82.5356C176.727 82.348 173.265 80.7363 170.749 78.0435C170.089 77.0686 169.338 76.1579 168.507 75.3286C168.074 74.9164 167.517 74.6622 166.923 74.6055C166.329 74.5462 165.733 74.6893 165.23 75.0077L167.497 79.5492C168.069 80.9536 168.904 82.2345 169.961 83.3254C170.515 83.8659 171.213 84.2387 171.972 84.4016C172.73 84.562 173.519 84.5052 174.248 84.2386C174.692 84.0412 175.16 83.6711 175.677 83.7451C176.049 83.8191 176.384 84.0314 176.614 84.3374C177.469 85.5222 177.88 86.971 177.772 88.4321C177.663 89.8908 177.045 91.2631 176.022 92.3096C173.906 94.368 171.329 95.8909 168.507 96.7522C167.556 97.2113 166.504 97.4162 165.452 97.3446C163.555 96.999 162.545 94.8765 161.978 93.0994C160.746 89.0516 160.155 84.6336 157.617 81.2028C156.7 80.2007 155.919 79.0802 155.301 77.8708C154.783 76.5134 154.907 74.909 154.069 73.6996C153.231 72.4902 151.383 71.725 151.26 70.1947C151.28 69.6493 151.462 69.126 151.782 68.6842C152.103 68.2449 152.546 67.9117 153.059 67.7266C154.044 67.2576 155.128 67.1096 156.138 66.7147C156.557 66.5419 157.001 66.2458 157.001 65.8262C157.001 65.4066 156.114 64.9375 155.892 64.3452C155.67 63.7528 156.336 63.0371 156.631 62.3954C157.247 60.9145 155.695 59.4088 154.167 58.7918C152.64 58.1748 150.841 57.7552 150.151 56.3236C149.888 55.6251 149.722 54.8945 149.658 54.1516C149.52 53.2113 149.104 52.3352 148.461 51.6342C147.82 50.9332 146.983 50.4445 146.061 50.2273C145.603 50.1483 145.132 50.1754 144.684 50.3013C144.238 50.4296 143.824 50.6543 143.477 50.9628C143.127 51.2688 142.851 51.6515 142.666 52.0784C142.483 52.5054 142.397 52.9694 142.415 53.4359C142.75 54.401 143.205 55.3216 143.77 56.1755C144.213 57.1134 144.09 58.5203 143.104 58.8165C141.503 59.3101 139.951 56.3483 138.595 57.3849C139.138 59.2607 139.68 61.1366 140.246 63.0124C138.127 64.0737 135.589 62.1486 134.702 59.9519C133.815 57.7552 133.766 55.287 132.682 53.2137C131.598 51.1404 128.715 49.5363 126.867 51.0172C126.867 53.7075 130.391 54.8181 131.968 56.9901C132.261 57.3727 132.478 57.812 132.601 58.281C132.724 58.7499 132.754 59.2385 132.687 59.7174C132.62 60.1987 132.46 60.6603 132.214 61.0774C131.968 61.4945 131.64 61.8574 131.253 62.1486C129.578 63.1359 126.892 61.4082 127.533 59.6805C127.779 59.0387 128.296 58.5204 128.37 57.8293C128.444 57.1382 127.705 56.299 127.04 55.756L123.96 53.2878C123.329 52.6881 122.583 52.2265 121.767 51.9304C120.678 51.7946 119.574 52.0094 118.613 52.54C117.652 53.0732 116.884 53.8951 116.42 54.8922C115.565 56.8964 114.466 58.7869 113.143 60.5195C112.005 61.6376 110.475 62.2646 108.881 62.2646C107.287 62.2646 105.754 61.6376 104.618 60.5195C104.126 59.9148 103.783 59.2015 103.618 58.4388C103.455 57.6786 103.472 56.8865 103.672 56.1337C103.872 55.3809 104.246 54.6848 104.766 54.1048C105.286 53.5223 105.936 53.0731 106.663 52.7942C107.846 52.4733 109.3 52.5227 109.916 51.4861C111 49.6844 107.92 47.3889 108.979 45.5625C109.792 44.1556 111.936 44.7973 113.513 44.3284C115.09 43.8594 115.977 42.3045 116.839 40.9717C117.702 39.6389 119.18 38.3308 120.757 38.6763C120.538 37.7582 120.599 36.7956 120.929 35.912C121.018 35.6948 121.151 35.4997 121.321 35.3368C121.491 35.1739 121.691 35.0481 121.91 34.9667C122.129 34.8852 122.363 34.8506 122.597 34.8654C122.831 34.8778 123.061 34.9419 123.27 35.048C122.984 35.7416 122.984 36.5215 123.27 37.2151C123.556 37.9086 124.105 38.459 124.798 38.7503C126.229 39.2538 127.767 39.3649 129.257 39.0712C130.76 38.8737 132.633 38.3308 132.756 36.8499C132.692 36.3661 132.692 35.8749 132.756 35.3936C133.421 33.6165 136.723 36.06 138.004 34.6285C138.719 33.888 138.004 32.5552 136.895 32.3331C135.858 32.2344 134.813 32.2837 133.791 32.4812C132.731 32.4812 131.475 31.9629 131.327 30.9509C131.179 29.939 132.436 29.1985 132.559 28.1866C132.756 26.4836 129.849 26.0639 128.814 27.446C128.427 28.2038 128.2 29.0307 128.141 29.8773C128.08 30.7263 128.193 31.5777 128.469 32.3824C128.762 33.2043 128.846 34.0879 128.708 34.9518C128.57 35.8132 128.215 36.6276 127.68 37.3187C127.138 38.1332 125.759 37.7137 125.216 36.8499C124.867 35.9465 124.716 34.9765 124.773 34.0114C124.785 33.5227 124.655 33.0439 124.396 32.6293C124.137 32.2171 123.763 31.8913 123.319 31.6914C122.627 31.6395 121.932 31.7234 121.274 31.9381C118.613 32.2343 116.765 28.8283 117.603 26.3108C118.722 23.8574 120.717 21.91 123.196 20.8561C123.977 20.2637 124.891 19.8762 125.86 19.7256C126.825 19.5751 127.816 19.6665 128.74 19.9923C129.528 20.4365 130.095 21.2016 130.859 21.6459C132.317 22.2012 133.892 22.3864 135.442 22.189C137.876 22.2211 140.224 23.0923 142.094 24.6571C142.784 25.2742 143.425 26.3108 142.883 27.1253C142.341 27.9398 140.641 28.0878 140.936 29.001C141.385 29.1244 141.855 29.1516 142.316 29.0825C142.777 29.0134 143.218 28.8455 143.61 28.5962C144.001 28.3444 144.336 28.0138 144.595 27.6238C144.851 27.2338 145.024 26.7945 145.1 26.3355C145.539 26.5379 145.916 26.8512 146.197 27.2461C146.478 27.6386 146.652 28.1001 146.702 28.5814C147.204 28.0903 147.806 27.7127 148.466 27.4733C149.126 27.2363 149.831 27.1401 150.531 27.1969C151.23 27.2536 151.91 27.4584 152.524 27.799C153.14 28.1396 153.675 28.6086 154.093 29.1738C154.428 29.8229 154.879 30.4104 155.424 30.9015C156.04 31.2964 157.124 31.0989 157.198 30.3832C157.245 30.1635 157.245 29.9365 157.198 29.7168C156.828 28.6802 156.434 27.6683 156.065 26.6563C157.494 25.8912 159.194 27.0759 160.155 28.3594C163.727 33.0983 166.29 30.2598 171.341 31.0249C174.766 31.5432 176.269 33.7153 178.19 36.3315C184.104 44.4024 191.914 51.0171 197.286 59.4583C197.852 60.3468 198.37 61.2354 198.863 62.1486C198.863 61.9265 198.715 61.7043 198.616 61.4822C196.517 55.9954 193.9 50.7234 190.806 45.7352C190.14 44.6739 189.475 43.6125 188.785 42.5759L187.455 40.6755C186.888 39.861 186.297 39.0712 185.705 38.2074L184.252 36.3315C183.931 35.9119 183.562 35.4923 183.217 35.0727C182.872 34.6531 182.453 34.1101 182.034 33.6412L180.728 32.1603L180.334 31.7161L178.93 30.1858L178.782 30.0377L178.388 29.618C178.018 29.1984 177.599 28.8035 177.205 28.3839C176.811 27.9644 175.874 27.0512 175.184 26.4094C174.495 25.7677 174.026 25.3235 173.435 24.7805L171.858 23.3983L170.281 22.0409C169.641 21.4979 168.975 20.9795 168.286 20.4365C166.438 18.9803 164.516 17.5734 162.545 16.2653L161.091 15.3027C160.598 14.9571 160.105 14.6609 159.613 14.3648C159.12 14.0686 158.627 13.723 158.11 13.4515C157.592 13.1801 157.099 12.8345 156.607 12.563C156.114 12.2915 155.794 12.0693 155.375 11.8719C155.17 11.7361 154.956 11.6202 154.734 11.5265C153.872 11.0328 152.985 10.5639 152.098 10.1196L150.743 9.45313C150.176 9.15695 149.584 8.88541 149.018 8.63859H148.747L147.17 7.92288L144.928 6.98496L142.341 5.97308C141.38 5.60285 140.394 5.2572 139.433 4.93634C138.472 4.61548 137.437 4.27005 136.452 3.97387L133.446 3.13462C131.45 2.59163 129.43 2.12266 127.409 1.72775H127.286L124.946 1.3082H124.798L123.763 1.13541C122.309 0.888595 120.831 0.691141 119.352 0.51837H118.81L117.504 0.370286L114.548 0.148084L111.443 0C110.359 0 109.25 0 108.166 0C105.284 0 102.45 0.123469 99.6165 0.370286L97.6454 0.543075L95.5756 0.789832L93.5061 1.086L91.461 1.40687L89.7117 1.72775C88.258 1.99925 86.8288 2.3201 85.4244 2.64096C84.7591 2.78905 84.1185 2.96187 83.4533 3.15933C82.788 3.35678 82.1228 3.50493 81.4822 3.6777C80.3981 3.97388 79.3386 4.31931 78.2791 4.64017L75.8152 5.50412C74.9282 5.8003 74.0905 6.12117 73.2281 6.44203L70.7642 7.37995C69.8033 7.77486 68.867 8.219 67.9307 8.63859C66.9944 9.05818 66.3538 9.35439 65.59 9.7493L63.126 10.9834C62.3376 11.403 61.5491 11.8226 60.7853 12.2669C60.0215 12.7111 59.2084 13.1554 58.3214 13.649C57.5822 14.0686 56.8677 14.5128 56.1531 14.9818L55.3402 15.5002L53.0733 17.0057C52.1616 17.6228 51.2747 18.2892 50.3877 18.931L48.0963 20.708C43.7647 24.1239 39.7337 27.9052 36.0477 32.0122C34.7419 33.4438 33.5838 34.9 32.3272 36.3809C31.0706 37.8618 30.3315 38.849 29.3952 40.2805C28.4589 41.7121 27.7444 42.7487 26.9313 43.8347C27.7197 42.6154 28.5402 41.4307 29.3952 40.2805H30.1343C31.519 40.3126 32.8964 40.0856 34.1998 39.6142C35.2642 38.933 36.2694 38.1653 37.2057 37.3187C39.8667 35.4429 44.2525 35.0974 44.9671 31.9381C45.004 30.8521 45.1199 29.7711 45.3121 28.7048C46.0759 26.8043 48.6137 26.5328 50.6833 26.5575C51.5457 26.5575 52.5805 26.5575 52.9748 27.446C53.1004 27.72 53.1646 28.0187 53.1646 28.3223C53.1646 28.6234 53.1004 28.922 52.9748 29.1985C51.6837 32.7749 49.2051 35.8009 45.9527 37.7631C43.2917 39.3674 39.8175 40.6015 39.0783 43.6127C39.4479 44.6246 41.2958 44.5505 41.5422 45.6119C41.7886 46.6732 40.532 46.9199 40.1378 47.6603C39.5711 48.771 40.9016 50.1285 42.1582 50.1285C43.4222 49.9014 44.5753 49.2597 45.4352 48.3021C48.4609 45.9869 50.7892 42.8772 52.1616 39.3181C52.3119 37.7434 52.9403 36.255 53.9604 35.048C54.3398 34.7864 54.7759 34.6136 55.2317 34.547C55.6876 34.4803 56.1532 34.5175 56.5942 34.6582C57.0328 34.7988 57.4344 35.0382 57.7695 35.3591C58.1021 35.6775 58.3584 36.0699 58.5186 36.5043C59.7259 35.8379 61.5985 35.3443 62.2391 36.5043C62.3697 36.9708 62.4534 37.4495 62.4854 37.9357C62.8796 39.8609 65.5654 40.7496 65.8364 42.6994C66.1075 44.6493 63.2493 46.1301 60.9086 46.5004C58.5679 46.8706 56.7692 47.1174 54.6995 47.463C53.8298 47.5543 52.9896 47.8331 52.2356 48.2774C51.8315 48.5267 51.5335 48.9142 51.393 49.3683C51.2526 49.8225 51.2796 50.3087 51.4718 50.7455C51.7798 51.1479 52.1346 51.5131 52.5313 51.8315C52.8959 52.2808 53.1325 52.8214 53.2187 53.3964C53.3049 53.9691 53.236 54.5565 53.0191 55.0945C52.8048 55.6326 52.4474 56.1039 51.9891 56.4594C51.5309 56.8148 50.9864 57.0394 50.4124 57.1135C49.5993 57.1135 48.7862 56.842 47.9485 56.8173C46.7313 56.9358 45.5708 57.39 44.5926 58.1255C43.6144 58.861 42.858 59.8507 42.4047 60.9885C41.5127 63.2691 40.1428 65.33 38.3885 67.0355C35.2347 69.3803 29.8141 68.8373 28.2619 72.4408C27.8405 73.9662 27.8405 75.5779 28.2619 77.1057C28.6659 78.6434 28.4638 80.2797 27.6951 81.6718C26.7834 82.9552 24.4181 83.2267 23.7529 81.7952C23.5558 81.1337 23.5558 80.4302 23.7529 79.7712C24.1225 77.5252 24.4674 75.2792 24.837 73.0332C25.3027 71.382 25.1154 69.6148 24.3195 68.0968C23.4966 67.2404 22.3756 66.7418 21.1929 66.7047C20.0102 66.6677 18.8595 67.0972 17.9873 67.8993C16.3389 69.6049 15.277 71.7917 14.9567 74.1439C14.6068 76.2122 14.0204 78.2312 13.2073 80.1662C12.887 82.0667 12.6159 83.9672 12.4188 85.8924C12.2217 87.8176 12.0739 89.8414 12 91.8406C12.2809 91.6135 12.5445 91.3668 12.7885 91.1002C13.7494 90.1129 15.6959 85.9417 17.4453 87.9903C17.6572 88.2593 17.7754 88.595 17.7754 88.9405C17.7754 89.2836 17.6572 89.6193 17.4453 89.8908C16.9032 90.5819 15.8437 90.7299 15.4249 91.4703C15.006 92.2108 15.6219 93.4449 16.4597 93.9385C17.3738 94.3976 18.2066 95.0048 18.9236 95.7404C20.0323 97.32 18.9236 99.7387 20.057 101.368C21.1904 102.997 22.9891 102.849 24.6892 103.046H25.2558C25.3864 101.279 26.1182 99.6128 27.328 98.322C28.5402 97.0336 30.1566 96.1994 31.9084 95.9624C38.2653 94.5309 46.6918 99.7387 50.1659 104.478C54.1328 109.784 56.0301 117.287 62.1159 119.928C66.477 121.829 72.686 121.138 74.8296 125.383C76.7268 129.184 73.4006 133.454 72.9078 137.724C72.9103 140.515 73.1812 143.302 73.7208 146.042C73.9573 147.424 73.7775 148.848 73.2083 150.131C72.6367 151.412 71.7004 152.498 70.5178 153.249C69.1133 153.89 67.3146 153.816 66.1566 154.878C64.1362 156.778 65.787 160.727 63.6927 162.652C62.9338 163.205 62.1059 163.654 61.2288 163.985C56.6459 166.281 56.7691 172.969 58.7649 177.585L58.9867 178.078C73.3168 186.552 89.5711 191.226 106.207 191.658C122.844 192.09 139.317 188.265 154.069 180.547C157.011 178.979 159.871 177.266 162.643 175.413C169.843 170.637 176.36 164.898 182.01 158.358C183.636 156.507 185.163 154.557 186.642 152.582C187.381 151.57 188.12 150.558 188.81 149.522C190.921 146.444 192.856 143.245 194.6 139.945C197.123 135.145 199.217 130.132 200.858 124.963C202.568 119.669 203.805 114.234 204.554 108.723C204.85 106.551 205.072 104.379 205.219 102.182C204.192 103.236 202.795 103.846 201.327 103.885C200.058 103.794 198.845 103.32 197.855 102.52C196.864 101.723 196.14 100.64 195.783 99.4179Z" fill="#2982E2"/>
<path d="M84.9312 25.0758C83.2114 26.4802 81.7231 28.1462 80.5207 30.0121C79.0424 31.6658 76.3815 32.8504 74.6321 31.4682C74.2379 31.1104 73.92 30.676 73.6958 30.1923C73.4716 29.711 73.3459 29.1876 73.3262 28.6545C73.2005 27.1094 73.5626 25.5644 74.361 24.2365C75.1987 22.9037 76.48 21.7684 77.1945 20.4356C77.5986 19.7568 77.7316 18.9497 77.5666 18.1771C77.4039 17.4021 76.9531 16.721 76.3075 16.2644C75.5191 15.9188 74.5335 16.0422 73.8436 15.5485C72.587 14.6353 73.474 12.4881 74.9278 11.9451C76.4455 11.6242 78.015 11.6242 79.5352 11.9451C85.153 12.2906 89.2676 8.66243 93.4809 5.62658C96.7825 3.15841 103.755 0.492702 107.55 2.91151C107.929 3.12624 108.257 3.4249 108.506 3.78525C108.755 4.1456 108.917 4.55788 108.984 4.98981C109.05 5.42174 109.018 5.86597 108.89 6.28309C108.76 6.70268 108.538 7.0852 108.24 7.40359C107.599 7.89723 106.712 7.99601 106.121 8.539C105.529 9.082 105.308 10.242 104.889 11.0072C103.829 13.2532 100.774 14.0677 99.7885 16.3631C99.1971 17.7206 99.4682 19.4482 98.5565 20.6329C97.7065 21.4894 96.5953 22.0349 95.4028 22.1879L88.0111 23.9156C86.9294 24.1452 85.8921 24.5352 84.9312 25.0758Z" fill="white"/>
<path d="M150.347 143.13C147.883 146.758 147.489 151.275 146.799 155.471C146.109 159.667 144.976 164.356 141.65 167.17C138.323 169.984 132.188 169.836 130.34 165.887C129.355 163.739 129.872 161.222 129.33 158.926C128.616 155.915 126.201 153.62 125.068 150.757C124.269 148.247 123.91 145.616 124.008 142.982C123.589 128.667 120.041 113.685 110.21 103.195C109.082 101.808 107.589 100.764 105.898 100.184C104.871 99.9347 103.797 99.9816 102.796 100.322C101.796 100.663 100.916 101.282 100.256 102.109C99.6278 103.257 98.9034 104.345 98.0878 105.367C95.9689 107.268 92.2977 105.886 90.8933 103.442C89.7451 100.838 89.41 97.9478 89.9323 95.1489C90.228 91.6688 90.4989 88.1887 90.7946 84.6839C90.7601 82.8401 91.3121 81.0335 92.3715 79.5255C94.0963 77.5509 97.2993 77.4521 99.2705 75.8972C102.03 73.8486 102.4 69.9489 104.198 66.9871C105.997 64.0253 111.393 62.8158 112.206 66.1232C117.947 53.7823 130.685 72.0469 138.249 70.6894C140.363 69.9761 142.574 69.5935 144.804 69.554C148.697 70.097 150.717 74.4903 152.047 78.0445L158.651 96.3583C158.919 97.5677 159.439 98.7106 160.173 99.7077C160.905 100.707 161.839 101.542 162.913 102.159C164.687 102.85 166.757 102.331 168.555 102.973C173.311 104.676 171.759 112.081 167.939 115.314C164.12 118.547 158.749 120.645 156.951 125.335C155.571 128.839 156.679 132.961 155.201 136.441C153.799 138.821 152.173 141.059 150.347 143.13Z" fill="white"/>
<path d="M168.356 147.102C166.804 147.325 164.956 146.559 163.773 147.596C163.182 148.299 162.797 149.156 162.664 150.064C162.317 151.298 161.526 152.362 160.447 153.051C159.91 153.396 159.286 153.581 158.648 153.581C158.01 153.581 157.387 153.396 156.849 153.051C156.354 152.661 156.026 152.095 155.935 151.471C155.844 150.847 155.994 150.212 156.357 149.694C156.778 149.306 157.221 148.944 157.687 148.608C159.757 146.658 158.352 143.079 159.929 140.759C160.841 139.402 162.393 138.019 163.329 136.637C164.266 135.255 164.389 134.737 165.793 134.465C172.15 133.157 175.008 146.189 168.356 147.102Z" fill="white"/>
<path d="M23.9014 121.114C23.9531 118.337 24.1749 115.568 24.5667 112.821C24.5667 110.92 24.5667 108.896 24.5667 106.971C22.9036 106.904 21.2552 106.672 19.6389 106.28C19.2915 106.245 18.9663 106.087 18.7273 105.836C18.5745 105.52 18.5079 105.172 18.5301 104.824C18.5301 102.652 16.3127 101.245 14.4401 100.159C13.4915 99.569 12.4837 99.0827 11.434 98.7026C11.4217 98.9248 11.4217 99.147 11.434 99.3691C11.8135 109.782 13.893 120.062 17.5938 129.802C19.2372 134.136 21.2158 138.336 23.5072 142.365C24.4435 144.117 25.503 145.82 26.5871 147.523C27.6712 149.226 29.3467 151.62 30.8496 153.595C32.3526 155.569 33.7571 157.297 35.334 159.074C37.4973 161.508 39.7837 163.833 42.1835 166.034C44.3271 168.009 46.5447 169.885 48.8608 171.662C43.5634 157.618 38.5862 143.253 29.5437 131.307C27.0798 128.148 24.4681 124.964 23.9014 121.114Z" fill="white"/>
<path d="M11.3086 94.135C11.3086 94.7027 11.3086 95.2951 11.3086 95.8628C11.2839 95.2951 11.2839 94.7027 11.3086 94.135Z" fill="#1A2E35"/>
<g opacity="0.6">
<path opacity="0.6" d="M54.1768 175.534L56.6407 177.114L58.3899 178.175L56.6407 177.114L54.1768 175.534Z" fill="#1A2E35"/>
</g>
<g opacity="0.6">
<path opacity="0.6" d="M11.2803 97.2709C11.2803 97.7398 11.2803 98.2086 11.2803 98.6776C11.305 98.2086 11.305 97.7398 11.2803 97.2709Z" fill="#1A2E35"/>
</g>
<path d="M24.5937 103.22H24.0271C22.327 103.022 20.3312 102.948 19.3949 101.542C18.4586 100.135 19.3949 97.4937 18.2615 95.9141C17.5445 95.1811 16.7117 94.5715 15.7976 94.1124C14.9598 93.5447 14.27 92.4587 14.7628 91.6442C15.2555 90.8297 16.2411 90.7556 16.7832 90.0646C16.9975 89.7955 17.1133 89.4598 17.1133 89.1143C17.1133 88.7687 16.9975 88.4357 16.7832 88.1642C15.0338 86.1156 13.0873 90.2867 12.1264 91.2739C11.8824 91.5405 11.6188 91.7899 11.3379 92.0145C11.3379 92.212 11.3379 92.36 11.3379 92.5574C11.3379 92.7549 11.3379 93.7175 11.3379 94.2852C11.3379 94.8529 11.3379 95.4453 11.3379 96.0129V97.4198C11.3379 97.8888 11.3379 98.3576 11.3379 98.8265C12.3875 99.2066 13.3953 99.6954 14.3439 100.283C16.2165 101.369 18.3108 102.751 18.434 104.948C18.4118 105.296 18.4783 105.646 18.6311 105.96C18.8726 106.214 19.1953 106.369 19.5427 106.404C21.1591 106.796 22.8099 107.028 24.4706 107.095" fill="white"/>
<path d="M24.4671 106.945C24.4671 108.871 24.6149 110.895 24.4671 112.795C24.0753 115.542 23.8535 118.311 23.8018 121.088C24.2453 124.963 26.9802 128.147 29.3455 131.282C38.3881 143.228 43.3652 157.592 48.6626 171.636C49.6482 172.401 50.6583 173.142 51.6685 173.857L54.1324 175.536L56.5963 177.115L58.3458 178.177L58.1239 177.683C56.005 173.068 55.8818 166.379 60.5878 164.083C61.4675 163.753 62.2953 163.304 63.0518 162.751C65.0722 160.826 63.4213 156.876 65.5157 154.976C66.6737 153.915 68.4724 153.989 69.8768 153.347C71.062 152.597 71.9983 151.511 72.5699 150.227C73.1391 148.946 73.3164 147.522 73.0799 146.14C72.5427 143.398 72.2718 140.614 72.2693 137.822C72.7621 133.626 76.0859 129.356 74.1887 125.481C72.0451 121.236 65.8385 121.927 61.4774 120.027C55.3915 117.386 53.4918 109.883 49.5249 104.576C45.9523 99.8371 37.6243 94.7033 31.2675 96.0608C29.5181 96.2977 27.9017 97.1321 26.6894 98.4205C25.4797 99.7113 24.7479 101.377 24.6149 103.144" fill="white"/>
<path d="M17.3414 67.9229C18.2161 67.1207 19.3667 66.6937 20.5494 66.7307C21.7321 66.7677 22.8531 67.2664 23.6761 68.1204C24.4719 69.6383 24.6592 71.4055 24.1935 73.0567C23.824 75.3027 23.479 77.5487 23.1094 79.7948C22.9098 80.4562 22.9098 81.1597 23.1094 81.8187C23.7747 83.2502 26.1376 82.9788 27.0492 81.6953C27.8204 80.3033 28.0225 78.6668 27.6184 77.1291C27.1971 75.6038 27.1971 73.992 27.6184 72.4642C29.1707 68.8607 34.5912 69.4037 37.745 67.0589C39.4993 65.3559 40.8693 63.2926 41.7612 61.012C42.2146 59.8767 42.971 58.8844 43.9492 58.1489C44.9273 57.4134 46.0878 56.9618 47.305 56.8408C48.1427 56.8408 48.9558 57.1617 49.7689 57.137C50.343 57.0654 50.8874 56.8383 51.3457 56.4853C51.804 56.1299 52.1613 55.6585 52.3757 55.1205C52.5925 54.5824 52.6615 53.9949 52.5752 53.4198C52.489 52.8472 52.25 52.3068 51.8878 51.8551C51.4911 51.5367 51.1363 51.1739 50.8284 50.7691C50.6362 50.3347 50.6091 49.846 50.7496 49.3919C50.89 48.9402 51.1881 48.5527 51.5922 48.3009C52.3461 47.8566 53.1838 47.5802 54.0561 47.4864C56.1258 47.1408 58.1955 46.8448 60.2652 46.5239C62.3348 46.203 65.464 44.9935 65.193 42.7228C64.9219 40.4521 62.2338 39.8844 61.8395 37.9593C61.8075 37.4755 61.7262 36.9942 61.5956 36.5277C60.955 35.2936 59.1317 35.7872 57.8751 36.5277C57.7149 36.0933 57.4587 35.7034 57.126 35.3825C56.7909 35.0641 56.3893 34.8246 55.9508 34.684C55.5097 34.5433 55.0441 34.5038 54.5883 34.5729C54.1325 34.6396 53.6964 34.8099 53.3169 35.0716C52.2969 36.2785 51.6685 37.7692 51.5158 39.3414C50.1458 42.9005 47.8174 46.0105 44.7918 48.3256C43.9319 49.2833 42.7788 49.9274 41.5123 50.152C40.2557 50.152 39.0484 48.8439 39.4919 47.6839C39.8861 46.9434 40.9949 46.4991 40.8963 45.6352C40.7978 44.7714 38.8759 44.648 38.4324 43.636C39.1716 40.6249 42.6482 39.3908 45.3092 37.7865C48.5616 35.8243 51.0402 32.8009 52.3313 29.222C52.457 28.948 52.5211 28.6493 52.5211 28.3457C52.5211 28.0446 52.457 27.746 52.3313 27.4696C51.9371 26.7044 50.9023 26.5811 50.0399 26.5811C47.9702 26.5811 45.4324 26.8279 44.6686 28.7283C44.4764 29.7971 44.3606 30.8781 44.3236 31.9616C43.6091 35.1209 39.2209 35.4664 36.5598 37.3422C35.626 38.1913 34.6208 38.9589 33.5564 39.6376C32.253 40.1115 30.8732 40.3362 29.4884 40.3041H28.7517C27.914 41.474 27.091 42.6587 26.2878 43.8582C25.4994 45.043 24.7602 46.3264 24.0211 47.5111C20.5691 53.3779 17.7603 59.6027 15.6413 66.0718C14.8775 68.3178 14.2122 70.6378 13.6456 72.9826C13.0789 75.3274 12.5886 77.6968 12.1943 80.0909C13.0074 78.1584 13.5938 76.1369 13.9412 74.0686C14.3847 71.7066 15.5773 69.5519 17.3414 67.9229Z" fill="white"/>
<g opacity="0.6">
<path opacity="0.6" d="M204.798 94.5547C204.798 93.1725 204.798 91.7904 204.675 90.4329C204.675 91.7904 204.798 93.1725 204.798 94.5547C204.798 94.9742 204.798 95.4186 204.798 95.8629C204.798 97.9855 204.798 100.083 204.601 102.181C204.601 100.083 204.798 97.9855 204.798 95.8629C204.823 95.4186 204.823 94.9742 204.798 94.5547Z" fill="#1A2E35"/>
</g>
<g opacity="0.6">
<path opacity="0.6" d="M198.739 62.3695C199.207 63.5789 199.651 64.8376 200.045 66.0223C199.651 64.8129 199.207 63.5542 198.739 62.3695Z" fill="#1A2E35"/>
</g>
<path d="M204.801 94.5563C204.801 93.1741 204.801 91.792 204.678 90.4345C204.555 89.077 204.506 87.7194 204.358 86.3619C204.21 85.0044 204.136 84.1899 203.964 83.1039C203.791 82.0179 203.643 80.8332 203.471 79.7225C202.892 76.393 202.133 73.098 201.204 69.8499C200.834 68.6158 200.465 67.3817 200.046 66.1229C199.627 64.8641 199.208 63.6548 198.74 62.4701C198.247 61.5568 197.73 60.6684 197.163 59.7798C191.792 51.3387 183.981 44.724 178.068 36.6531C176.146 34.0369 174.643 31.8648 171.218 31.3465C166.29 30.5814 163.605 33.4197 160.032 28.6808C159.071 27.3974 157.371 26.2127 155.942 26.9778C156.312 27.9897 156.706 29.0017 157.075 30.0383C157.122 30.258 157.122 30.4851 157.075 30.7047C157.075 31.4205 155.917 31.618 155.301 31.2231C154.759 30.7295 154.308 30.1445 153.971 29.4954C153.552 28.9302 153.017 28.4612 152.404 28.1206C151.79 27.78 151.11 27.5751 150.411 27.5183C149.711 27.4615 149.006 27.5578 148.346 27.7947C147.685 28.0341 147.084 28.4119 146.579 28.903C146.53 28.4217 146.357 27.9602 146.076 27.5677C145.796 27.1728 145.416 26.8593 144.978 26.6569C144.901 27.116 144.729 27.5554 144.472 27.9454C144.216 28.3354 143.881 28.666 143.489 28.9178C143.095 29.1671 142.654 29.335 142.193 29.4041C141.733 29.4732 141.264 29.446 140.814 29.3226C140.518 28.4094 142.193 28.2366 142.76 27.4467C143.327 26.6569 142.76 25.6697 141.972 24.9786C140.104 23.4138 137.756 22.5425 135.319 22.5104C133.772 22.7079 132.197 22.5228 130.736 21.9675C129.972 21.5232 129.406 20.758 128.617 20.3137C127.696 19.9879 126.705 19.8967 125.737 20.0472C124.771 20.1978 123.857 20.5853 123.073 21.1777C120.595 22.2316 118.601 24.1764 117.48 26.6322C116.643 29.1004 118.491 32.5559 121.152 32.2597C121.812 32.045 122.507 31.9611 123.197 32.0129C123.643 32.2129 124.017 32.5387 124.276 32.9509C124.534 33.3655 124.665 33.8443 124.65 34.333C124.596 35.2981 124.746 36.2655 125.094 37.1713C125.562 38.0352 126.942 38.4548 127.558 37.6403C128.095 36.9492 128.447 36.1348 128.585 35.2734C128.723 34.4095 128.642 33.5259 128.346 32.704C128.07 31.8993 127.959 31.0478 128.019 30.1987C128.078 29.3521 128.307 28.5253 128.691 27.7676C129.726 26.3854 132.633 26.805 132.436 28.508C132.436 29.52 131.155 30.2357 131.204 31.2724C131.254 32.309 132.51 32.852 133.668 32.8026C134.691 32.6052 135.738 32.5558 136.773 32.6545C137.808 32.8767 138.596 34.2096 137.882 34.9501C136.6 36.3816 133.299 33.9381 132.633 35.7152C132.572 36.1965 132.572 36.6876 132.633 37.1713C132.633 38.6522 130.638 39.1953 129.135 39.3927C127.647 39.6865 126.107 39.5754 124.675 39.0719C123.985 38.7806 123.436 38.2302 123.15 37.5367C122.862 36.8431 122.862 36.0632 123.147 35.3696C122.94 35.261 122.711 35.1992 122.477 35.1869C122.243 35.1721 122.009 35.2067 121.79 35.2881C121.57 35.3696 121.368 35.4955 121.201 35.6584C121.031 35.8213 120.898 36.0162 120.807 36.2334C120.479 37.117 120.417 38.0796 120.634 38.9978C119.057 38.6522 117.628 39.985 116.717 41.2931C115.805 42.6013 114.918 44.181 113.39 44.65C111.863 45.1189 109.67 44.4772 108.857 45.884C107.797 47.7105 110.877 50.0058 109.793 51.8076C109.177 52.8442 107.723 52.7949 106.541 53.1158C105.816 53.3947 105.166 53.8438 104.646 54.4238C104.126 55.0063 103.752 55.7023 103.552 56.4551C103.352 57.2079 103.335 58.0002 103.498 58.7604C103.663 59.5231 104.005 60.2364 104.496 60.8411C105.634 61.9592 107.164 62.5861 108.758 62.5861C110.352 62.5861 111.885 61.9592 113.021 60.8411C114.344 59.1085 115.445 57.2178 116.298 55.2136C116.763 54.2165 117.532 53.3946 118.491 52.8615C119.452 52.3308 120.555 52.1161 121.644 52.2518C122.462 52.548 123.209 53.0097 123.837 53.6094L126.917 56.0776C127.582 56.6206 128.297 57.3116 128.248 58.1508C128.198 58.9899 127.656 59.3602 127.41 60.0019C126.769 61.853 129.455 63.5807 131.13 62.4701C131.52 62.1788 131.847 61.8161 132.094 61.399C132.34 60.9819 132.5 60.5202 132.567 60.039C132.633 59.5601 132.604 59.0714 132.481 58.6024C132.357 58.1335 132.141 57.6942 131.845 57.3117C130.268 55.1397 126.671 54.0289 126.745 51.3386C128.593 49.8577 131.5 51.3386 132.559 53.5353C133.619 55.732 133.668 58.1014 134.58 60.2734C135.491 62.4453 138.005 64.3953 140.124 63.334C139.557 61.4582 139.015 59.5823 138.473 57.7065C139.828 56.7193 141.38 59.6317 142.982 59.1381C143.967 58.8419 144.091 57.435 143.647 56.4971C143.085 55.6432 142.629 54.7226 142.292 53.7575C142.275 53.291 142.361 52.8269 142.546 52.3999C142.728 51.9729 143.006 51.5904 143.354 51.2844C143.704 50.9758 144.118 50.7512 144.564 50.6229C145.012 50.497 145.48 50.4698 145.939 50.5488C146.863 50.766 147.7 51.2547 148.341 51.9556C148.981 52.6566 149.398 53.5329 149.536 54.4732C149.602 55.2161 149.767 55.9467 150.029 56.6452C150.718 58.1014 152.493 58.5457 154.045 59.1134C155.597 59.6811 157.125 61.2361 156.509 62.717C156.213 63.3587 155.523 64.0004 155.77 64.6668C156.016 65.3332 156.878 65.5059 156.878 66.1476C156.878 66.7893 156.435 66.8635 156.016 67.0363C155.006 67.4312 153.922 67.5792 152.936 68.0481C152.426 68.2333 151.983 68.5665 151.662 69.0058C151.342 69.4451 151.16 69.9709 151.137 70.5163C151.261 72.0466 153.084 72.7623 153.946 74.0211C154.809 75.2798 154.661 76.8348 155.178 78.1923C155.799 79.4362 156.587 80.5914 157.519 81.6231C159.983 85.0538 160.648 89.4719 161.88 93.5197C162.447 95.3708 163.457 97.4193 165.354 97.7648C166.409 97.8364 167.461 97.6316 168.409 97.1725C171.233 96.3111 173.808 94.7883 175.924 92.7298C176.947 91.6833 177.568 90.311 177.676 88.8498C177.785 87.3911 177.373 85.9424 176.516 84.7577C176.289 84.4516 175.954 84.2394 175.579 84.1654C175.062 84.1654 174.594 84.4614 174.15 84.6589C173.423 84.9254 172.635 84.9823 171.876 84.8219C171.117 84.659 170.42 84.2862 169.863 83.7457C168.808 82.6547 167.973 81.3738 167.399 79.9694L165.132 75.428C165.637 75.1096 166.234 74.9665 166.827 75.0257C167.419 75.0825 167.978 75.3366 168.409 75.7488C169.242 76.5781 169.994 77.4888 170.651 78.4637C173.17 81.1565 176.631 82.7683 180.31 82.9558C181.244 83.02 182.163 83.2102 183.045 83.5236C185.755 84.7577 186.544 88.7066 189.402 89.5705C190.235 89.6989 191.057 89.8816 191.866 90.1136C192.4 90.4369 192.859 90.8762 193.209 91.3945C193.556 91.9153 193.788 92.5052 193.886 93.1247C194.339 95.3979 194.941 97.6415 195.685 99.8382C196.084 100.932 196.779 101.894 197.693 102.612C198.607 103.333 199.703 103.782 200.859 103.911C202.33 103.871 203.727 103.262 204.752 102.208C204.752 100.11 204.949 98.0118 204.949 95.8892C204.826 95.4202 204.826 94.9758 204.801 94.5563Z" fill="white"/>
<path d="M114.271 198.76H101.828V242.594H114.271V198.76Z" fill="#21252B"/>
<path d="M108.042 201.551C48.465 201.551 0 153.52 0 94.4569C0.027103 75.2595 5.20867 56.4223 15.0027 39.9226C24.7943 23.4204 38.8385 9.86038 55.6595 0.666454L56.8423 0L64.0616 10.0208L61.5976 11.8472L55.9799 4.04783C39.9867 13.069 26.6668 26.1774 17.3828 42.0404C8.09638 57.9008 3.17849 75.9456 3.12921 94.3335C3.12921 151.669 50.2144 198.317 108.067 198.317C131.972 198.342 155.182 190.271 173.927 175.413L169.566 171.093L171.734 168.897L178.559 175.635L177.229 176.721C157.739 192.781 133.28 201.558 108.042 201.551Z" fill="#21252B"/>
<path d="M187.474 239.955H25.0527V250H187.474V239.955Z" fill="#21252B"/>
</svg>