<svg width="232" height="249" viewBox="0 0 232 249" fill="none" xmlns="http://www.w3.org/2000/svg">
<path opacity="0.5" d="M42 156.959V249H42.4779H135.995V216.934C135.995 212.681 140.631 210.1 144.263 212.346C151.717 217.029 160.987 218.081 166.053 209.431C170.162 202.406 167.534 192.801 160.366 188.93C154.488 185.728 149.327 188.356 144.071 191.367C140.487 193.422 135.995 190.841 135.995 186.684V155H103.071C99.7736 155.86 98.0055 159.731 99.8213 162.885C102.832 168.142 105.46 173.303 102.258 179.181C98.3877 186.349 88.7827 188.978 81.7581 184.868C73.1088 179.802 74.1601 170.531 78.8432 163.076C80.8502 159.874 78.9866 155.86 75.5937 155H55.7146H42.5256H42.0478V156.959H42Z" fill="#2982E2"/>
<path d="M92.9334 65.4378C92.5974 61.9381 89.4291 60.2602 85.9729 61.6505C80.7885 63.8078 76.2282 65.6774 71.0918 62.1778C64.8994 57.9112 62.9792 48.9464 67.4435 42.906C72.9639 35.4753 81.3645 37.297 87.797 42.3307C90.5332 44.488 94.4215 43.1936 95.5736 40.1255L97.4937 21.8604L98.7898 9.73158L98.8378 9.30011L88.9971 8.24543L16.0319 0.575042L12.2876 0.191528L12.2396 0.622999L11.0395 11.8409L8.97539 31.3525C8.92739 31.4483 8.87939 31.5442 8.83139 31.6401L6.33521 55.4662C6.38321 55.5621 6.43122 55.658 6.43122 55.8018L3.16699 86.5792L3.59901 86.6272V86.8669L14.8318 88.0654L34.3692 90.1268C37.1054 91.4212 38.2095 95.0646 36.1453 97.7013C31.153 104.125 29.2808 112.515 36.7214 118.028C42.7698 122.486 51.8904 121 56.1627 114.768C59.667 109.686 57.7469 104.653 55.4907 99.523C54.1946 96.5508 55.9707 93.3867 58.8509 92.6676L89.6691 95.9275L91.0132 83.2714L92.9334 65.4378Z" fill="#2982E2"/>
<path d="M89.7664 65.2462C89.4304 61.7466 86.2621 60.0687 82.8059 61.4589C77.6215 63.6162 73.0612 65.4859 67.9248 61.9863C61.7324 57.7196 59.8122 48.7549 64.2766 42.7144C69.7969 35.2838 78.1975 37.1055 84.63 42.1392C87.3662 44.2965 91.2545 43.0021 92.4066 39.9339L94.3267 21.6688L95.6228 9.54002L95.6708 9.10858L85.8301 8.0539L12.8649 0.383513L9.12065 0L9.07263 0.431442L7.87254 11.6494L5.8084 31.1609C5.7604 31.2568 5.7124 31.3527 5.6644 31.4486L3.16821 55.2747C3.21622 55.3706 3.26423 55.4665 3.26423 55.6103L0 86.3877L0.432013 86.4356V86.6753L11.6648 87.8738L31.2022 89.9353C33.9384 91.2296 35.0425 94.8731 32.9783 97.5098C27.986 103.934 26.1138 112.323 33.5544 117.836C39.6028 122.295 48.7234 120.809 52.9957 114.576C56.5 109.495 54.5799 104.461 52.3237 99.3315C51.0276 96.3592 52.8038 93.1952 55.684 92.4761L86.5022 95.736L87.8462 83.0799L89.7664 65.2462Z" fill="white"/>
<path opacity="0.3" d="M89.7664 65.2462C89.4304 61.7466 86.2621 60.0687 82.8059 61.4589C77.6215 63.6162 73.0612 65.4859 67.9248 61.9863C61.7324 57.7196 59.8122 48.7549 64.2766 42.7144C69.7969 35.2838 78.1975 37.1055 84.63 42.1392C87.3662 44.2965 91.2545 43.0021 92.4066 39.9339L94.3267 21.6688L95.6228 9.54002L95.6708 9.10858L85.8301 8.0539L12.8649 0.383513L9.12065 0L9.07263 0.431442L7.87254 11.6494L5.8084 31.1609C5.7604 31.2568 5.7124 31.3527 5.6644 31.4486L3.16821 55.2747C3.21622 55.3706 3.26423 55.4665 3.26423 55.6103L0 86.3877L0.432013 86.4356V86.6753L11.6648 87.8738L31.2022 89.9353C33.9384 91.2296 35.0425 94.8731 32.9783 97.5098C27.986 103.934 26.1138 112.323 33.5544 117.836C39.6028 122.295 48.7234 120.809 52.9957 114.576C56.5 109.495 54.5799 104.461 52.3237 99.3315C51.0276 96.3592 52.8038 93.1952 55.684 92.4761L86.5022 95.736L87.8462 83.0799L89.7664 65.2462Z" fill="#2982E2"/>
<path opacity="0.5" d="M230 153.041V61H229.522H136.005V93.0661C136.005 97.3193 131.369 99.8998 127.737 97.6538C120.283 92.9705 111.013 91.9192 105.947 100.569C101.838 107.594 104.466 117.199 111.634 121.07C117.512 124.272 122.673 121.644 127.929 118.633C131.513 116.578 136.005 119.159 136.005 123.316V155H168.929C172.226 154.14 173.995 150.269 172.179 147.115C169.168 141.858 166.54 136.697 169.742 130.819C173.612 123.651 183.217 121.022 190.242 125.132C198.891 130.198 197.84 139.469 193.157 146.924C191.15 150.126 193.013 154.14 196.406 155H216.285H229.474H229.952V153.041H230Z" fill="#2982E2"/>
<path d="M227 153.041V61H226.522H133.005V93.0661C133.005 97.3193 128.369 99.8998 124.737 97.6538C117.283 92.9705 108.013 91.9192 102.947 100.569C98.8378 107.594 101.466 117.199 108.634 121.07C114.512 124.272 119.673 121.644 124.929 118.633C128.513 116.578 133.005 119.159 133.005 123.316V155H165.929C169.226 154.14 170.995 150.269 169.179 147.115C166.168 141.858 163.54 136.697 166.742 130.819C170.612 123.651 180.217 121.022 187.242 125.132C195.891 130.198 194.84 139.469 190.157 146.924C188.15 150.126 190.013 154.14 193.406 155H213.285H226.474H226.952V153.041H227Z" fill="#2982E2"/>
<path d="M137.959 249L230 249L230 248.522L230 155.005L197.934 155.005C193.681 155.005 191.1 150.369 193.346 146.737C198.029 139.283 199.081 130.013 190.431 124.947C183.406 120.838 173.801 123.466 169.93 130.634C166.728 136.512 169.356 141.673 172.367 146.929C174.422 150.513 171.841 155.005 167.684 155.005L136 155.005L136 187.929C136.86 191.226 140.731 192.995 143.885 191.179C149.142 188.168 154.303 185.54 160.181 188.742C167.349 192.612 169.978 202.217 165.868 209.242C160.802 217.891 151.531 216.84 144.076 212.157C140.874 210.15 136.86 212.013 136 215.406L136 235.285L136 248.474L136 248.952L137.959 248.952L137.959 249Z" fill="#2982E2"/>
<path d="M134.959 249L227 249L227 248.522L227 155.005L194.934 155.005C190.681 155.005 188.1 150.369 190.346 146.737C195.029 139.283 196.081 130.013 187.431 124.947C180.406 120.838 170.801 123.466 166.93 130.634C163.728 136.512 166.356 141.673 169.367 146.929C171.422 150.513 168.841 155.005 164.684 155.005L133 155.005L133 187.929C133.86 191.226 137.731 192.995 140.885 191.179C146.142 188.168 151.303 185.54 157.181 188.742C164.349 192.612 166.978 202.217 162.868 209.242C157.802 217.891 148.531 216.84 141.076 212.157C137.874 210.15 133.86 212.013 133 215.406L133 235.285L133 248.474L133 248.952L134.959 248.952L134.959 249Z" fill="white"/>
<path opacity="0.3" d="M134.959 249L227 249L227 248.522L227 155.005L194.934 155.005C190.681 155.005 188.1 150.369 190.346 146.737C195.029 139.283 196.081 130.013 187.431 124.947C180.406 120.838 170.801 123.466 166.93 130.634C163.728 136.512 166.356 141.673 169.367 146.929C171.422 150.513 168.841 155.005 164.684 155.005L133 155.005L133 187.929C133.86 191.226 137.731 192.995 140.885 191.179C146.142 188.168 151.303 185.54 157.181 188.742C164.349 192.612 166.978 202.217 162.868 209.242C157.802 217.891 148.531 216.84 141.076 212.157C137.874 210.15 133.86 212.013 133 215.406L133 235.285L133 248.474L133 248.952L134.959 248.952L134.959 249Z" fill="#2982E2"/>
<path d="M39 156.959V249H39.4779H132.995V216.934C132.995 212.681 137.631 210.1 141.263 212.346C148.717 217.029 157.987 218.081 163.053 209.431C167.162 202.406 164.534 192.801 157.366 188.93C151.204 185.324 146.017 187.65 141 191C137.416 193.055 132.995 190.841 132.995 186.684V155H100.071C96.7736 155.86 95.0055 159.731 96.8213 162.885C99.8319 168.142 102.46 173.303 99.2584 179.181C95.3877 186.349 85.7827 188.978 78.7581 184.868C70.1088 179.802 71.1601 170.531 75.8432 163.076C77.8502 159.874 75.9866 155.86 72.5937 155H52.7146H39.5256H39.0478V156.959H39Z" fill="#2982E2"/>
</svg>