<svg width="330" height="295" viewBox="0 0 330 295" fill="none" xmlns="http://www.w3.org/2000/svg">
<g clip-path="url(#clip0_243_480)">
<rect width="330" height="295" rx="0" fill="white"/>
<g opacity="0.3">
<path d="M0.217285 -57.75V194.288" stroke="#90B9E0" stroke-width="0.714403" stroke-miterlimit="10"/>
<path d="M19.6045 -57.75V194.288" stroke="#90B9E0" stroke-width="0.714403" stroke-miterlimit="10"/>
<path d="M38.9922 -57.75V194.288" stroke="#90B9E0" stroke-width="0.714403" stroke-miterlimit="10"/>
<path d="M-426.308 0.412598H38.9924" stroke="#90B9E0" stroke-width="0.714403" stroke-miterlimit="10"/>
<path d="M-426.308 19.8H38.9924" stroke="#90B9E0" stroke-width="0.714403" stroke-miterlimit="10"/>
<path d="M-426.308 39.1875H38.9924" stroke="#90B9E0" stroke-width="0.714403" stroke-miterlimit="10"/>
<path d="M-426.308 58.575H38.9924" stroke="#90B9E0" stroke-width="0.714403" stroke-miterlimit="10"/>
<path d="M-426.308 77.9624H38.9924" stroke="#90B9E0" stroke-width="0.714403" stroke-miterlimit="10"/>
<path d="M-426.308 97.3501H38.9924" stroke="#90B9E0" stroke-width="0.714403" stroke-miterlimit="10"/>
<path d="M-426.308 116.737H38.9924" stroke="#90B9E0" stroke-width="0.714403" stroke-miterlimit="10"/>
<path d="M-426.308 136.125H38.9924" stroke="#90B9E0" stroke-width="0.714403" stroke-miterlimit="10"/>
<path d="M-426.308 155.513H38.9924" stroke="#90B9E0" stroke-width="0.714403" stroke-miterlimit="10"/>
<path d="M-426.308 174.9H38.9924" stroke="#90B9E0" stroke-width="0.714403" stroke-miterlimit="10"/>
<path d="M-426.308 194.288H38.9924" stroke="#90B9E0" stroke-width="0.714403" stroke-miterlimit="10"/>
<path d="M58.3799 -57.75V194.288" stroke="#90B9E0" stroke-width="0.714403" stroke-miterlimit="10"/>
<path d="M77.7671 -57.75V194.288" stroke="#90B9E0" stroke-width="0.714403" stroke-miterlimit="10"/>
<path d="M97.1553 -57.75V194.288" stroke="#90B9E0" stroke-width="0.714403" stroke-miterlimit="10"/>
<path d="M116.542 -57.75V194.288" stroke="#90B9E0" stroke-width="0.714403" stroke-miterlimit="10"/>
<path d="M135.93 -57.75V194.288" stroke="#90B9E0" stroke-width="0.714403" stroke-miterlimit="10"/>
<path d="M155.317 -57.75V194.288" stroke="#90B9E0" stroke-width="0.714403" stroke-miterlimit="10"/>
<path d="M174.706 -57.75V194.288" stroke="#90B9E0" stroke-width="0.714403" stroke-miterlimit="10"/>
<path d="M194.093 -57.75V194.288" stroke="#90B9E0" stroke-width="0.714403" stroke-miterlimit="10"/>
<path d="M213.48 -57.75V194.288" stroke="#90B9E0" stroke-width="0.714403" stroke-miterlimit="10"/>
<path d="M232.868 -57.75V194.288" stroke="#90B9E0" stroke-width="0.714403" stroke-miterlimit="10"/>
<path d="M252.255 -57.75V194.288" stroke="#90B9E0" stroke-width="0.714403" stroke-miterlimit="10"/>
<path d="M271.643 -57.75V194.288" stroke="#90B9E0" stroke-width="0.714403" stroke-miterlimit="10"/>
<path d="M291.03 -57.75V194.288" stroke="#90B9E0" stroke-width="0.714403" stroke-miterlimit="10"/>
<path d="M310.417 -57.75V194.288" stroke="#90B9E0" stroke-width="0.714403" stroke-miterlimit="10"/>
<path d="M329.805 -57.75V194.288" stroke="#90B9E0" stroke-width="0.714403" stroke-miterlimit="10"/>
<path d="M38.9922 0.412598H504.293" stroke="#90B9E0" stroke-width="0.714403" stroke-miterlimit="10"/>
<path d="M38.9922 19.8H504.293" stroke="#90B9E0" stroke-width="0.714403" stroke-miterlimit="10"/>
<path d="M38.9922 39.1875H504.293" stroke="#90B9E0" stroke-width="0.714403" stroke-miterlimit="10"/>
<path d="M38.9922 58.575H504.293" stroke="#90B9E0" stroke-width="0.714403" stroke-miterlimit="10"/>
<path d="M38.9922 77.9624H504.293" stroke="#90B9E0" stroke-width="0.714403" stroke-miterlimit="10"/>
<path d="M38.9922 97.3501H504.293" stroke="#90B9E0" stroke-width="0.714403" stroke-miterlimit="10"/>
<path d="M38.9922 116.737H504.293" stroke="#90B9E0" stroke-width="0.714403" stroke-miterlimit="10"/>
<path d="M38.9922 136.125H504.293" stroke="#90B9E0" stroke-width="0.714403" stroke-miterlimit="10"/>
<path d="M38.9922 155.513H504.293" stroke="#90B9E0" stroke-width="0.714403" stroke-miterlimit="10"/>
<path d="M38.9922 174.9H504.293" stroke="#90B9E0" stroke-width="0.714403" stroke-miterlimit="10"/>
<path d="M38.9922 194.288H504.293" stroke="#90B9E0" stroke-width="0.714403" stroke-miterlimit="10"/>
<path d="M0.217285 194.288V446.325" stroke="#90B9E0" stroke-width="0.714403" stroke-miterlimit="10"/>
<path d="M19.6045 194.288V446.325" stroke="#90B9E0" stroke-width="0.714403" stroke-miterlimit="10"/>
<path d="M38.9922 194.288V446.325" stroke="#90B9E0" stroke-width="0.714403" stroke-miterlimit="10"/>
<path d="M-426.308 213.675H38.9924" stroke="#90B9E0" stroke-width="0.714403" stroke-miterlimit="10"/>
<path d="M-426.308 233.063H38.9924" stroke="#90B9E0" stroke-width="0.714403" stroke-miterlimit="10"/>
<path d="M-426.308 252.45H38.9924" stroke="#90B9E0" stroke-width="0.714403" stroke-miterlimit="10"/>
<path d="M-426.308 271.838H38.9924" stroke="#90B9E0" stroke-width="0.714403" stroke-miterlimit="10"/>
<path d="M-426.308 291.225H38.9924" stroke="#90B9E0" stroke-width="0.714403" stroke-miterlimit="10"/>
<path d="M58.3799 194.288V446.325" stroke="#90B9E0" stroke-width="0.714403" stroke-miterlimit="10"/>
<path d="M77.7671 194.288V446.325" stroke="#90B9E0" stroke-width="0.714403" stroke-miterlimit="10"/>
<path d="M97.1553 194.288V446.325" stroke="#90B9E0" stroke-width="0.714403" stroke-miterlimit="10"/>
<path d="M116.542 194.288V446.325" stroke="#90B9E0" stroke-width="0.714403" stroke-miterlimit="10"/>
<path d="M135.93 194.288V446.325" stroke="#90B9E0" stroke-width="0.714403" stroke-miterlimit="10"/>
<path d="M155.317 194.288V446.325" stroke="#90B9E0" stroke-width="0.714403" stroke-miterlimit="10"/>
<path d="M174.706 194.288V446.325" stroke="#90B9E0" stroke-width="0.714403" stroke-miterlimit="10"/>
<path d="M194.093 194.288V446.325" stroke="#90B9E0" stroke-width="0.714403" stroke-miterlimit="10"/>
<path d="M213.48 194.288V446.325" stroke="#90B9E0" stroke-width="0.714403" stroke-miterlimit="10"/>
<path d="M232.868 194.288V446.325" stroke="#90B9E0" stroke-width="0.714403" stroke-miterlimit="10"/>
<path d="M252.255 194.288V446.325" stroke="#90B9E0" stroke-width="0.714403" stroke-miterlimit="10"/>
<path d="M271.643 194.288V446.325" stroke="#90B9E0" stroke-width="0.714403" stroke-miterlimit="10"/>
<path d="M291.03 194.288V446.325" stroke="#90B9E0" stroke-width="0.714403" stroke-miterlimit="10"/>
<path d="M310.417 194.288V446.325" stroke="#90B9E0" stroke-width="0.714403" stroke-miterlimit="10"/>
<path d="M329.805 194.288V446.325" stroke="#90B9E0" stroke-width="0.714403" stroke-miterlimit="10"/>
<path d="M38.9922 213.675H504.293" stroke="#90B9E0" stroke-width="0.714403" stroke-miterlimit="10"/>
<path d="M38.9922 233.063H504.293" stroke="#90B9E0" stroke-width="0.714403" stroke-miterlimit="10"/>
<path d="M38.9922 252.45H504.293" stroke="#90B9E0" stroke-width="0.714403" stroke-miterlimit="10"/>
<path d="M38.9922 271.838H504.293" stroke="#90B9E0" stroke-width="0.714403" stroke-miterlimit="10"/>
<path d="M38.9922 291.225H504.293" stroke="#90B9E0" stroke-width="0.714403" stroke-miterlimit="10"/>
</g>
<rect width="330" height="295" fill="url(#paint0_radial_243_480)"/>
<g filter="url(#filter0_dii_243_480)">
<path d="M300.296 96.6746C294.499 91.0262 285.359 91.161 279.918 96.973L278.11 98.9051L276.934 96.4761C275.214 92.9349 272.259 90.2624 268.601 88.9477C264.944 87.6379 261.035 87.8467 257.594 89.5354C255.312 90.653 253.414 92.3367 252.039 94.4204C251.537 93.336 250.906 92.3031 250.142 91.3416C247.698 88.2619 244.241 86.3138 240.408 85.86C235.105 85.2376 230.177 87.6369 227.272 91.7149C222.147 86.6276 215.46 83.6164 208.042 83.1467L198.965 82.572C195.183 82.3156 191.555 83.5597 188.721 86.073C186.201 83.8745 183.047 82.6142 179.673 82.4914L179.432 82.4853C175.535 82.4326 171.981 83.9874 169.38 86.5544C165.863 82.6758 160.516 80.8819 155.38 82.101C153.016 82.6611 150.91 83.8058 149.187 85.3647C146.619 83.6002 143.54 82.7027 140.335 82.8116L140.303 82.8127L122.506 83.3794L122.473 83.3805C119.092 83.4954 115.95 84.7894 113.481 87.0482C110.982 85.5613 108.124 84.8653 105.22 85.0591C101.38 85.313 97.8951 87.0792 95.4089 90.0315C94.4115 91.2146 93.6256 92.5282 93.0582 93.9341C92.5031 93.4352 91.9207 92.9564 91.3167 92.5069C86.2433 88.738 80.0703 87.1814 73.9336 88.1259L63.6598 89.7047C60.7185 90.1561 57.9828 91.5643 55.8771 93.6588C54.0929 93.3348 52.1813 93.3475 50.2096 93.7422L32.7804 97.2071C29.0163 97.9573 25.7856 100.161 23.6822 103.419C21.5833 106.676 20.871 110.589 21.6729 114.447L29.0632 150.028C30.3249 156.105 35.037 160.656 40.8729 161.702C40.8162 162.9 40.8443 164.115 40.9661 165.345C41.5439 171.143 44.0685 175.962 47.5162 179.781C42.5415 184.528 41.4468 192.433 45.2868 198.619C49.8356 205.952 57.9997 210.585 66.6 210.715C66.9866 210.721 67.3773 210.717 67.7719 210.704C68.1669 210.691 68.589 210.667 68.9967 210.629C75.8676 210.039 82.0371 206.397 86.0793 201.055C99.3687 209.374 116.874 207.725 128.069 196.157C133.375 202.53 140.556 206.199 148.099 206.313C148.243 206.313 148.388 206.317 148.518 206.318C154.748 206.3 160.563 203.762 164.912 199.44C169.675 203.694 175.481 206.104 181.687 206.197C187.708 206.282 193.374 204.015 197.739 200.044C200.132 201.824 202.979 202.824 205.978 202.898L223.815 203.341L223.938 203.337C224.202 203.347 224.468 203.348 224.728 203.339C226.799 203.268 228.73 202.794 230.451 202C232.344 203.137 234.479 203.834 236.719 204.009C241.461 204.385 245.809 202.376 248.649 198.969C255.724 205.538 264.556 209.222 274.619 209.725C274.787 209.734 274.944 209.738 275.104 209.742C275.342 209.744 275.577 209.745 275.809 209.737C283.216 209.486 289.099 203.564 289.339 195.958C289.464 192.07 288.083 188.341 285.45 185.458C282.841 182.603 279.311 180.928 275.513 180.734C272.583 180.587 270.11 179.664 268.042 177.939C270.868 174.268 272.589 169.755 272.875 164.93C273.048 162.014 272.695 159.143 271.871 156.417L272.002 156.422C272.229 156.424 272.453 156.421 272.682 156.413C279.469 156.183 285.227 151.001 286.215 144.101L288.068 131.236L300.949 117.465C303.583 114.65 304.971 110.932 304.843 107.005C304.717 103.077 303.106 99.4093 300.296 96.6698L300.296 96.6746Z" fill="url(#paint1_linear_243_480)"/>
</g>
<path d="M223.846 180.903L212.804 180.672L212.861 175.426L219.326 175.56C223.001 175.602 226.022 172.771 226.062 169.255C226.084 167.595 225.445 166.007 224.269 164.781C223.003 163.46 221.279 162.713 219.417 162.674L213.002 162.543L213.064 156.608L224.108 156.839L224.172 156.836C228.031 156.885 230.864 154.287 230.909 150.662C230.927 148.862 230.24 147.219 228.966 146.029C227.744 144.889 226.078 144.243 224.261 144.203L206.499 143.828L206.426 143.831C202.752 143.785 199.732 146.765 199.689 150.474L199.276 186.241C199.258 188.056 199.934 189.774 201.192 191.081C202.45 192.389 204.131 193.132 205.923 193.169L223.685 193.544L223.757 193.541C227.616 193.59 230.45 190.991 230.494 187.367C230.515 185.567 229.826 183.924 228.551 182.734C227.329 181.594 225.663 180.948 223.846 180.908L223.846 180.903Z" fill="#49B749" stroke="#231F20" stroke-width="1.88555" stroke-miterlimit="10"/>
<path d="M275.293 186.309C265.711 185.868 260.476 179.969 257.722 174.85C262.182 172.231 265.027 167.627 265.364 162.403C265.637 158.208 264.271 154.14 261.521 150.954C258.774 147.768 254.965 145.836 250.805 145.522L240.41 144.735C238.633 144.604 236.861 145.195 235.527 146.361C234.173 147.547 233.365 149.195 233.249 151.006L232.086 168.856C232.086 168.856 232.086 168.87 232.087 168.879L230.926 186.72C230.81 188.53 231.397 190.286 232.584 191.659C233.771 193.036 235.412 193.866 237.209 194.001C240.934 194.28 244.131 191.441 244.372 187.731L244.959 178.698C245.871 180.671 247.142 183.021 248.86 185.406C255.133 194.133 264.112 199.011 274.813 199.504C274.891 199.506 274.967 199.508 275.045 199.51C278.622 199.55 281.523 196.783 281.657 193.213C281.722 191.451 281.096 189.758 279.892 188.456C278.689 187.154 277.059 186.389 275.299 186.309L275.293 186.309ZM252.361 161.413C252.159 163.363 250.781 164.802 249.704 164.791C249.679 164.792 249.662 164.792 249.639 164.788L245.954 164.513L246.269 157.399L249.891 157.672C251.475 157.871 252.56 159.515 252.361 161.418L252.361 161.413Z" fill="#49B749" stroke="#231F20" stroke-width="1.88555" stroke-miterlimit="10"/>
<path d="M147.734 138.24C148.96 137.037 149.594 135.383 149.512 133.582C149.435 131.898 148.764 130.414 147.567 129.296C146.245 128.066 144.443 127.43 142.493 127.503L131.463 127.89L131.243 122.247L137.242 122.038C138.933 121.975 140.492 121.261 141.632 120.01C142.772 118.763 143.361 117.134 143.288 115.431C143.21 113.723 142.484 112.143 141.238 110.981C139.993 109.813 138.369 109.199 136.687 109.266L130.744 109.473L130.524 103.835L141.559 103.448C143.37 103.381 145.014 102.715 146.191 101.556C147.417 100.353 148.051 98.6986 147.969 96.8977C147.892 95.2136 147.226 93.7342 146.029 92.6168C144.706 91.3868 142.9 90.7417 140.95 90.8188L123.203 91.4415C121.41 91.5082 119.751 92.2683 118.541 93.597C117.33 94.9213 116.703 96.6502 116.781 98.4608L118.338 134.212C118.42 136.022 119.188 137.704 120.516 138.939C121.727 140.07 123.297 140.714 124.942 140.761C124.974 140.76 125.011 140.758 125.044 140.762C125.146 140.762 125.253 140.763 125.355 140.759L143.102 140.137C144.913 140.069 146.557 139.399 147.734 138.245L147.734 138.24Z" fill="#49B749" stroke="#231F20" stroke-width="1.88555" stroke-miterlimit="10"/>
<path d="M158.325 138.863C158.325 138.863 158.362 138.862 158.367 138.862C162.054 138.968 165.123 136.014 165.208 132.293L165.454 121.761L173.14 135.964C174.303 138.105 176.514 139.476 178.922 139.537C178.956 139.535 178.992 139.534 179.026 139.538C179.568 139.546 180.107 139.483 180.632 139.356C183.582 138.656 185.694 136.027 185.764 132.968L186.588 97.2004C186.632 95.3894 185.971 93.661 184.726 92.3385C183.487 91.0157 181.815 90.2529 179.976 90.1949C179.94 90.1962 179.907 90.1975 179.876 90.1938C176.236 90.1509 173.223 93.0801 173.134 96.7631L172.891 107.296L165.205 93.0925C163.743 90.3906 160.656 88.9914 157.712 89.696C154.762 90.3963 152.649 93.0249 152.58 96.0838L151.755 131.852C151.712 133.663 152.372 135.391 153.616 136.714C154.856 138.036 156.53 138.799 158.325 138.859L158.325 138.863Z" fill="#49B749" stroke="#231F20" stroke-width="1.88555" stroke-miterlimit="10"/>
<path d="M49.3693 146.029L46.7695 134.371L52.3716 133.249C54.0491 132.915 55.4886 131.939 56.4249 130.503C57.361 129.067 57.6905 127.34 57.3396 125.648C56.9932 123.951 56.0129 122.488 54.5826 121.529C53.1521 120.566 51.4392 120.222 49.7664 120.561L43.9439 121.729L42.8307 116.738L53.6257 114.575C57.3345 113.833 59.7625 110.332 59.0297 106.77C58.2968 103.204 55.3896 101.387 51.6163 102.141L34.2314 105.622C32.4757 105.974 30.9642 107 29.9802 108.503C28.996 110.01 28.6518 111.817 29.0204 113.593L36.2176 148.678C36.8613 151.812 39.5144 154.06 42.6765 154.144C42.7088 154.143 42.7459 154.141 42.7784 154.145C43.2424 154.151 43.7044 154.11 44.1638 154.014C45.9192 153.663 47.4306 152.637 48.415 151.134C49.399 149.63 49.7431 147.819 49.374 146.029L49.3693 146.029Z" fill="#49B749" stroke="#231F20" stroke-width="1.88555" stroke-miterlimit="10"/>
<path d="M113.222 99.5831C113.085 97.7773 112.259 96.1284 110.906 94.9391C109.553 93.7498 107.826 93.1592 106.049 93.2865C104.271 93.4093 102.655 94.2322 101.496 95.5952C100.337 96.9582 99.7759 98.7057 99.9129 100.511L102.64 136.148C102.909 139.657 105.718 142.369 109.173 142.459C109.209 142.458 109.242 142.457 109.279 142.46C109.454 142.463 109.633 142.456 109.812 142.44C113.482 142.186 116.237 138.943 115.948 135.215L113.221 99.5783L113.222 99.5831Z" fill="#49B749" stroke="#231F20" stroke-width="1.88555" stroke-miterlimit="10"/>
<path d="M98.922 131.563C95.4657 129.037 92.1324 126.15 88.9999 122.98C92.4114 119.435 93.9646 114.472 93.1691 109.564C92.4959 105.406 90.2614 101.751 86.8766 99.2653C83.4917 96.7791 79.3609 95.7651 75.2501 96.4058L64.9794 98.0068C63.2306 98.278 61.6353 99.2611 60.5999 100.706C59.5513 102.171 59.1313 103.964 59.4223 105.758L62.2826 123.424C62.2826 123.424 62.2839 123.452 62.289 123.466L65.1497 141.141C65.4407 142.936 66.405 144.513 67.8664 145.584C69.0205 146.433 70.3745 146.884 71.7692 146.898C72.1366 146.903 72.5116 146.875 72.8854 146.819C73.0283 146.795 73.1712 146.771 73.3092 146.737C76.7593 145.971 79.0126 142.6 78.4425 139.072L76.948 129.847C79.9167 133.09 84.7799 137.931 91.0823 142.546C92.1977 143.362 93.5147 143.815 94.8823 143.849C97.097 143.907 99.1916 142.868 100.48 141.066C102.642 138.041 101.946 133.781 98.9274 131.577L98.922 131.563ZM78.4293 115.466L74.7889 116.033L73.5022 109.019L77.0964 108.459C78.6693 108.302 80.088 109.661 80.3185 111.551C80.5625 113.54 79.4992 115.286 78.4291 115.462L78.4293 115.466Z" fill="#49B749" stroke="#231F20" stroke-width="1.88555" stroke-miterlimit="10" stroke-linejoin="round"/>
<path d="M196.804 139.306L205.909 139.84C206.17 139.854 206.425 139.867 206.679 139.872C206.803 139.877 206.923 139.877 207.049 139.877C213.211 139.943 218.863 137.586 222.991 133.212C226.999 128.965 229.382 123.038 229.702 116.513C230.022 109.988 228.225 103.814 224.656 99.1265C220.734 93.9784 214.93 90.926 208.314 90.5342L199.214 90.0001C197.425 89.8885 195.711 90.4867 194.376 91.6852C193.033 92.8933 192.243 94.564 192.155 96.3817L190.412 132.121C190.324 133.934 190.943 135.674 192.148 137.031C193.336 138.366 195.035 139.194 196.803 139.297L196.804 139.306ZM216.252 115.729C216.089 119.022 215.009 121.885 213.201 123.799C211.494 125.607 209.259 126.44 206.568 126.278L204.185 126.137L205.264 103.96L207.644 104.101C210.344 104.258 212.479 105.351 214.002 107.344C215.613 109.455 216.409 112.436 216.246 115.729L216.252 115.729Z" fill="#49B749" stroke="#231F20" stroke-width="1.88555" stroke-miterlimit="10"/>
<path d="M295.81 101.101C293.117 98.5009 288.847 98.5798 286.295 101.272L276.911 111.176L270.879 98.779C269.241 95.4082 265.198 93.9832 261.868 95.6072C260.255 96.3939 259.049 97.7702 258.473 99.4842C257.894 101.198 258.012 103.041 258.808 104.676L268.178 123.943L265.907 139.044C265.637 140.835 266.077 142.628 267.147 144.098C268.212 145.568 269.779 146.537 271.559 146.822C271.857 146.872 272.155 146.899 272.457 146.906C272.496 146.905 272.527 146.904 272.561 146.907C275.869 146.943 278.72 144.503 279.22 141.193L281.491 126.092L296.066 110.702C297.301 109.396 297.958 107.679 297.908 105.866C297.856 104.054 297.111 102.361 295.81 101.101Z" fill="#49B749" stroke="#231F20" stroke-width="1.88555" stroke-miterlimit="10"/>
<path d="M67.5544 167.662C64.3379 166.498 62.0476 164.386 61.9262 163.144C61.7956 161.809 62.7962 159.846 63.9514 159.747C64.5522 159.701 66.2398 160.8 66.8389 161.532C68.043 163.015 69.5119 163.902 71.0791 164.092C72.6651 164.286 74.2736 163.753 75.7264 162.555C77.1615 161.373 78.0494 159.691 78.2239 157.819C78.3985 155.948 77.8419 154.118 76.6573 152.658C73.2224 148.429 67.967 146.193 62.6129 146.668C53.7291 147.458 47.1986 155.404 48.0626 164.381C48.8773 172.887 56.2948 178.496 62.9635 180.909C66.1849 182.078 68.4703 184.185 68.5919 185.427C68.6977 186.529 67.4113 187.814 66.0899 187.933C64.9123 188.043 63.4279 187.329 62.8422 186.391C60.7856 183.094 56.4763 182.073 53.2254 184.12C49.979 186.166 49.0083 190.513 51.0652 193.81C54.1329 198.732 59.9153 201.952 65.8046 202.018C66.3523 202.026 66.8985 202.001 67.4391 201.957C76.4336 201.159 83.3176 193.027 82.4698 184.203C81.6554 175.702 74.2376 170.088 67.5687 167.671L67.5544 167.662Z" fill="#49B749" stroke="#231F20" stroke-width="1.88555" stroke-miterlimit="10"/>
<path d="M193.21 177.584C191.588 176.869 189.794 176.833 188.156 177.476C186.519 178.124 185.237 179.374 184.543 181.002C183.84 182.649 182.399 183.501 181.331 183.489C176.942 183.441 173.674 176.116 173.69 169.599C173.701 163.083 176.995 155.833 181.385 155.881C182.571 155.894 183.438 156.186 184.342 157.632C185.285 159.143 186.754 160.197 188.476 160.598C190.2 161.004 191.963 160.708 193.452 159.765C194.942 158.826 195.973 157.355 196.356 155.621C196.737 153.887 196.428 152.104 195.482 150.593C192.285 145.484 187.283 142.63 181.405 142.566C169.702 142.438 160.515 154.242 160.488 169.451C160.482 172.89 160.948 176.162 161.802 179.174C161.172 178.512 160.411 177.976 159.547 177.609C156.172 176.194 152.316 177.798 150.943 181.18C150.24 182.916 148.81 183.716 147.776 183.722L147.711 183.724C145.578 183.7 143.868 181.748 143.038 180.586C141.103 177.886 139.958 174.015 139.894 169.967C139.793 163.45 142.956 156.145 147.345 156.113C148.532 156.106 149.401 156.379 150.332 157.811C151.304 159.301 152.79 160.331 154.515 160.704C156.246 161.077 158.005 160.748 159.474 159.782C160.943 158.816 161.951 157.327 162.304 155.59C162.658 153.852 162.316 152.071 161.344 150.58C158.065 145.538 153.013 142.79 147.133 142.802C141.44 142.839 136.202 145.689 132.377 150.83C128.595 155.913 126.574 162.744 126.69 170.059C126.796 176.881 128.81 183.37 132.356 188.321C136.275 193.795 141.863 196.974 147.686 197.04C147.784 197.041 147.881 197.042 147.979 197.038C154.579 196.995 160.538 192.789 163.162 186.317C163.455 185.592 163.611 184.829 163.641 184.067C167.291 191.693 173.759 196.709 181.3 196.796C187.901 196.87 193.936 192.77 196.669 186.349C197.362 184.721 197.383 182.912 196.728 181.254C196.075 179.597 194.819 178.29 193.201 177.575L193.21 177.584Z" fill="#49B749" stroke="#231F20" stroke-width="1.88555" stroke-miterlimit="10" stroke-linejoin="round"/>
<g filter="url(#filter1_d_243_480)">
<g filter="url(#filter2_ii_243_480)">
<path d="M110.746 188.597C127.256 188.086 139.89 173.953 138.967 157.031C138.043 140.109 123.91 126.805 107.401 127.316C90.8914 127.827 78.2567 141.959 79.1805 158.882C80.1042 175.804 94.2367 189.108 110.746 188.597Z" fill="url(#paint2_linear_243_480)"/>
</g>
<path d="M110.54 184.785C125.061 184.294 136.232 171.922 135.492 157.151C134.751 142.38 122.38 130.804 107.859 131.295C93.3376 131.786 82.1662 144.157 82.9067 158.928C83.6472 173.699 96.0193 185.275 110.54 184.785Z" fill="url(#paint3_radial_243_480)" stroke="#231F20" stroke-width="1.88555" stroke-miterlimit="10"/>
<path d="M90.3496 164.965C90.3496 164.965 91.3103 158.54 92.975 154.707C94.6394 150.868 102.258 143.216 105.729 141.431C107.932 140.297 113.205 138.522 115.752 138.521C117.808 138.522 124.735 143.954 124.822 147.531C124.908 151.108 124.133 155.048 122.951 158.536C121.77 162.024 114.1 170.399 110.197 171.811C107 172.97 102.212 173.72 99.419 173.975C96.6303 174.229 90.775 169.849 90.775 169.849L90.3496 164.965Z" stroke="#231F20" stroke-width="1.88555" stroke-miterlimit="10"/>
<path d="M116.095 164.937L103.262 151.793L90.4478 146.183C90.4478 146.183 86.1965 146.44 84.5777 147.876" stroke="#231F20" stroke-width="1.88555" stroke-miterlimit="10"/>
<path d="M98.7163 143.864L97.3533 137.324C97.3533 137.324 97.5324 134.792 98.5513 133.666" stroke="#231F20" stroke-width="1.88555" stroke-miterlimit="10"/>
<path d="M124.333 167.163C126.757 167.391 133.19 166.206 134.745 165.273" stroke="#231F20" stroke-width="1.88555" stroke-miterlimit="10"/>
<path d="M118.488 172.884C118.753 175.307 118.208 181.522 117.392 183.104" stroke="#231F20" stroke-width="1.88555" stroke-miterlimit="10"/>
<path d="M88.5385 146.331L92.985 154.861L103.32 151.908L105.733 141.587L97.2424 137.268L88.5385 146.331Z" fill="#231F20"/>
<path d="M112.606 161.318L110.188 171.638L118.683 175.953L127.388 166.894L122.941 158.36L112.606 161.318Z" fill="#231F20"/>
<path d="M83.8964 167.088L88.8985 175.978L97.4271 181.215L99.113 173.967L90.0487 164.969L83.8964 167.088Z" fill="#231F20"/>
<path d="M131.65 145.053L126.679 136.768L117.993 132.206L116.054 138.516L125.121 147.519L131.65 145.053Z" fill="#231F20"/>
</g>
<path d="M260.503 132.918C259.369 131.496 257.756 130.604 255.968 130.403L244.962 129.152L246.805 111.183L233.418 109.551L230.87 134.38C230.681 136.183 231.21 137.956 232.343 139.377C233.477 140.798 235.09 141.691 236.878 141.892L254.584 143.902C254.781 143.923 254.978 143.94 255.168 143.942C255.201 143.941 255.238 143.939 255.271 143.943C258.689 143.98 261.623 141.347 261.978 137.91C262.164 136.107 261.639 134.334 260.502 132.913L260.503 132.918Z" fill="#49B749"/>
<path d="M246.894 111.292L248.012 100.432C248.395 96.709 245.7 93.3392 242.005 92.9233C238.314 92.5071 235.001 95.1906 234.617 98.9141L233.514 109.665L246.894 111.296L246.894 111.292Z" fill="white"/>
<path d="M232.406 139.384C233.537 140.803 235.146 141.694 236.933 141.895L254.599 143.904C254.793 143.925 254.989 143.941 255.179 143.943C255.212 143.942 255.248 143.94 255.282 143.944C258.691 143.981 261.619 141.351 261.973 137.918C262.162 136.116 261.635 134.346 260.504 132.927C259.373 131.507 257.764 130.616 255.977 130.415L244.999 129.165L247.95 100.368C248.333 96.6478 245.643 93.2809 241.957 92.8649C238.273 92.4491 234.963 95.1304 234.58 98.8507L230.937 134.392C230.748 136.194 231.275 137.964 232.406 139.384Z" stroke="#231F20" stroke-width="1.88555" stroke-miterlimit="10"/>
<path d="M233.438 109.62L246.884 111.282" stroke="#231F20" stroke-width="1.88555" stroke-miterlimit="10"/>
</g>
<defs>
<filter id="filter0_dii_243_480" x="16.8138" y="77.1846" width="295.601" height="141.097" filterUnits="userSpaceOnUse" color-interpolation-filters="sRGB">
<feFlood flood-opacity="0" result="BackgroundImageFix"/>
<feColorMatrix in="SourceAlpha" type="matrix" values="0 0 0 0 0 0 0 0 0 0 0 0 0 0 0 0 0 0 127 0" result="hardAlpha"/>
<feOffset dx="1.51276" dy="1.51276"/>
<feGaussianBlur stdDeviation="3.02553"/>
<feColorMatrix type="matrix" values="0 0 0 0 0 0 0 0 0 0.192157 0 0 0 0 0.266667 0 0 0 0.4 0"/>
<feBlend mode="normal" in2="BackgroundImageFix" result="effect1_dropShadow_243_480"/>
<feBlend mode="normal" in="SourceGraphic" in2="effect1_dropShadow_243_480" result="shape"/>
<feColorMatrix in="SourceAlpha" type="matrix" values="0 0 0 0 0 0 0 0 0 0 0 0 0 0 0 0 0 0 127 0" result="hardAlpha"/>
<feOffset dx="0.756382" dy="0.756382"/>
<feGaussianBlur stdDeviation="0.756382"/>
<feComposite in2="hardAlpha" operator="arithmetic" k2="-1" k3="1"/>
<feColorMatrix type="matrix" values="0 0 0 0 0 0 0 0 0 0 0 0 0 0 0 0 0 0 0.45 0"/>
<feBlend mode="normal" in2="shape" result="effect2_innerShadow_243_480"/>
<feColorMatrix in="SourceAlpha" type="matrix" values="0 0 0 0 0 0 0 0 0 0 0 0 0 0 0 0 0 0 127 0" result="hardAlpha"/>
<feOffset dx="-0.756382" dy="-0.756382"/>
<feGaussianBlur stdDeviation="0.756382"/>
<feComposite in2="hardAlpha" operator="arithmetic" k2="-1" k3="1"/>
<feColorMatrix type="matrix" values="0 0 0 0 1 0 0 0 0 1 0 0 0 0 1 0 0 0 1 0"/>
<feBlend mode="normal" in2="effect2_innerShadow_243_480" result="effect3_innerShadow_243_480"/>
</filter>
<filter id="filter1_d_243_480" x="59.6488" y="127.302" width="85.022" height="88.3358" filterUnits="userSpaceOnUse" color-interpolation-filters="sRGB">
<feFlood flood-opacity="0" result="BackgroundImageFix"/>
<feColorMatrix in="SourceAlpha" type="matrix" values="0 0 0 0 0 0 0 0 0 0 0 0 0 0 0 0 0 0 127 0" result="hardAlpha"/>
<feOffset dx="-6.91368" dy="14.4559"/>
<feGaussianBlur stdDeviation="6.28516"/>
<feColorMatrix type="matrix" values="0 0 0 0 0.109804 0 0 0 0 0.286275 0 0 0 0 0.137255 0 0 0 0.3 0"/>
<feBlend mode="normal" in2="BackgroundImageFix" result="effect1_dropShadow_243_480"/>
<feBlend mode="normal" in="SourceGraphic" in2="effect1_dropShadow_243_480" result="shape"/>
</filter>
<filter id="filter2_ii_243_480" x="77.9982" y="126.167" width="62.1505" height="63.2005" filterUnits="userSpaceOnUse" color-interpolation-filters="sRGB">
<feFlood flood-opacity="0" result="BackgroundImageFix"/>
<feBlend mode="normal" in="SourceGraphic" in2="BackgroundImageFix" result="shape"/>
<feColorMatrix in="SourceAlpha" type="matrix" values="0 0 0 0 0 0 0 0 0 0 0 0 0 0 0 0 0 0 127 0" result="hardAlpha"/>
<feOffset dx="1.13457" dy="0.756382"/>
<feGaussianBlur stdDeviation="0.756382"/>
<feComposite in2="hardAlpha" operator="arithmetic" k2="-1" k3="1"/>
<feColorMatrix type="matrix" values="0 0 0 0 0.541667 0 0 0 0 0.541667 0 0 0 0 0.541667 0 0 0 1 0"/>
<feBlend mode="normal" in2="shape" result="effect1_innerShadow_243_480"/>
<feColorMatrix in="SourceAlpha" type="matrix" values="0 0 0 0 0 0 0 0 0 0 0 0 0 0 0 0 0 0 127 0" result="hardAlpha"/>
<feOffset dx="-1.13457" dy="-1.13457"/>
<feGaussianBlur stdDeviation="0.756382"/>
<feComposite in2="hardAlpha" operator="arithmetic" k2="-1" k3="1"/>
<feColorMatrix type="matrix" values="0 0 0 0 1 0 0 0 0 1 0 0 0 0 1 0 0 0 1 0"/>
<feBlend mode="normal" in2="effect1_innerShadow_243_480" result="effect2_innerShadow_243_480"/>
</filter>
<radialGradient id="paint0_radial_243_480" cx="0" cy="0" r="1" gradientUnits="userSpaceOnUse" gradientTransform="translate(165 143.075) rotate(82.0375) scale(143.723 331.838)">
<stop offset="0.25" stop-color="white" stop-opacity="0"/>
<stop offset="1" stop-color="white"/>
</radialGradient>
<linearGradient id="paint1_linear_243_480" x1="24.3907" y1="103.702" x2="283.923" y2="195.059" gradientUnits="userSpaceOnUse">
<stop stop-color="#DBDBDB"/>
<stop offset="0.208333" stop-color="#F9F9F9"/>
<stop offset="0.838542" stop-color="#FAFAFA"/>
<stop offset="1" stop-color="#FEFEFE"/>
</linearGradient>
<linearGradient id="paint2_linear_243_480" x1="84.7682" y1="134.268" x2="135.856" y2="178.841" gradientUnits="userSpaceOnUse">
<stop stop-color="#EDEDED"/>
<stop offset="1" stop-color="white"/>
</linearGradient>
<radialGradient id="paint3_radial_243_480" cx="0" cy="0" r="1" gradientUnits="userSpaceOnUse" gradientTransform="translate(113.772 149.799) rotate(116.316) scale(33.6601 33.8113)">
<stop stop-color="white"/>
<stop offset="0.765625" stop-color="#E9EDE9"/>
<stop offset="1" stop-color="#698569"/>
</radialGradient>
<clipPath id="clip0_243_480">
<rect width="330" height="295" rx="0" fill="white"/>
</clipPath>
</defs>
</svg>
