<svg width="56" height="56" viewBox="0 0 56 56" fill="none" xmlns="http://www.w3.org/2000/svg">
<g clip-path="url(#clip0_144_37)">
<path d="M12.306 24.5C14.7288 24.5 17.0972 25.2184 19.1117 26.5645C21.1262 27.9105 22.6964 29.8237 23.6235 32.0621C24.5507 34.3005 24.7933 36.7636 24.3206 39.1399C23.848 41.5161 22.6813 43.6989 20.9681 45.4121C19.2549 47.1253 17.0721 48.292 14.6959 48.7646C12.3196 49.2373 9.85652 48.9947 7.61813 48.0675C5.37973 47.1404 3.46654 45.5702 2.1205 43.5557C0.77445 41.5412 0.056 39.1728 0.056 36.75L0 35C0 28.5022 2.58124 22.2705 7.17588 17.6759C11.7705 13.0812 18.0022 10.5 24.5 10.5V17.5C22.2009 17.4938 19.9233 17.9435 17.799 18.823C15.6747 19.7025 13.7459 20.9944 12.124 22.624C11.4936 23.2532 10.9121 23.9295 10.3845 24.647C11.011 24.549 11.6515 24.4965 12.3025 24.4965L12.306 24.5ZM43.806 24.5C46.2288 24.5 48.5972 25.2184 50.6117 26.5645C52.6262 27.9105 54.1964 29.8237 55.1235 32.0621C56.0507 34.3005 56.2933 36.7636 55.8206 39.1399C55.348 41.5161 54.1812 43.6989 52.4681 45.4121C50.7549 47.1253 48.5721 48.292 46.1959 48.7646C43.8196 49.2373 41.3565 48.9947 39.1181 48.0675C36.8797 47.1404 34.9665 45.5702 33.6205 43.5557C32.2744 41.5412 31.556 39.1728 31.556 36.75L31.5 35C31.5 28.5022 34.0812 22.2705 38.6759 17.6759C43.2705 13.0812 49.5022 10.5 56 10.5V17.5C53.7009 17.4938 51.4233 17.9435 49.299 18.823C47.1747 19.7025 45.2459 20.9944 43.624 22.624C42.9936 23.2532 42.4121 23.9295 41.8845 24.647C42.511 24.549 43.1515 24.4965 43.806 24.4965V24.5Z" fill="#00FFCA"/>
</g>
<defs>
<clipPath id="clip0_144_37">
<rect width="56" height="56" fill="white"/>
</clipPath>
</defs>
</svg>
