<svg width="99" height="100" viewBox="0 0 99 100" fill="none" xmlns="http://www.w3.org/2000/svg">
<path d="M34.144 26.4897L34.5094 21.0676C34.5167 20.9748 34.5021 20.8805 34.451 20.8009C34.3998 20.7219 34.3267 20.6613 34.239 20.6284L19.5291 16.0101C19.4195 15.9838 19.3026 16.0005 19.2076 16.0583C19.1126 16.1153 19.0395 16.2088 19.0103 16.3177L17.3661 21.5645L0.281212 75.9102C0.259289 75.962 0.251953 76.0176 0.251953 76.0738C0.251953 76.1294 0.266604 76.1849 0.288526 76.2353C0.317756 76.2865 0.346997 76.3325 0.390841 76.3705C0.427379 76.4085 0.478488 76.4385 0.529641 76.4582L75.3582 99.9883C75.4678 100.015 75.5847 99.9963 75.6797 99.9371C75.782 99.8787 75.8477 99.7837 75.877 99.6741L92.8231 45.7588C92.8596 45.6521 92.8596 45.5352 92.8084 45.4314C92.7646 45.3277 92.6769 45.2465 92.5746 45.2034L34.4071 26.9347C34.3194 26.9026 34.2464 26.8405 34.1952 26.7594C34.1514 26.6775 34.1294 26.5825 34.144 26.4897Z" fill="#1A67BB"/>
<path d="M8.79492 52.2996L56.1692 85.3513L98.5965 24.5385L63.4256 0L43.14 3.07646L8.79492 52.2996Z" fill="#DADDDF"/>
<path opacity="0.2" d="M63.4252 0L43.1396 3.07646L55.3358 11.5896L63.4252 0Z" fill="black"/>
<g opacity="0.2">
<path opacity="0.2" d="M86.904 31.4967L60.5605 13.1213L59.4717 14.6859L85.8078 33.0605L86.904 31.4967Z" fill="black"/>
<path opacity="0.2" d="M84.1496 35.4478L57.8134 17.0725L56.7246 18.637L83.0608 37.0124L84.1496 35.4478Z" fill="black"/>
<path opacity="0.2" d="M81.4167 39.3866L55.0732 21.0112L53.9844 22.5758L80.3205 40.9504L81.4167 39.3866Z" fill="black"/>
<path opacity="0.2" d="M78.6542 43.3305L40.0634 16.409L38.9746 17.9735L77.5654 44.8942L78.6542 43.3305Z" fill="black"/>
<path opacity="0.2" d="M75.8993 47.2684L37.3086 20.3477L36.2197 21.9115L74.8105 48.833L75.8993 47.2684Z" fill="black"/>
<path opacity="0.2" d="M73.1591 51.202L34.5684 24.2813L33.4795 25.8451L72.0703 52.7666L73.1591 51.202Z" fill="black"/>
<path opacity="0.2" d="M70.3963 55.1539L31.8129 28.2332L30.7168 29.797L69.3075 56.7185L70.3963 55.1539Z" fill="black"/>
<path opacity="0.2" d="M67.6634 59.0927L29.0727 32.1712L27.9766 33.7357L66.5673 60.6564L67.6634 59.0927Z" fill="black"/>
<path opacity="0.2" d="M64.909 63.0263L26.3183 36.1048L25.2295 37.6693L63.8202 64.59L64.909 63.0263Z" fill="black"/>
<path opacity="0.2" d="M62.1537 66.9781L23.5629 40.0566L22.4668 41.6212L61.0576 68.5419L62.1537 66.9781Z" fill="black"/>
<path opacity="0.2" d="M59.4062 70.9162L20.8154 43.9947L19.7266 45.5592L58.3174 72.4799L59.4062 70.9162Z" fill="black"/>
<path opacity="0.2" d="M56.6513 74.8563L18.0605 47.9356L16.9717 49.4994L55.5625 76.4208L56.6513 74.8563Z" fill="black"/>
</g>
<path d="M0.310511 76.3924L75.139 99.9151C75.1974 99.929 75.2559 99.9305 75.3143 99.9202C75.3801 99.9093 75.4313 99.8859 75.4825 99.8523C75.5336 99.8186 75.5774 99.7755 75.6066 99.7244C75.6432 99.674 75.6652 99.617 75.6725 99.557L86.0783 48.5728C86.1075 48.472 86.0929 48.3646 86.0417 48.2725C85.9979 48.1797 85.9176 48.1095 85.8152 48.0759L26.3982 29.3834C26.3178 29.3556 26.252 29.3037 26.2008 29.2358C26.157 29.1678 26.1278 29.0867 26.1278 29.0034L25.8867 23.8005C25.8867 23.7172 25.8574 23.6361 25.8135 23.5681C25.7624 23.5009 25.6967 23.449 25.6163 23.4205L12.1193 19.1822C12.0609 19.1683 12.0024 19.1668 11.9366 19.1778C11.8782 19.1888 11.827 19.2114 11.7759 19.245C11.7247 19.2786 11.6809 19.3225 11.6516 19.3729C11.6151 19.424 11.5932 19.481 11.5859 19.5402L0.0839366 75.8881C0.0547068 75.9853 0.0620356 76.0891 0.10588 76.1819C0.149725 76.274 0.222821 76.3485 0.310511 76.3924Z" fill="#4D61FC"/>
<path d="M0.310511 76.3924L75.139 99.9151C75.1974 99.929 75.2559 99.9305 75.3143 99.9202C75.3801 99.9093 75.4313 99.8859 75.4825 99.8523C75.5336 99.8186 75.5774 99.7755 75.6066 99.7244C75.6432 99.674 75.6652 99.617 75.6725 99.557L86.0783 48.5728C86.1075 48.472 86.0929 48.3646 86.0417 48.2725C85.9979 48.1797 85.9176 48.1095 85.8152 48.0759L26.3982 29.3834C26.3178 29.3556 26.252 29.3037 26.2008 29.2358C26.157 29.1678 26.1278 29.0867 26.1278 29.0034L25.8867 23.8005C25.8867 23.7172 25.8574 23.6361 25.8135 23.5681C25.7624 23.5009 25.6967 23.449 25.6163 23.4205L12.1193 19.1822C12.0609 19.1683 12.0024 19.1668 11.9366 19.1778C11.8782 19.1888 11.827 19.2114 11.7759 19.245C11.7247 19.2786 11.6809 19.3225 11.6516 19.3729C11.6151 19.424 11.5932 19.481 11.5859 19.5402L0.0839366 75.8881C0.0547068 75.9853 0.0620356 76.0891 0.10588 76.1819C0.149725 76.274 0.222821 76.3485 0.310511 76.3924Z" fill="#2982E2"/>
</svg>
