<svg width="81" height="100" viewBox="0 0 81 100" fill="none" xmlns="http://www.w3.org/2000/svg">
<path opacity="0.5" d="M8.88967 0H75.2865C76.5542 0 77.7698 0.503283 78.6658 1.40002C79.5626 2.29606 80.0658 3.51166 80.0658 4.77934V95.2207C80.0658 96.4883 79.5626 97.7039 78.6658 98.6C77.7698 99.4967 76.5542 100 75.2865 100H8.88967C7.62199 100 6.40637 99.4967 5.51033 98.6C4.61359 97.7039 4.11035 96.4883 4.11035 95.2207V4.76525C4.11387 3.50038 4.61924 2.2883 5.51527 1.39508C6.41131 0.501861 7.6248 0 8.88967 0Z" fill="#2982E2"/>
<path d="M4.77936 0H71.1762C72.4439 0 73.6595 0.503283 74.5555 1.40002C75.4523 2.29606 75.9555 3.51166 75.9555 4.77934V95.2207C75.9555 96.4883 75.4523 97.7039 74.5555 98.6C73.6595 99.4967 72.4439 100 71.1762 100H4.77936C3.51168 100 2.29606 99.4967 1.40002 98.6C0.503987 97.7039 0 96.4883 0 95.2207V4.76525C0.00422327 3.50038 0.508927 2.2883 1.40496 1.39508C2.301 0.501861 3.51449 0 4.77936 0Z" fill="#2982E2"/>
<path d="M37.9811 87.6327C35.0185 87.6327 32.1769 86.4558 30.0822 84.361C27.9874 82.2656 26.8105 79.4247 26.8105 76.4621C26.8105 73.4995 27.9874 70.6579 30.0822 68.5632C32.1769 66.4684 35.0185 65.2916 37.9811 65.2916C40.9437 65.2916 43.7853 66.4684 45.88 68.5632C47.9747 70.6579 49.1516 73.4995 49.1516 76.4621C49.1516 79.4247 47.9747 82.2656 45.88 84.361C43.7853 86.4558 40.9437 87.6327 37.9811 87.6327Z" fill="white"/>
<path d="M35.6446 81.6007L31.3791 77.3352C31.2742 77.2212 31.2158 77.072 31.2158 76.9164C31.2158 76.7615 31.2742 76.6123 31.3791 76.4976L32.4976 75.3784C32.6123 75.2735 32.7615 75.2158 32.9171 75.2158C33.0719 75.2158 33.2212 75.2735 33.3352 75.3784L36.081 78.1306L42.6764 71.5001C42.7904 71.3952 42.9396 71.3375 43.0952 71.3375C43.25 71.3375 43.3992 71.3952 43.514 71.5001L44.6332 72.6192C44.738 72.734 44.7957 72.8832 44.7957 73.038C44.7957 73.1936 44.738 73.3428 44.6332 73.4568L36.4822 81.6078C36.4287 81.6662 36.3633 81.7126 36.2915 81.7443C36.219 81.776 36.1408 81.7915 36.0613 81.7915C35.9825 81.7908 35.9043 81.7732 35.8325 81.7401C35.7607 81.7077 35.6967 81.6598 35.6446 81.6007Z" fill="#2982E2"/>
<path d="M61.9202 18.7028H14.0565C13.3751 18.7028 12.7212 18.4318 12.2398 17.9496C11.7576 17.4682 11.4873 16.815 11.4873 16.1336C11.4873 15.4515 11.7576 14.7984 12.2398 14.3169C12.7212 13.8347 13.3751 13.5645 14.0565 13.5645H61.9202C62.6016 13.5645 63.2548 13.8347 63.7369 14.3169C64.2184 14.7984 64.4893 15.4515 64.4893 16.1336C64.49 16.4708 64.4239 16.8051 64.2951 17.1176C64.1663 17.4295 63.9776 17.7131 63.7383 17.9517C63.4997 18.191 63.216 18.3797 62.9042 18.5085C62.5917 18.6373 62.2574 18.7035 61.9202 18.7028Z" fill="white"/>
<path d="M62.9193 25.431H13.0284C12.1655 25.431 11.4658 26.1307 11.4658 26.9936C11.4658 27.8566 12.1655 28.5563 13.0284 28.5563H62.9193C63.7823 28.5563 64.4819 27.8566 64.4819 26.9936C64.4819 26.1307 63.7823 25.431 62.9193 25.431Z" fill="white"/>
<path d="M62.9193 32.7585H13.0284C12.1655 32.7585 11.4658 33.4582 11.4658 34.3212C11.4658 35.1841 12.1655 35.8838 13.0284 35.8838H62.9193C63.7823 35.8838 64.4819 35.1841 64.4819 34.3212C64.4819 33.4582 63.7823 32.7585 62.9193 32.7585Z" fill="white"/>
<path d="M62.9193 40.0929H13.0284C12.1655 40.0929 11.4658 40.7926 11.4658 41.6555C11.4658 42.5185 12.1655 43.2181 13.0284 43.2181H62.9193C63.7823 43.2181 64.4819 42.5185 64.4819 41.6555C64.4819 40.7926 63.7823 40.0929 62.9193 40.0929Z" fill="white"/>
<path d="M62.9193 47.4203H13.0284C12.1655 47.4203 11.4658 48.12 11.4658 48.983C11.4658 49.8459 12.1655 50.5456 13.0284 50.5456H62.9193C63.7823 50.5456 64.4819 49.8459 64.4819 48.983C64.4819 48.12 63.7823 47.4203 62.9193 47.4203Z" fill="white"/>
</svg>
