<svg width="70" height="100" viewBox="0 0 70 100" fill="none" xmlns="http://www.w3.org/2000/svg">
<path d="M33.2999 68.8046L26.7967 67.6766L20.297 66.5318L16.9685 71.777C13.4221 77.378 12.9774 83.8566 15.8233 90.2902C17.3569 93.7647 19.3413 96.8053 21.6947 97.2135C24.0481 97.6216 26.9318 95.4216 29.5432 92.6642C34.3786 87.5385 36.1409 81.3015 34.6777 74.8345L33.3013 68.7804L33.2999 68.8046Z" fill="#2982E2"/>
<path opacity="0.2" d="M32.0774 68.5732L26.8087 67.6576L21.542 66.7495L18.8508 70.9993C15.9776 75.5317 15.6244 80.7687 17.9222 85.9852C19.1652 88.8041 20.7718 91.2639 22.6762 91.5942C24.5805 91.9244 26.9175 90.1405 29.0315 87.9089C32.9516 83.762 34.35 78.697 33.1883 73.4734L32.0774 68.5732Z" fill="white"/>
<path opacity="0.2" d="M30.8376 68.3586L26.808 67.6581L22.7804 66.965L20.7244 70.2119C18.5264 73.6833 18.2754 77.7035 20.0117 81.6828C20.9574 83.836 22.1911 85.7178 23.6464 85.9701C25.1017 86.2225 26.8893 84.8593 28.5085 83.1488C31.5087 79.9779 32.5705 76.1132 31.6875 72.1075L30.8376 68.3586Z" fill="white"/>
<path d="M29.5984 68.1429L26.808 67.6576L24.0196 67.1796L22.5961 69.4285C21.8444 70.6005 21.4006 71.9433 21.3166 73.3345C21.2279 74.7229 21.5009 76.1132 22.1026 77.3674C22.7603 78.8603 23.6137 80.166 24.62 80.3404C25.6262 80.5149 26.8671 79.5678 27.9862 78.3878C28.9712 77.4074 29.6866 76.1901 30.0701 74.8543C30.4533 73.5189 30.492 72.1085 30.1793 70.7547L29.5903 68.157L29.5984 68.1429Z" fill="white"/>
<path d="M43.3242 48.3882L51.4064 62.8668C51.4721 62.9804 51.4954 63.1133 51.4759 63.2447L50.0128 71.6931C50.0079 71.7234 49.9971 71.7529 49.977 71.7769C49.9616 71.8036 49.9375 71.8235 49.906 71.8347C49.8792 71.8487 49.8502 71.8557 49.82 71.8538C49.7848 71.8498 49.7583 71.8414 49.7307 71.8242L40.4177 66.2909L43.3242 48.3882Z" fill="#2982E2"/>
<path opacity="0.2" d="M44.3692 50.2611L41.4621 67.0816L40.4411 66.3045L43.3242 48.3882L44.3692 50.2611Z" fill="black"/>
<path d="M18.6339 44.1207L6.15601 55.0527C6.05178 55.1358 5.98327 55.2544 5.96374 55.3857L4.50059 63.8342C4.49535 63.8649 4.49668 63.8951 4.50515 63.9238C4.51832 63.9551 4.53447 63.9813 4.55413 64.0014C4.57849 64.0242 4.60665 64.0405 4.63389 64.0475C4.66555 64.0576 4.69631 64.0585 4.72536 64.0515L15.3139 61.9597L18.6339 44.1207Z" fill="#2982E2"/>
<path opacity="0.2" d="M16.9103 45.5142L14.0051 62.342L15.2322 61.9498L18.5261 44.1019L16.9103 45.5142Z" fill="black"/>
<path d="M38.126 1.95378C36.0934 1.61824 31.4959 6.25587 26.5734 14.4894C23.6714 19.3317 21.5536 24.603 20.3121 30.1113L14.1057 67.941L24.075 69.5755L29.8514 70.5216L39.8234 72.1514L45.4459 37.8244C46.001 34.4689 46.2324 31.0678 46.138 27.6675C46.054 24.26 45.695 20.8633 45.0708 17.5142C43.2523 8.15292 40.152 2.2792 38.1166 1.94835" fill="#B2B6BB"/>
<path d="M38.1256 1.95403C36.5625 1.63939 33.4404 4.4147 29.8393 9.47126L43.5529 11.4664C41.8055 5.4482 40.1371 2.35866 38.1256 1.95403Z" fill="#2982E2"/>
<g opacity="0.3">
<path opacity="0.3" d="M40.534 66.9006L15.0748 62.5025L15.0066 62.8914L40.4657 67.2896L40.534 66.9006Z" fill="black"/>
</g>
<g opacity="0.3">
<path opacity="0.3" d="M40.4004 67.6857L14.9459 63.2902L14.8777 63.6792L40.3322 68.0747L40.4004 67.6857Z" fill="black"/>
</g>
<g opacity="0.3">
<path opacity="0.3" d="M40.2627 68.465L14.8082 64.0696L14.74 64.4586L40.1992 68.8567L40.2627 68.465Z" fill="black"/>
</g>
<g opacity="0.3">
<path opacity="0.3" d="M40.1307 69.2471L14.6715 64.8489L14.6033 65.2379L40.0625 69.636L40.1307 69.2471Z" fill="black"/>
</g>
<g opacity="0.3">
<path opacity="0.3" d="M39.9969 70.0206L14.538 65.622L14.4695 66.0114L39.9287 70.4096L39.9969 70.0206Z" fill="black"/>
</g>
<g opacity="0.3">
<path opacity="0.3" d="M39.8592 70.7997L14.4003 66.401L14.3365 66.7932L39.791 71.1887L39.8592 70.7997Z" fill="black"/>
</g>
<g opacity="0.3">
<path opacity="0.3" d="M39.7274 71.5804L14.2682 67.1822L14.2046 67.5739L39.6591 71.9694L39.7274 71.5804Z" fill="black"/>
</g>
<path opacity="0.3" d="M31.6338 51.4136L29.3291 64.7858" stroke="black" stroke-width="0.73" stroke-miterlimit="10"/>
<path opacity="0.3" d="M37.1113 33.6508L33.9779 51.8165" stroke="black" stroke-width="0.73" stroke-miterlimit="10"/>
<path d="M34.6113 35.8257C38.8915 35.3013 41.9294 31.4042 41.4036 27.1263C40.8779 22.8485 36.9858 19.8084 32.7053 20.3333C28.4298 20.8604 25.3872 24.7547 25.9129 29.0326C26.4387 33.3105 30.3355 36.3532 34.6113 35.8257Z" fill="white"/>
<path d="M32.2316 36.4054C30.2225 36.0616 28.4091 34.9996 27.1276 33.4173C25.8416 31.8318 25.1798 29.8369 25.2605 27.8015C25.3414 25.7657 26.1597 23.8285 27.563 22.3511C28.9663 20.8736 30.8592 19.9565 32.8865 19.7705C34.9135 19.585 36.9417 20.145 38.5884 21.344C40.2395 22.5461 41.3899 24.3016 41.8366 26.2899C42.2836 28.2778 41.9935 30.3618 41.0173 32.1502C40.0407 33.9391 38.4476 35.3119 36.5355 36.0134C35.1618 36.5187 33.677 36.6533 32.2316 36.4054ZM34.8528 21.0333C33.7625 20.8422 32.6389 20.9034 31.5765 21.2162C30.5094 21.5263 29.5333 22.0797 28.7181 22.831C27.9031 23.5818 27.2725 24.5117 26.8703 25.544C26.4729 26.5791 26.3182 27.6917 26.4189 28.7955C26.5196 29.8993 26.8737 30.9649 27.4537 31.9101C28.0336 32.8554 28.8233 33.654 29.764 34.2452C30.6997 34.8343 31.7635 35.2014 32.867 35.3157C33.9708 35.4295 35.0848 35.2872 36.1219 34.8991C37.4616 34.4093 38.6246 33.5323 39.4698 32.3824C40.3101 31.2303 40.7915 29.8548 40.8514 28.4296C40.9115 27.0041 40.5447 25.5922 39.8029 24.3747C39.0612 23.1572 37.971 22.1857 36.6782 21.5869C36.1013 21.3189 35.4929 21.1271 34.8637 21.0146L34.8528 21.0333Z" fill="#2982E2"/>
<path opacity="0.3" d="M33.4515 40.812C33.7376 40.9772 34.1007 40.8791 34.2653 40.5939C34.4297 40.3092 34.3334 39.9453 34.0472 39.7801C33.7611 39.615 33.3978 39.7135 33.2334 39.9982C33.0687 40.2833 33.1654 40.6468 33.4515 40.812Z" stroke="black" stroke-width="0.73" stroke-miterlimit="10"/>
<path opacity="0.3" d="M32.4436 46.6652C32.7297 46.8303 33.0928 46.7323 33.2575 46.4471C33.4219 46.1624 33.3255 45.7984 33.0394 45.6333C32.7533 45.4681 32.3899 45.5666 32.2256 45.8513C32.0609 46.1365 32.1575 46.5 32.4436 46.6652Z" stroke="black" stroke-width="0.73" stroke-miterlimit="10"/>
<path opacity="0.3" d="M33.2297 56.0371C33.5159 56.2023 33.8789 56.1042 34.0436 55.819C34.2079 55.5343 34.1116 55.1704 33.8255 55.0052C33.5394 54.84 33.1761 54.9386 33.0117 55.2233C32.8471 55.5084 32.9436 55.8719 33.2297 56.0371Z" stroke="black" stroke-width="0.73" stroke-miterlimit="10"/>
<path opacity="0.3" d="M32.2229 61.8852C32.509 62.0504 32.8721 61.9523 33.0364 61.6676C33.2011 61.3824 33.1048 61.0185 32.8187 60.8533C32.5326 60.6881 32.1692 60.7867 32.0046 61.0718C31.8402 61.3565 31.9368 61.72 32.2229 61.8852Z" stroke="black" stroke-width="0.73" stroke-miterlimit="10"/>
<path opacity="0.3" d="M17.7869 49.0223L42.4799 53.2852" stroke="black" stroke-width="0.73" stroke-miterlimit="10"/>
</svg>
