<svg width="71" height="100" viewBox="0 0 71 100" fill="none" xmlns="http://www.w3.org/2000/svg">
<path d="M24.5412 45.1128L6.33927 91.9644L16.0506 87.0917L20.8074 96.0861L31.7485 48.2268L24.5412 45.1128Z" fill="#DADDDF"/>
<path d="M43.2446 45.4976L59.5059 93.052L50.0063 87.784L44.8845 96.581L35.9114 48.3129L43.2446 45.4976Z" fill="#DADDDF"/>
<path d="M27.646 57.5838C40.7453 61.0938 54.2158 53.3188 57.7264 40.2168C61.2372 27.1143 53.4588 13.6463 40.3595 10.1364C27.2602 6.62645 13.7898 14.4008 10.279 27.5033C6.76835 40.6053 14.5467 54.0739 27.646 57.5838Z" fill="#2982E2"/>
<path opacity="0.2" d="M45.8108 53.0302C45.1886 53.7328 44.6239 54.4822 44.112 55.2696C43.3245 56.4584 42.5864 57.5414 41.7564 57.8439C40.9265 58.1465 39.6819 57.75 38.4269 57.3927L37.5388 57.1548L38.3267 61.3973C39.8594 61.9199 41.5221 61.9574 43.0789 61.5018C45.0869 60.773 46.2774 59.0204 47.317 57.4652L45.8108 53.0302Z" fill="black"/>
<path opacity="0.2" d="M29.6812 57.2754L29.0648 57.4601C27.8124 57.8244 26.515 58.2257 25.7437 57.97C24.9723 57.7143 24.1467 56.5903 23.3446 55.4305C22.7901 54.5743 22.1647 53.774 21.4597 53.0357L19.8483 57.1952L20.1556 57.6415C21.2268 59.1813 22.4388 60.9269 24.4686 61.6317C25.0261 61.8238 25.6142 61.9275 26.2067 61.9365C27.047 61.9349 27.882 61.822 28.6901 61.6011L29.6812 57.2754Z" fill="black"/>
<path d="M26.6129 60.4212C26.0204 60.4122 25.4323 60.3085 24.8749 60.1164C22.8451 59.4116 21.633 57.6661 20.5619 56.1262C20.0713 55.3187 19.47 54.5851 18.7733 53.9463C17.9582 53.436 17.0764 53.0443 16.1528 52.7822C14.392 52.1704 12.4014 51.476 11.1894 49.7305C9.97733 47.985 10.0203 45.9178 10.0582 44.0522C10.1295 43.081 10.0688 42.1059 9.86921 41.1531C9.51794 40.2961 9.05353 39.4955 8.47765 38.7715C7.39517 37.2216 6.17012 35.4726 6.22197 33.2679C6.27382 31.0631 7.56308 29.3859 8.7067 27.8866C9.30824 27.1827 9.8057 26.3971 10.1923 25.5551C10.4307 24.6132 10.5367 23.6429 10.5032 22.6709C10.546 20.8136 10.5911 18.7121 11.8656 17.0379C13.14 15.3637 15.1693 14.7386 16.951 14.2012C17.8862 13.9758 18.7798 13.619 19.6139 13.144C20.337 12.535 20.9682 11.825 21.4942 11.0372C22.5969 9.53395 23.9092 7.84891 25.9663 7.22428C28.0234 6.59966 29.9121 7.30869 31.6485 7.90694C32.5686 8.28647 33.5386 8.53237 34.5257 8.63589C35.5175 8.56501 36.4973 8.35651 37.4354 8.01578C39.1941 7.48617 41.1884 6.88673 43.1546 7.56756C45.1209 8.24839 46.3964 10.0179 47.4593 11.5625C47.8868 12.4225 48.5116 13.1729 49.2733 13.7521C50.0414 14.3331 50.9293 14.7285 51.8749 14.9084C53.6292 15.5184 55.6263 16.2145 56.8401 17.9535C58.0538 19.6925 58.0026 21.7645 57.9647 23.63C57.8934 24.6012 57.9606 25.5781 58.1602 26.5309C58.5048 27.3868 58.9757 28.1891 59.5518 28.9125C60.6277 30.4606 61.851 32.2161 61.8075 34.4161C61.7639 36.6161 60.4646 38.3046 59.321 39.8039C58.7138 40.5028 58.2168 41.2865 57.8306 42.1272C57.5914 43.0723 57.4914 44.0463 57.5245 45.0197C57.4836 46.8704 57.4318 48.9702 56.1639 50.6461C54.8959 52.3221 52.8602 52.9454 51.0784 53.4828C50.131 53.623 49.2236 53.9797 48.4331 54.5266C47.6425 55.0741 46.9938 55.7975 46.5305 56.6385C45.4278 58.1418 44.1219 59.8286 42.0649 60.4532C40.0078 61.0778 38.1126 60.367 36.3762 59.7688C35.4834 59.3133 34.4999 59.0658 33.4974 59.0457C32.5015 59.0273 31.5079 59.2356 30.5976 59.6552C29.3131 60.1131 27.9701 60.3712 26.6129 60.4212ZM27.6363 10.8913C27.4487 10.8865 27.2605 10.9095 27.0793 10.959C26.2337 11.2153 25.432 12.2743 24.585 13.3981C23.8297 14.5192 22.8987 15.5121 21.8296 16.3413C20.6697 17.0656 19.3994 17.6015 18.0723 17.9311C16.7323 18.3349 15.468 18.717 14.9481 19.4036C14.4282 20.0901 14.4004 21.4475 14.3802 22.7508C14.4253 24.1235 14.2471 25.4938 13.8593 26.8106C13.3534 28.0455 12.6606 29.1945 11.7998 30.2131C10.9362 31.3465 10.1196 32.4085 10.1041 33.3282C10.0887 34.2479 10.8525 35.3415 11.6677 36.5048C12.4903 37.5616 13.1405 38.7394 13.5948 39.9957C13.9224 41.3327 14.0426 42.7129 13.9475 44.0865C13.9219 45.4095 13.9233 46.7886 14.3823 47.4785C14.8414 48.1684 16.1141 48.6425 17.4514 49.0848C18.7822 49.3945 20.0318 49.9812 21.1257 50.8091C22.2133 51.6345 23.1157 52.6812 23.7744 53.8795C24.5782 55.0328 25.3338 56.1311 26.1735 56.419C27.0132 56.707 28.2422 56.2735 29.4947 55.9092C30.8116 55.4348 32.1968 55.1754 33.5925 55.1385C34.9874 55.2351 36.3588 55.5501 37.6601 56.0744C38.8959 56.5035 40.1774 56.9449 40.9881 56.7142C41.7988 56.4835 42.6353 55.3988 43.4872 54.2833C44.243 53.1602 45.1746 52.1648 46.2442 51.3336C47.4044 50.608 48.6749 50.0721 50.0016 49.7438C51.3416 49.34 52.5993 48.9561 53.1258 48.2713C53.6522 47.5865 53.6735 46.2274 53.6872 44.9223C53.649 43.5501 53.8268 42.1811 54.2081 40.8625C54.7146 39.6251 55.408 38.4741 56.2759 37.4552C57.1377 36.3284 57.9494 35.2581 57.9714 34.3401C57.9934 33.4221 57.2166 32.3251 56.408 31.1636C55.5848 30.1088 54.9346 28.9309 54.4809 27.6727C54.1529 26.3369 54.0329 24.9561 54.1282 23.5818C54.1472 22.2571 54.1523 20.8797 53.6932 20.1898C53.2342 19.4999 51.9614 19.0259 50.6224 18.5901C49.3112 18.2073 48.0626 17.6173 46.9326 16.8456C45.8928 15.972 45.0073 14.9411 44.2947 13.7871C43.4909 12.6339 42.7401 11.5438 41.9022 11.2493C41.0642 10.9548 39.8334 11.3949 38.581 11.7592C37.2591 12.226 35.8739 12.4854 34.4766 12.5281C33.0821 12.4302 31.7114 12.1126 30.4173 11.5874C29.5272 11.2264 28.5892 10.9919 27.6363 10.8913Z" fill="#2982E2"/>
<path d="M28.525 54.3055C39.8155 57.3308 51.4232 50.6307 54.449 39.3383C57.4746 28.0465 50.7723 16.4396 39.4818 13.4143C28.1913 10.389 16.5834 17.0897 13.5577 28.3815C10.5319 39.6739 17.2345 51.2802 28.525 54.3055Z" stroke="white" stroke-width="1.91" stroke-miterlimit="10"/>
<path d="M34.2322 22.7094L37.7054 30.121L45.7854 31.4671L39.8009 37.0585L41.0193 45.1537L33.8556 41.1975L26.5326 44.8624L28.0781 36.8219L22.3351 30.9857L30.4597 29.9712L34.2322 22.7094Z" fill="#F4F4F4"/>
</svg>
