<svg width="60" height="60" viewBox="0 0 60 60" fill="none" xmlns="http://www.w3.org/2000/svg">
<path d="M52.1178 14.998C51.249 10.7441 48.9308 6.92345 45.5588 4.18828C42.1869 1.45311 37.9702 -0.0270652 33.6285 0.000374763C29.2868 0.0278147 25.0892 1.56117 21.7521 4.33874C18.415 7.11631 16.1453 10.9659 15.3303 15.2305C11.8697 15.8465 8.76557 17.7368 6.62997 20.5286C4.49436 23.3204 3.48234 26.811 3.79348 30.3122C4.10462 33.8133 5.71634 37.0708 8.31079 39.4423C10.9052 41.8137 14.2941 43.127 17.8091 43.123H20.6216V39.373H17.8091C15.1326 39.38 12.5584 38.3454 10.6313 36.4881C8.70412 34.6308 7.57517 32.0966 7.48333 29.4217C7.39149 26.7468 8.34395 24.1411 10.1392 22.156C11.9344 20.1709 14.4316 18.9622 17.1022 18.7855L18.6716 18.6787L18.8403 17.1168C19.2201 13.629 20.8115 10.385 23.3372 7.94991C25.8629 5.51483 29.1629 4.04304 32.6623 3.79096C36.1616 3.53887 39.6385 4.52246 42.4872 6.57036C45.3359 8.61827 47.3758 11.6007 48.2516 14.998H52.1178Z" fill="#2982E2"/>
<path d="M50.625 41.2485C49.2998 41.2545 48.0201 41.7324 47.0156 42.5967L39.3262 37.9823C39.3393 37.821 39.375 37.6635 39.375 37.4985C39.375 37.3335 39.3393 37.1798 39.3262 37.0167L47.0175 32.4042C48.022 33.2668 49.3009 33.7434 50.625 33.7485C51.7938 33.7567 52.9366 33.4032 53.8966 32.7363C54.8565 32.0693 55.5867 31.1218 55.9868 30.0235C56.387 28.9253 56.4376 27.7301 56.1317 26.602C55.8259 25.4738 55.1784 24.4679 54.2783 23.7223C53.3782 22.9766 52.2694 22.5276 51.104 22.437C49.9386 22.3463 48.7738 22.6184 47.7692 23.216C46.7645 23.8135 45.9694 24.7072 45.4927 25.7745C45.0161 26.8418 44.8813 28.0304 45.1068 29.1773L37.7718 33.5779C36.9918 32.7754 35.99 32.2237 34.8947 31.9937C33.7994 31.7636 32.6603 31.8655 31.6233 32.2863C30.5862 32.7071 29.6982 33.4277 29.073 34.356C28.4477 35.2843 28.1135 36.378 28.1133 37.4972C28.113 38.6164 28.4466 39.7102 29.0715 40.6388C29.6963 41.5673 30.5839 42.2884 31.6208 42.7097C32.6576 43.131 33.7966 43.2335 34.8921 43.0039C35.9875 42.7743 36.9895 42.2232 37.77 41.421L45.1068 45.8235C44.8915 46.9602 45.0321 48.1355 45.5095 49.1893C45.9868 50.2431 46.7777 51.1239 47.7741 51.7116C48.7705 52.2993 49.924 52.5653 51.0772 52.4732C52.2304 52.3811 53.3271 51.9355 54.2176 51.1972C55.1082 50.4588 55.7493 49.4637 56.0534 48.3475C56.3575 47.2314 56.3099 46.0486 55.9169 44.9605C55.524 43.8724 54.8049 42.9321 53.8579 42.2678C52.9108 41.6035 51.7818 41.2475 50.625 41.2485V41.2485ZM50.625 26.2485C50.9958 26.2485 51.3583 26.3585 51.6667 26.5645C51.975 26.7706 52.2153 27.0634 52.3572 27.406C52.4991 27.7486 52.5363 28.1256 52.4639 28.4893C52.3916 28.853 52.213 29.1871 51.9508 29.4494C51.6886 29.7116 51.3545 29.8902 50.9908 29.9625C50.627 30.0349 50.25 29.9977 49.9074 29.8558C49.5648 29.7139 49.272 29.4736 49.066 29.1652C48.8599 28.8569 48.75 28.4944 48.75 28.1235C48.75 27.6263 48.9475 27.1493 49.2991 26.7977C49.6508 26.4461 50.1277 26.2485 50.625 26.2485ZM33.75 39.3735C33.3791 39.3735 33.0166 39.2636 32.7083 39.0575C32.3999 38.8515 32.1596 38.5587 32.0177 38.2161C31.8758 37.8735 31.8386 37.4965 31.911 37.1327C31.9833 36.769 32.1619 36.4349 32.4241 36.1727C32.6864 35.9105 33.0204 35.7319 33.3842 35.6596C33.7479 35.5872 34.1249 35.6243 34.4675 35.7663C34.8101 35.9082 35.1029 36.1485 35.309 36.4568C35.515 36.7652 35.625 37.1277 35.625 37.4985C35.625 37.9958 35.4274 38.4727 35.0758 38.8244C34.7242 39.176 34.2472 39.3735 33.75 39.3735ZM50.625 48.7485C50.2541 48.7485 49.8916 48.6386 49.5833 48.4325C49.2749 48.2265 49.0346 47.9337 48.8927 47.5911C48.7508 47.2485 48.7136 46.8715 48.786 46.5077C48.8583 46.144 49.0369 45.8099 49.2991 45.5477C49.5614 45.2855 49.8954 45.1069 50.2592 45.0346C50.6229 44.9622 50.9999 44.9993 51.3425 45.1413C51.6851 45.2832 51.9779 45.5235 52.184 45.8318C52.39 46.1402 52.5 46.5027 52.5 46.8735C52.5 47.3708 52.3024 47.8477 51.9508 48.1994C51.5992 48.551 51.1222 48.7485 50.625 48.7485Z" fill="#2982E2"/>
</svg>
