<svg width="61" height="60" viewBox="0 0 61 60" fill="none" xmlns="http://www.w3.org/2000/svg">
<path fill-rule="evenodd" clip-rule="evenodd" d="M5.57367 0.0690511C3.47089 0.421057 1.62306 1.98006 0.865366 4.04157C0.636908 4.66318 0.605259 5.02503 0.561068 7.51756L0.511719 10.2997L0.865131 10.6531L1.21854 11.0066H5.85769H10.4968V30.6193C10.4968 52.9084 10.4127 51.0594 11.4749 52.094C11.8443 52.4537 12.2668 52.7386 12.5617 52.8266C13.1523 53.0029 45.9362 53.039 46.397 52.8638C46.6704 52.7599 46.7128 52.8321 47.9418 55.4908C49.662 59.2122 49.7581 59.3707 50.5049 59.7184C50.8393 59.8741 51.3239 60.0008 51.5818 60C52.1829 59.9982 52.9181 59.6633 53.2892 59.2223C53.4493 59.032 55.1351 55.5299 57.0354 51.4399C60.3621 44.2795 60.4903 43.9773 60.4883 43.3002L60.4862 42.5969L56.9366 36.7122C54.9642 33.4422 53.2318 30.6967 53.0375 30.5333C52.3307 29.9387 51.3913 29.8509 50.4979 30.2961C49.9097 30.5893 49.5859 30.9692 48.8752 32.2007C48.6537 32.5844 48.6508 32.4431 48.5924 18.7792L48.5334 4.96983L48.2718 4.19947C47.7489 2.66016 46.6563 1.37299 45.2825 0.677882C43.8557 -0.0439471 44.9095 -0.00983668 24.5044 0.00575334C14.2537 0.013607 5.73484 0.042091 5.57367 0.0690511ZM8.07206 2.36594C8.94135 2.7639 9.71803 3.50343 10.1124 4.30836C10.4216 4.9397 10.4381 5.06172 10.4763 6.99184L10.5162 9.01385H6.52114H2.526V7.27691C2.526 4.99995 2.7262 4.27707 3.63136 3.28669C4.7692 2.04172 6.55502 1.67142 8.07206 2.36594ZM44.197 2.3684C45.0833 2.78312 45.9138 3.65136 46.2719 4.53752L46.5414 5.20426L46.574 20.5802L46.6067 35.9563L44.5944 39.3022C42.6836 42.4794 42.5818 42.6794 42.5733 43.269C42.5653 43.8285 42.7237 44.2347 44.172 47.3676C45.0561 49.2803 45.7795 50.8751 45.7795 50.9116C45.7795 50.9481 38.4504 50.978 29.4927 50.978H13.206L12.8771 50.6951L12.5481 50.4121L12.4895 27.5738C12.436 6.69703 12.4143 4.69413 12.2373 4.25515C11.9351 3.50554 11.5516 2.77808 11.2381 2.36008L10.9513 1.97748L27.2226 2.00843L43.4937 2.03937L44.197 2.3684ZM23.2736 10.0328C22.5583 10.3006 22.3431 11.1417 22.8581 11.6565L23.1457 11.9443H29.5448H35.9438L36.2315 11.6565C36.6041 11.284 36.606 10.7688 36.2364 10.3391L35.9536 10.0102L29.7015 9.98864C26.2629 9.97668 23.3703 9.99661 23.2736 10.0328ZM15.8798 17.3273C15.4104 17.7968 15.4582 18.4143 15.9959 18.8271C16.2667 19.035 42.8229 19.035 43.0937 18.8271C43.6314 18.4143 43.6792 17.7968 43.2097 17.3273L42.8671 16.9847H29.5448H16.2225L15.8798 17.3273ZM15.825 22.3128C15.4216 22.7161 15.4426 23.2379 15.8798 23.6751L16.2225 24.0178L29.4478 24.016C39.7912 24.0147 42.7363 23.9824 42.9627 23.8679C43.5962 23.5473 43.7098 22.7686 43.1978 22.2566C42.9699 22.0287 42.7523 22.0251 29.5395 22.0251H16.1126L15.825 22.3128ZM16.2722 27.0297C15.9147 27.1 15.5372 27.6109 15.5372 28.0243C15.5372 28.2302 15.6513 28.4796 15.825 28.6532L16.1126 28.9409H29.5265C42.1278 28.9409 42.9555 28.9285 43.1913 28.7358C43.3293 28.6229 43.4724 28.3421 43.5093 28.1116C43.5634 27.774 43.5191 27.6259 43.2815 27.3497L42.9867 27.0068L29.7601 26.9925C22.4856 26.9847 16.4159 27.0013 16.2722 27.0297ZM50.5409 46.6072C50.4801 46.6681 45.164 42.9364 45.038 42.7444C44.9747 42.6478 45.9067 40.9975 47.734 37.9701L50.5268 33.3434L50.5571 39.9521C50.5738 43.5869 50.5664 46.5817 50.5409 46.6072ZM55.497 38.1925C56.9893 40.6699 58.1693 42.7331 58.1195 42.7775C58.0472 42.8418 55.9219 44.3303 52.9005 46.4326L52.5781 46.6568V40.0612C52.5781 36.2734 52.6219 33.5129 52.681 33.5769C52.7376 33.6381 54.0047 35.7152 55.497 38.1925ZM24.8561 36.0836C24.0519 36.2794 23.2389 36.9109 22.8306 37.6568C22.6625 37.9639 22.6289 38.3525 22.6289 39.9886V41.952H21.5995C20.0049 41.9522 19.3864 42.3544 19.5857 43.2617C19.7429 43.9774 19.2665 43.9449 29.5709 43.9449C38.7842 43.9449 38.9856 43.9401 39.2123 43.7134C39.7389 43.1868 39.5982 42.4029 38.9267 42.1224C38.6755 42.0173 38.1244 41.9522 37.4882 41.9522H36.4569L36.5005 40.6785C36.5372 39.607 36.5079 39.3232 36.3158 38.8909C35.5835 37.2429 33.767 36.5543 32.205 37.3326C30.9561 37.955 30.4871 38.9418 30.5614 40.7913L30.6081 41.9522H29.5489L28.4898 41.9523V40.0474C28.4898 38.3149 28.4667 38.0994 28.2345 37.6657C27.5776 36.4384 26.1481 35.769 24.8561 36.0836ZM26.292 38.3834C26.5297 38.6535 26.5557 38.8045 26.5557 39.9131C26.5557 41.1898 26.409 41.7312 26.023 41.8794C25.6152 42.0358 25.1339 41.9476 24.8508 41.6644C24.5773 41.391 24.563 41.307 24.563 39.9752V38.5737L24.936 38.2598C25.3886 37.8789 25.8882 37.9245 26.292 38.3834ZM34.2388 39.3095C34.4937 39.5643 34.5266 39.6985 34.5266 40.4869C34.5266 41.2753 34.4937 41.4095 34.2388 41.6644C33.8874 42.0159 33.2646 42.0483 32.8779 41.7352C32.6658 41.5633 32.5991 41.3688 32.5581 40.8017C32.5296 40.4076 32.5395 39.9529 32.5801 39.7911C32.7691 39.0381 33.6978 38.7684 34.2388 39.3095ZM48.5718 47.7459C50.5037 49.0995 50.9513 49.3383 51.5487 49.3343C52.1492 49.3303 52.7106 49.0167 55.0397 47.3838C56.2324 46.5477 57.2693 45.8274 57.344 45.7831C57.4581 45.7154 56.4456 47.9412 52.2216 57.044C51.7482 58.0639 51.5424 58.2113 51.2387 57.7473C51.0526 57.4629 45.6623 45.8692 45.6623 45.7531C45.6623 45.7146 45.9128 45.8642 46.2191 46.0854C46.5254 46.3067 47.584 47.054 48.5718 47.7459Z" fill="#2982E2"/>
</svg>
