<svg width="60" height="60" viewBox="0 0 60 60" fill="none" xmlns="http://www.w3.org/2000/svg">
<path d="M59.43 24.7864C59.25 24.6674 57.75 23.5075 54.51 23.5075C53.67 23.5075 52.83 23.5967 51.99 23.7454C51.36 19.5815 47.85 17.4698 47.7 17.3805L46.83 16.8749L46.29 17.678C45.57 18.7487 45 19.9681 44.76 21.2173C44.16 23.5967 44.52 25.8571 45.75 27.7904C44.28 28.6232 41.88 28.8314 41.37 28.8314H1.86C0.84 28.8314 0 29.6641 0 30.7051C0 34.1255 0.54 37.5459 1.74 40.7581C3.09 44.2974 5.13 46.9147 7.74 48.5208C10.68 50.3054 15.51 51.3166 21 51.3166C23.37 51.3166 25.83 51.1084 28.26 50.6623C31.62 50.0674 34.86 48.9075 37.83 47.2122C40.2897 45.8177 42.4913 44.0172 44.34 41.8883C47.49 38.4084 49.35 34.4527 50.7 31.0323H51.27C54.69 31.0323 56.82 29.6642 57.99 28.5042C58.77 27.7904 59.34 26.9278 59.76 25.9166L60 25.2028L59.43 24.7864ZM5.55 27.7309H10.83C11.07 27.7309 11.31 27.5227 11.31 27.255V22.5557C11.31 22.3178 11.1 22.0798 10.83 22.0798H5.55C5.28 22.0798 5.07 22.288 5.07 22.5557V27.255C5.1 27.5227 5.28 27.7309 5.55 27.7309ZM12.84 27.7309H18.12C18.36 27.7309 18.6 27.5227 18.6 27.255V22.5557C18.6 22.3178 18.39 22.0798 18.12 22.0798H12.84C12.57 22.0798 12.36 22.288 12.36 22.5557V27.255C12.39 27.5227 12.57 27.7309 12.84 27.7309ZM20.25 27.7309H25.5C25.8 27.7309 26.01 27.5227 26.01 27.255V22.5557C26.01 22.3178 25.83 22.0798 25.5 22.0798H20.25C20.01 22.0798 19.8 22.288 19.8 22.5557V27.255C19.8 27.5227 19.98 27.7309 20.25 27.7309ZM27.57 27.7309H32.88C33.12 27.7309 33.33 27.5227 33.33 27.255V22.5557C33.33 22.3178 33.15 22.0798 32.88 22.0798H27.57C27.33 22.0798 27.12 22.288 27.12 22.5557V27.255C27.12 27.5227 27.33 27.7309 27.57 27.7309ZM12.84 21.0686H18.12C18.36 21.0686 18.6 20.8009 18.6 20.5332V15.8637C18.6 15.596 18.39 15.3878 18.12 15.3878H12.84C12.57 15.3878 12.36 15.5663 12.36 15.8637V20.5332C12.39 20.8009 12.57 21.0686 12.84 21.0686ZM20.25 21.0686H25.5C25.8 21.0686 26.01 20.8009 26.01 20.5332V15.8637C26.01 15.596 25.83 15.3878 25.5 15.3878H20.25C20.01 15.3878 19.8 15.5663 19.8 15.8637V20.5332C19.8 20.8009 19.98 21.0686 20.25 21.0686ZM27.57 21.0686H32.88C33.12 21.0686 33.33 20.8009 33.33 20.5332V15.8637C33.33 15.596 33.12 15.3878 32.88 15.3878H27.57C27.33 15.3878 27.12 15.5663 27.12 15.8637V20.5332C27.12 20.8009 27.33 21.0686 27.57 21.0686ZM27.57 14.2873H32.88C33.12 14.2873 33.33 14.0791 33.33 13.8115V9.17164C33.33 8.87421 33.12 8.66602 32.88 8.66602H27.57C27.33 8.66602 27.12 8.84447 27.12 9.17164V13.8115C27.12 14.0494 27.33 14.2873 27.57 14.2873ZM34.95 27.7309H40.23C40.5 27.7309 40.71 27.5227 40.71 27.255V22.5557C40.71 22.3178 40.5 22.0798 40.23 22.0798H34.95C34.71 22.0798 34.5 22.288 34.5 22.5557V27.255C34.5 27.5227 34.71 27.7309 34.95 27.7309Z" fill="#2982E2"/>
</svg>
