<svg width="60" height="60" viewBox="0 0 60 60" fill="none" xmlns="http://www.w3.org/2000/svg">
<path d="M37.8086 21.6712C39.9446 21.6062 41.9716 20.7002 43.4598 19.1453C44.948 17.5905 45.7804 15.5091 45.7804 13.3424C45.7804 11.1758 44.948 9.09435 43.4598 7.5395C41.9716 5.98465 39.9446 5.07867 37.8086 5.01367H21.3768C19.2408 5.07867 17.2138 5.98465 15.7256 7.5395C14.2373 9.09435 13.405 11.1758 13.405 13.3424C13.405 15.5091 14.2373 17.5905 15.7256 19.1453C17.2138 20.7002 19.2408 21.6062 21.3768 21.6712C19.2221 21.709 17.1683 22.6034 15.6578 24.1617C14.1472 25.72 13.3008 27.8175 13.3008 30.0024C13.3008 32.1873 14.1472 34.2848 15.6578 35.8431C17.1683 37.4014 19.2221 38.2958 21.3768 38.3337C19.2327 38.3869 17.194 39.2879 15.6961 40.8443C14.1982 42.4007 13.3597 44.4891 13.3597 46.6637C13.3597 48.8382 14.1982 50.9267 15.6961 52.483C17.194 54.0394 19.2327 54.9404 21.3768 54.9937C23.5558 54.9923 25.6452 54.114 27.1857 52.5515C28.7263 50.9891 29.592 48.8705 29.5927 46.6612V21.6712H37.8086Z" fill="#2982E2"/>
<path d="M37.8057 38.3299C42.3432 38.3299 46.0216 34.6005 46.0216 29.9999C46.0216 25.3994 42.3432 21.6699 37.8057 21.6699C33.2682 21.6699 29.5898 25.3994 29.5898 29.9999C29.5898 34.6005 33.2682 38.3299 37.8057 38.3299Z" fill="#2982E2"/>
</svg>
