<svg width="61" height="60" viewBox="0 0 61 60" fill="none" xmlns="http://www.w3.org/2000/svg">
<g clip-path="url(#clip0_186_1883)">
<path fill-rule="evenodd" clip-rule="evenodd" d="M-0.332031 0H59.668V60H-0.332031V0ZM45.5355 50.3C42.753 50.3 41.1805 48.85 39.973 46.875L35.3905 49.5375C37.0455 52.8075 40.428 55.3025 45.6655 55.3025C51.0205 55.3025 55.008 52.5225 55.008 47.445C55.008 42.7375 52.303 40.645 47.513 38.5875L46.103 37.985C43.683 36.935 42.6355 36.2525 42.6355 34.56C42.6355 33.1925 43.6855 32.145 45.3355 32.145C46.953 32.145 47.9955 32.8275 48.963 34.56L53.353 31.7425C51.4955 28.475 48.9205 27.2275 45.3355 27.2275C40.3005 27.2275 37.078 30.4475 37.078 34.6775C37.078 39.265 39.778 41.4375 43.848 43.17L45.258 43.775C47.8305 44.9 49.363 45.585 49.363 47.5175C49.363 49.1325 47.8705 50.3 45.5355 50.3ZM23.6855 50.2625C21.748 50.2625 20.9405 48.9375 20.0555 47.3625L15.4655 50.1425C16.7955 52.9575 19.4105 55.2925 23.923 55.2925C28.9205 55.2925 32.343 52.635 32.343 46.7975V27.5475H26.7055V46.7225C26.7055 49.54 25.5355 50.2625 23.683 50.2625H23.6855Z" fill="#2982E2"/>
</g>
<defs>
<clipPath id="clip0_186_1883">
<rect width="60" height="60" fill="white" transform="translate(0.5)"/>
</clipPath>
</defs>
</svg>
