<svg width="60" height="60" viewBox="0 0 60 60" fill="none" xmlns="http://www.w3.org/2000/svg">
<path fill-rule="evenodd" clip-rule="evenodd" d="M55.168 16.8517L29.168 1.67969L3.16797 16.8517V43.1477L7.19197 45.4957L15.42 42.1677C16.5272 41.7193 17.4754 40.9506 18.1431 39.9601C18.8109 38.9696 19.1677 37.8023 19.168 36.6077V15.9997H23.168V36.6077C23.1677 38.599 22.5729 40.5449 21.4597 42.1961C20.3466 43.8473 18.7658 45.1285 16.92 45.8757L11.56 48.0437L29.168 58.3197L55.168 43.1517V16.8517ZM27.168 23.9997C27.168 21.878 28.0108 19.8431 29.5111 18.3428C31.0114 16.8425 33.0462 15.9997 35.168 15.9997H39.836C43.884 15.9997 47.168 19.2797 47.168 23.3317V23.9997H43.168V23.3317C43.168 22.8941 43.0818 22.4608 42.9143 22.0566C42.7469 21.6523 42.5015 21.285 42.1921 20.9756C41.8826 20.6662 41.5153 20.4208 41.1111 20.2533C40.7068 20.0859 40.2735 19.9997 39.836 19.9997H35.168C34.1071 19.9997 33.0897 20.4211 32.3395 21.1713C31.5894 21.9214 31.168 22.9388 31.168 23.9997C31.168 25.0606 31.5894 26.078 32.3395 26.8281C33.0897 27.5783 34.1071 27.9997 35.168 27.9997H39.168C41.2897 27.9997 43.3245 28.8425 44.8248 30.3428C46.3251 31.8431 47.168 33.878 47.168 35.9997C47.168 38.1214 46.3251 40.1562 44.8248 41.6565C43.3245 43.1568 41.2897 43.9997 39.168 43.9997H35.168C33.0462 43.9997 31.0114 43.1568 29.5111 41.6565C28.0108 40.1562 27.168 38.1214 27.168 35.9997H31.168C31.168 37.0606 31.5894 38.078 32.3395 38.8281C33.0897 39.5783 34.1071 39.9997 35.168 39.9997H39.168C40.2288 39.9997 41.2463 39.5783 41.9964 38.8281C42.7465 38.078 43.168 37.0606 43.168 35.9997C43.168 34.9388 42.7465 33.9214 41.9964 33.1713C41.2463 32.4211 40.2288 31.9997 39.168 31.9997H35.168C33.0462 31.9997 31.0114 31.1568 29.5111 29.6565C28.0108 28.1562 27.168 26.1214 27.168 23.9997Z" fill="#2982E2"/>
</svg>
