<svg width="60" height="60" viewBox="0 0 60 60" fill="none" xmlns="http://www.w3.org/2000/svg">
<path d="M28.9865 5.00195C16.2919 5.00195 17.0835 10.5348 17.0835 10.5348L17.098 16.2676H29.2094V17.9883H12.2922C12.2922 17.9883 4.16797 17.0613 4.16797 29.9351C4.16797 42.8089 11.2569 42.3506 11.2569 42.3506H15.4857V36.3782C15.4857 36.3782 15.2586 29.2539 22.4642 29.2539H34.4756C34.4756 29.2539 41.225 29.3622 41.225 22.6962V11.6722C41.225 11.6722 42.2478 5.00195 28.9844 5.00195H28.9865ZM22.308 8.85577C23.512 8.85577 24.4869 9.83484 24.4869 11.0472C24.4869 12.2575 23.512 13.2366 22.308 13.2366C21.1018 13.2366 20.129 12.2575 20.129 11.0472C20.129 9.83484 21.1018 8.85577 22.308 8.85577Z" fill="#2982E2"/>
<path d="M29.3506 54.9972C42.0411 54.9972 41.2495 49.4643 41.2495 49.4643L41.2349 43.7315H29.1235V42.0109H46.0449C46.0449 42.0109 54.1691 42.9379 54.1691 30.064C54.1691 17.1902 47.0781 17.6485 47.0781 17.6485H42.8493V23.6209C42.8493 23.6209 43.0764 30.7452 35.8708 30.7452H23.8615C23.8615 30.7452 17.1121 30.6369 17.1121 37.303V48.327C17.1121 48.327 16.0872 54.9972 29.3506 54.9972ZM36.0291 51.1434C34.823 51.1434 33.8502 50.1643 33.8502 48.9519C33.8502 47.7416 34.823 46.7625 36.0291 46.7625C37.2332 46.7625 38.2081 47.7416 38.2081 48.9519C38.2081 50.1643 37.2332 51.1434 36.0291 51.1434Z" fill="#2982E2"/>
</svg>
