<svg width="60" height="60" viewBox="0 0 60 60" fill="none" xmlns="http://www.w3.org/2000/svg">
<path d="M37.0401 41.8582C35.5728 43.928 33.9739 45.9028 32.2529 47.7705C36.8346 52.1823 41.0984 54.2482 43.4605 52.8917C45.8281 51.538 46.1542 46.8436 44.595 40.7029C42.2576 41.2194 39.7174 41.6109 37.0401 41.8582ZM33.4504 42.0947C31.3724 42.18 29.2917 42.18 27.2136 42.0947C28.2467 43.4321 29.2907 44.6716 30.332 45.8025C31.3733 44.6716 32.4146 43.4321 33.4504 42.0947ZM47.2613 20.6365C54.564 22.7133 59.332 26.1655 59.332 30.3327C59.332 34.4998 54.564 37.952 47.2613 40.0288C49.0972 47.341 48.4697 53.1636 44.8334 55.2458C41.1944 57.3307 35.7961 54.9604 30.332 49.7277C24.868 54.9604 19.4697 57.3307 15.8307 55.2458C12.1944 53.1636 11.5641 47.341 13.4028 40.0288C6.10005 37.952 1.33203 34.4998 1.33203 30.3327C1.33203 26.1655 6.10005 22.7133 13.4028 20.6365C11.5668 13.3244 12.1944 7.50179 15.8307 5.41958C19.4697 3.33465 24.868 5.705 30.332 10.9377C35.7961 5.705 41.1944 3.33465 44.8334 5.41958C48.4697 7.50179 49.1 13.3244 47.2613 20.6365ZM44.595 19.9624C46.1569 13.8191 45.8281 9.12732 43.4633 7.77362C41.0984 6.41719 36.8346 8.48309 32.2557 12.8949C33.9747 14.7635 35.5727 16.7382 37.0401 18.8071C39.7201 19.0518 42.2576 19.4432 44.595 19.9624ZM16.0691 40.7029C14.5071 46.8463 14.836 51.538 17.2008 52.8917C19.5656 54.2482 23.8294 52.1823 28.4084 47.7705C26.6884 45.9027 25.0903 43.9279 23.6239 41.8582C21.0834 41.6329 18.56 41.2471 16.0691 40.7029ZM27.2136 18.5707C29.2917 18.4853 31.3724 18.4853 33.4504 18.5707C32.4653 17.2916 31.4249 16.0554 30.332 14.8656C29.2907 15.9964 28.2494 17.236 27.2136 18.5734V18.5707ZM23.6239 18.8071C25.0921 16.7373 26.692 14.7625 28.4139 12.8949C23.8294 8.48309 19.5629 6.41719 17.2035 7.77362C14.836 9.12732 14.5099 13.8218 16.0691 19.9624C18.4065 19.4459 20.9467 19.0545 23.6239 18.8071ZM35.5221 39.2487C37.4727 36.409 39.2066 33.4287 40.7093 30.3327C39.2066 27.2366 37.4727 24.2563 35.5221 21.4167C32.0669 21.1601 28.5972 21.1601 25.142 21.4167C23.1914 24.2563 21.4575 27.2366 19.9547 30.3327C21.4575 33.4287 23.1914 36.409 25.142 39.2487C28.5972 39.5053 32.0669 39.5053 35.5221 39.2487ZM39.0405 38.8926C40.7258 38.6751 42.3288 38.3951 43.8359 38.0662C43.3431 36.5325 42.7836 35.0206 42.1589 33.5348C41.1943 35.3617 40.154 37.1483 39.0405 38.8898V38.8926ZM21.6235 21.7701C19.9383 21.9875 18.3352 22.2675 16.8281 22.5964C17.294 24.0534 17.853 25.5702 18.5051 27.1278C19.4697 25.3009 20.5101 23.5144 21.6235 21.7728V21.7701ZM16.8281 38.0635C18.3352 38.3924 19.9383 38.6697 21.6235 38.8898C20.5101 37.1483 19.4697 35.3617 18.5051 33.5348C17.8802 35.0196 17.3207 36.5305 16.8281 38.0635ZM14.1482 37.3975C14.8634 35.1305 15.7923 32.7547 16.9158 30.33C15.8435 28.0346 14.9191 25.674 14.1482 23.2624C8.00452 24.994 4.07227 27.6225 4.07227 30.33C4.07227 33.0374 8.00452 35.666 14.1482 37.3975ZM43.8359 22.5964C42.2501 22.2534 40.6501 21.9777 39.0405 21.7701C40.154 23.5117 41.1943 25.2982 42.1589 27.1251C42.8111 25.5702 43.3701 24.0534 43.8359 22.5964ZM46.5159 23.2624C45.8007 25.5295 44.8718 27.9053 43.7483 30.33C44.8718 32.7547 45.8007 35.1305 46.5159 37.3975C52.6595 35.666 56.5918 33.0374 56.5918 30.33C56.5918 27.6225 52.6595 24.994 46.5159 23.2624ZM30.332 35.4431C29.6555 35.4431 28.9856 35.3109 28.3606 35.0541C27.7355 34.7972 27.1676 34.4208 26.6893 33.9463C26.2109 33.4717 25.8314 32.9084 25.5725 32.2883C25.3136 31.6683 25.1804 31.0038 25.1804 30.3327C25.1804 29.6616 25.3136 28.997 25.5725 28.377C25.8314 27.757 26.2109 27.1936 26.6893 26.7191C27.1676 26.2446 27.7355 25.8681 28.3606 25.6113C28.9856 25.3545 29.6555 25.2223 30.332 25.2223C31.6983 25.2223 33.0087 25.7607 33.9748 26.7191C34.9409 27.6775 35.4837 28.9773 35.4837 30.3327C35.4837 31.688 34.9409 32.9879 33.9748 33.9463C33.0087 34.9046 31.6983 35.4431 30.332 35.4431Z" fill="#2982E2"/>
</svg>
