<svg width="60" height="60" viewBox="0 0 60 60" fill="none" xmlns="http://www.w3.org/2000/svg">
<path d="M28.2838 32.1477L32.1458 28.2858L36.0077 32.1477L32.1458 36.0097L28.2838 32.1477ZM33.4194 40.4059L40.404 33.4214L43.5091 36.525L36.5245 43.511L33.4194 40.4059ZM45.8748 38.8907L38.8888 45.8768L47.5408 57.5007L57.4987 47.5428L45.8748 38.8907ZM37.0852 25.4062H27.2064V21.0143H37.0852V25.4062ZM27.2064 17.672H37.0852L39.1874 3.33398H25.1041L27.2064 17.672ZM25.4042 27.2083V37.0871H21.0123V27.2083H25.4042ZM17.6701 37.0871V27.2083L3.33203 25.1061V39.1894L17.6701 37.0871Z" fill="#2982E2" stroke="#2982E2" stroke-linecap="round" stroke-linejoin="round"/>
</svg>
